<?xml version="1.0" encoding="UTF-8" standalone="no"?>
<svg
   width="1100"
   height="600"
   overflow="hidden"
   version="1.1"
   id="svg261"
   sodipodi:docname="dc-code_syntax.svg"
   inkscape:version="1.2 (dc2aedaf03, 2022-05-15)"
   xmlns:inkscape="http://www.inkscape.org/namespaces/inkscape"
   xmlns:sodipodi="http://sodipodi.sourceforge.net/DTD/sodipodi-0.dtd"
   xmlns="http://www.w3.org/2000/svg"
   xmlns:svg="http://www.w3.org/2000/svg">
  <sodipodi:namedview
     id="namedview263"
     pagecolor="#ffffff"
     bordercolor="#000000"
     borderopacity="0.25"
     inkscape:showpageshadow="2"
     inkscape:pageopacity="0.0"
     inkscape:pagecheckerboard="0"
     inkscape:deskcolor="#d1d1d1"
     showgrid="false"
     inkscape:zoom="1.3111111"
     inkscape:cx="645.63559"
     inkscape:cy="366.86441"
     inkscape:window-width="2880"
     inkscape:window-height="1514"
     inkscape:window-x="3829"
     inkscape:window-y="-11"
     inkscape:window-maximized="1"
     inkscape:current-layer="svg261" />
  <defs
     id="defs59">
    <clipPath
       id="clip0">
      <rect
         x="0"
         y="0"
         width="1280"
         height="720"
         id="rect2" />
    </clipPath>
    <clipPath
       id="clip1">
      <rect
         x="137"
         y="332"
         width="63"
         height="63"
         id="rect5" />
    </clipPath>
    <clipPath
       id="clip2">
      <rect
         x="137"
         y="332"
         width="63"
         height="63"
         id="rect8" />
    </clipPath>
    <clipPath
       id="clip3">
      <rect
         x="137"
         y="332"
         width="63"
         height="63"
         id="rect11" />
    </clipPath>
    <clipPath
       id="clip4">
      <rect
         x="137"
         y="484"
         width="63"
         height="63"
         id="rect14" />
    </clipPath>
    <clipPath
       id="clip5">
      <rect
         x="137"
         y="484"
         width="63"
         height="63"
         id="rect17" />
    </clipPath>
    <clipPath
       id="clip6">
      <rect
         x="137"
         y="484"
         width="63"
         height="63"
         id="rect20" />
    </clipPath>
    <clipPath
       id="clip7">
      <rect
         x="135"
         y="250"
         width="66"
         height="66"
         id="rect23" />
    </clipPath>
    <clipPath
       id="clip8">
      <rect
         x="135"
         y="250"
         width="66"
         height="66"
         id="rect26" />
    </clipPath>
    <clipPath
       id="clip9">
      <rect
         x="135"
         y="250"
         width="66"
         height="66"
         id="rect29" />
    </clipPath>
    <clipPath
       id="clip10">
      <rect
         x="139"
         y="173"
         width="66"
         height="66"
         id="rect32" />
    </clipPath>
    <clipPath
       id="clip11">
      <rect
         x="139"
         y="173"
         width="66"
         height="66"
         id="rect35" />
    </clipPath>
    <clipPath
       id="clip12">
      <rect
         x="139"
         y="173"
         width="66"
         height="66"
         id="rect38" />
    </clipPath>
    <clipPath
       id="clip13">
      <rect
         x="137"
         y="561"
         width="63"
         height="63"
         id="rect41" />
    </clipPath>
    <clipPath
       id="clip14">
      <rect
         x="137"
         y="561"
         width="63"
         height="63"
         id="rect44" />
    </clipPath>
    <clipPath
       id="clip15">
      <rect
         x="137"
         y="561"
         width="63"
         height="63"
         id="rect47" />
    </clipPath>
    <clipPath
       id="clip16">
      <rect
         x="137"
         y="406"
         width="63"
         height="63"
         id="rect50" />
    </clipPath>
    <clipPath
       id="clip17">
      <rect
         x="137"
         y="406"
         width="63"
         height="63"
         id="rect53" />
    </clipPath>
    <clipPath
       id="clip18">
      <rect
         x="137"
         y="406"
         width="63"
         height="63"
         id="rect56" />
    </clipPath>
  </defs>
  <g
     clip-path="url(#clip0)"
     id="g259"
     transform="translate(-80.847458,-70.169492)">
    <rect
       x="0"
       y="0"
       width="1280"
       height="720"
       fill="#ffffff"
       id="rect61" />
    <path
       d="M 216.666,165.896 V 631.978"
       stroke="#000000"
       stroke-width="1.33333"
       stroke-linejoin="round"
       stroke-miterlimit="10"
       fill="none"
       fill-rule="evenodd"
       id="path63" />
    <path
       d="M 121.624,244.021 H 496.432"
       stroke="#000000"
       stroke-width="1.33333"
       stroke-linejoin="round"
       stroke-miterlimit="10"
       fill="none"
       fill-rule="evenodd"
       id="path65" />
    <path
       d="M 121.624,321.479 H 496.432"
       stroke="#000000"
       stroke-width="1.33333"
       stroke-linejoin="round"
       stroke-miterlimit="10"
       fill="none"
       fill-rule="evenodd"
       id="path67" />
    <path
       d="M 121.624,398.937 H 496.432"
       stroke="#000000"
       stroke-width="1.33333"
       stroke-linejoin="round"
       stroke-miterlimit="10"
       fill="none"
       fill-rule="evenodd"
       id="path69" />
    <path
       d="M 121.624,476.395 H 496.432"
       stroke="#000000"
       stroke-width="1.33333"
       stroke-linejoin="round"
       stroke-miterlimit="10"
       fill="none"
       fill-rule="evenodd"
       id="path71" />
    <path
       d="M 121.624,553.853 H 496.432"
       stroke="#000000"
       stroke-width="1.33333"
       stroke-linejoin="round"
       stroke-miterlimit="10"
       fill="none"
       fill-rule="evenodd"
       id="path73" />
    <path
       d="M 122.291,165.896 V 631.978"
       stroke="#000000"
       stroke-width="1.33333"
       stroke-linejoin="round"
       stroke-miterlimit="10"
       fill="none"
       fill-rule="evenodd"
       id="path75" />
    <path
       d="M 495.765,165.896 V 631.978"
       stroke="#000000"
       stroke-width="1.33333"
       stroke-linejoin="round"
       stroke-miterlimit="10"
       fill="none"
       fill-rule="evenodd"
       id="path77" />
    <path
       d="M 121.624,166.563 H 496.432"
       stroke="#000000"
       stroke-width="1.33333"
       stroke-linejoin="round"
       stroke-miterlimit="10"
       fill="none"
       fill-rule="evenodd"
       id="path79" />
    <path
       d="M 121.624,631.311 H 496.432"
       stroke="#000000"
       stroke-width="1.33333"
       stroke-linejoin="round"
       stroke-miterlimit="10"
       fill="none"
       fill-rule="evenodd"
       id="path81" />
    <text
       font-family="Calibri, Calibri_MSFontService, sans-serif"
       font-weight="400"
       font-size="43px"
       transform="translate(221.18,136)"
       id="text83">dplyr verbs</text>
    <text
       font-family="Calibri, Calibri_MSFontService, sans-serif"
       font-weight="400"
       font-size="43px"
       transform="translate(742.256,136)"
       id="text85">d</text>
    <text
       font-family="Calibri, Calibri_MSFontService, sans-serif"
       font-weight="400"
       font-size="43px"
       transform="translate(764.756,136)"
       id="text87">ata.table syntax</text>
    <g
       clip-path="url(#clip1)"
       id="g95">
      <g
         clip-path="url(#clip2)"
         id="g93">
        <g
           clip-path="url(#clip3)"
           id="g91">
          <path
             d="m 165.875,360.883 v 24.945 l 5.25,-5.25 v -19.695 l 19.687,-19.695 h -44.624 z m 4.323,-0.927 -0.386,0.384 v 19.692 l -2.624,2.625 V 360.34 l -0.384,-0.385 -17.448,-17.455 h 38.291 z"
             id="path89" />
        </g>
      </g>
    </g>
    <g
       clip-path="url(#clip4)"
       id="g113">
      <g
         clip-path="url(#clip5)"
         id="g111">
        <g
           clip-path="url(#clip6)"
           id="g109">
          <path
             d="m 197.671,505.19 -0.081,-0.073 0.081,-0.073 c 0.645,-0.582 0.695,-1.576 0.113,-2.22 -0.297,-0.33 -0.721,-0.518 -1.165,-0.519 l -0.19,0.008 0.006,-0.109 c 0.024,-0.43 -0.131,-0.85 -0.429,-1.162 -0.596,-0.63 -1.591,-0.657 -2.221,-0.06 -0.03,0.028 -0.059,0.058 -0.087,0.089 l -0.073,0.081 -0.073,-0.081 c -0.581,-0.645 -1.575,-0.696 -2.219,-0.115 -0.031,0.027 -0.061,0.056 -0.089,0.086 -0.298,0.312 -0.453,0.732 -0.429,1.162 l 0.066,1.295 c 0.002,0.021 0,0.043 -0.005,0.064 l -0.287,1.311 c -0.091,0.438 -0.245,0.861 -0.458,1.255 -0.891,1.584 -2.184,2.492 -3.546,2.492 -1.195,-0.061 -2.295,-0.669 -2.983,-1.647 0.552,-1.118 0.847,-2.344 0.864,-3.59 0,-0.584 -0.03,-1.168 -0.091,-1.748 2.972,-1.564 4.79,-4.254 4.79,-7.163 0,-3.196 -1.809,-6.019 -4.964,-7.743 -0.656,-0.368 -1.485,-0.134 -1.852,0.522 -0.33,0.59 -0.178,1.333 0.358,1.745 0.705,0.448 1.154,1.205 1.208,2.038 0,1.687 -1.659,2.537 -3.213,2.963 -3.122,-2.908 -7.752,-4.092 -12.209,-4.092 -4.456,0 -9.087,1.184 -12.208,4.092 -1.555,-0.426 -3.214,-1.276 -3.214,-2.964 0.055,-0.833 0.504,-1.59 1.208,-2.038 0.596,-0.458 0.708,-1.312 0.25,-1.908 -0.412,-0.536 -1.155,-0.689 -1.744,-0.359 -3.155,1.725 -4.964,4.548 -4.964,7.744 0,2.909 1.818,5.598 4.791,7.162 -0.062,0.581 -0.092,1.165 -0.092,1.749 0.018,1.246 0.313,2.472 0.864,3.589 -0.688,0.979 -1.788,1.587 -2.982,1.648 -1.363,0 -2.655,-0.908 -3.546,-2.492 -0.214,-0.394 -0.368,-0.817 -0.458,-1.255 l -0.261,-1.189 c -0.023,-0.102 -0.031,-0.206 -0.026,-0.311 l 0.06,-1.17 c 0.024,-0.429 -0.131,-0.85 -0.429,-1.161 -0.596,-0.63 -1.591,-0.657 -2.221,-0.061 -0.03,0.029 -0.059,0.059 -0.087,0.089 l -0.073,0.081 -0.073,-0.081 c -0.581,-0.644 -1.575,-0.696 -2.219,-0.115 -0.031,0.028 -0.061,0.057 -0.089,0.087 -0.297,0.311 -0.452,0.732 -0.428,1.161 l 0.005,0.109 -0.19,-0.008 c -0.868,10e-4 -1.571,0.705 -1.571,1.573 0.001,0.445 0.189,0.868 0.519,1.166 l 0.081,0.073 -0.081,0.073 c -0.644,0.582 -0.695,1.576 -0.113,2.22 0.297,0.33 0.721,0.518 1.165,0.519 h 0.034 l 0.048,-0.003 1.24,-0.063 0.447,0.207 c 0.324,0.139 0.564,0.421 0.651,0.762 1.021,4.728 4.922,8.029 9.486,8.029 0.117,0 0.235,-0.002 0.352,-0.007 -0.07,1.396 -0.105,2.715 -0.105,3.997 -0.016,5.171 0.476,10.332 1.471,15.406 -1.257,0.377 -2.283,1.293 -2.799,2.5 l -0.688,1.606 c -0.422,0.983 0.034,2.122 1.017,2.543 0.241,0.103 0.5,0.156 0.763,0.156 h 7.163 c 1.069,-10e-4 1.936,-0.867 1.937,-1.936 v -2.495 c 0,-2.934 3.185,-5.411 7.109,-5.537 3.924,0.126 7.11,2.604 7.11,5.537 v 2.495 c 0.001,1.069 0.867,1.935 1.936,1.936 h 7.164 c 1.069,0 1.936,-0.866 1.936,-1.936 0,-0.262 -0.053,-0.522 -0.156,-0.763 l -0.689,-1.606 c -0.516,-1.207 -1.542,-2.123 -2.799,-2.5 0.995,-5.074 1.487,-10.235 1.471,-15.406 0,-1.282 -0.035,-2.601 -0.105,-3.997 0.118,0.005 0.235,0.007 0.352,0.007 4.565,0 8.466,-3.301 9.487,-8.028 0.086,-0.342 0.327,-0.624 0.651,-0.763 l 0.378,-0.175 c 0.04,-0.019 0.084,-0.028 0.128,-0.028 l 1.181,0.06 0.033,0.002 h 0.048 c 0.868,-10e-4 1.572,-0.705 1.571,-1.573 0,-0.445 -0.189,-0.868 -0.519,-1.166 z m -12.444,-14.156 c -0.058,-1.242 -0.685,-2.388 -1.698,-3.109 -0.012,-0.01 -0.027,-0.034 -0.017,-0.047 0.009,-0.012 0.033,-0.011 0.06,0.003 2.72,1.488 4.28,3.89 4.28,6.592 0,2.287 -1.392,4.428 -3.696,5.783 -0.37,-1.91 -1.213,-3.696 -2.45,-5.197 2.28,-0.795 3.521,-2.197 3.521,-4.025 z m -36.093,3.439 c 0,-2.702 1.559,-5.105 4.28,-6.592 0.029,-0.015 0.063,-0.012 0.063,0.076 -1.03,0.694 -1.668,1.836 -1.718,3.077 0,1.828 1.241,3.23 3.522,4.025 -1.238,1.501 -2.08,3.287 -2.451,5.196 -2.304,-1.355 -3.696,-3.496 -3.696,-5.781 z m 46.711,10.837 0.947,0.854 c 0.106,0.096 0.114,0.261 0.018,0.367 -0.048,0.054 -0.118,0.085 -0.191,0.085 h -0.014 l -1.166,-0.06 c -0.027,-10e-4 -0.055,-0.002 -0.082,-0.002 -0.235,0 -0.467,0.051 -0.68,0.15 l -0.377,0.175 c -0.698,0.312 -1.21,0.932 -1.383,1.677 -0.866,4.007 -4.21,6.993 -8.204,6.993 -0.591,-0.004 -1.181,-0.075 -1.756,-0.211 0.121,1.804 0.197,3.639 0.197,5.513 0.019,5.557 -0.563,11.1 -1.737,16.532 h 0.304 c 1.247,0 2.375,0.744 2.867,1.891 l 0.688,1.606 c 0.136,0.317 -0.011,0.684 -0.327,0.82 -0.078,0.033 -0.162,0.05 -0.246,0.05 h -7.164 c -0.345,0 -0.624,-0.279 -0.624,-0.624 v -2.495 c 0,-3.662 -3.744,-6.718 -8.422,-6.85 -4.678,0.132 -8.422,3.188 -8.422,6.85 v 2.495 c 0,0.345 -0.279,0.624 -0.624,0.624 h -7.163 c -0.345,0 -0.624,-0.279 -0.624,-0.624 0,-0.084 0.017,-0.168 0.05,-0.246 l 0.689,-1.606 c 0.491,-1.147 1.619,-1.891 2.867,-1.891 h 0.303 c -1.174,-5.432 -1.756,-10.975 -1.736,-16.532 0,-1.874 0.076,-3.709 0.196,-5.513 -0.575,0.136 -1.164,0.207 -1.756,0.211 -3.994,0 -7.338,-2.986 -8.203,-6.994 -0.173,-0.744 -0.685,-1.364 -1.383,-1.676 l -0.47,-0.218 c -0.159,-0.073 -0.332,-0.111 -0.508,-0.111 -0.02,0 -0.041,0 -0.061,10e-4 l -1.267,0.065 -0.014,0.001 c -0.143,-0.001 -0.259,-0.118 -0.258,-0.261 0,-0.073 0.031,-0.143 0.085,-0.191 l 0.947,-0.855 c 0.106,-0.096 0.115,-0.26 0.019,-0.366 -0.006,-0.007 -0.012,-0.013 -0.019,-0.019 l -0.947,-0.855 c -0.106,-0.096 -0.114,-0.26 -0.018,-0.366 0.048,-0.054 0.118,-0.086 0.191,-0.086 h 0.014 l 1.274,0.065 h 0.013 c 0.143,0 0.26,-0.116 0.259,-0.259 0,-0.005 0,-0.009 0,-0.013 l -0.064,-1.274 c -0.008,-0.142 0.101,-0.265 0.244,-0.273 0.006,0 0.011,0 0.017,0 0.073,0 0.142,0.031 0.19,0.086 l 0.855,0.947 c 0.096,0.106 0.26,0.115 0.366,0.019 0.007,-0.006 0.013,-0.012 0.019,-0.019 l 0.855,-0.947 c 0.048,-0.055 0.117,-0.086 0.19,-0.086 0.143,-10e-4 0.26,0.113 0.262,0.257 0,0.005 0,0.011 -10e-4,0.016 l -0.06,1.17 c -0.011,0.222 0.007,0.443 0.055,0.66 l 0.261,1.188 c 0.118,0.566 0.318,1.111 0.596,1.618 1.082,1.922 2.779,3.161 4.69,3.161 1.807,0 3.423,-1.11 4.51,-2.855 -0.668,-1.12 -1.039,-2.392 -1.079,-3.695 0,-9.046 7.486,-12.165 14.66,-12.165 7.175,0 14.66,3.119 14.66,12.165 -0.04,1.303 -0.411,2.575 -1.079,3.695 1.088,1.745 2.703,2.855 4.511,2.855 1.911,0 3.608,-1.239 4.69,-3.162 0.277,-0.506 0.478,-1.051 0.595,-1.617 l 0.288,-1.31 c 0.03,-0.136 0.041,-0.274 0.034,-0.413 l -0.066,-1.294 c -0.008,-0.143 0.101,-0.266 0.244,-0.273 0.006,-0.001 0.012,-0.001 0.017,-0.001 0.073,0 0.142,0.032 0.19,0.087 l 0.855,0.946 c 0.096,0.107 0.26,0.115 0.367,0.019 0.006,-0.006 0.012,-0.012 0.018,-0.019 l 0.855,-0.946 c 0.048,-0.055 0.117,-0.087 0.19,-0.087 0.143,-10e-4 0.261,0.114 0.262,0.257 0,0.005 0,0.011 0,0.017 l -0.065,1.273 c -0.008,0.143 0.102,0.265 0.245,0.273 0.005,0 0.009,0 0.013,0 h 0.014 l 1.273,-0.065 0.015,-0.001 c 0.143,0.001 0.259,0.118 0.258,0.261 0,0.073 -0.031,0.143 -0.086,0.191 l -0.946,0.855 c -0.106,0.096 -0.114,0.261 -0.018,0.367 0.006,0.006 0.012,0.012 0.018,0.018 z"
             id="path97" />
          <path
             d="m 164.227,501.693 c 2.175,0 3.938,-1.763 3.938,-3.938 0,-2.175 -1.763,-3.937 -3.938,-3.937 -2.174,0 -3.937,1.762 -3.937,3.937 0.002,2.174 1.764,3.935 3.937,3.938 z m 0,-6.563 c 1.45,0 2.625,1.175 2.625,2.625 0,1.45 -1.175,2.625 -2.625,2.625 -1.449,0 -2.625,-1.175 -2.625,-2.625 0.002,-1.449 1.176,-2.623 2.625,-2.625 z"
             id="path99" />
          <path
             d="m 164.062,498.77 c 0.569,0.462 1.405,0.375 1.867,-0.194 0.462,-0.569 0.375,-1.405 -0.194,-1.867 -0.569,-0.461 -1.405,-0.375 -1.867,0.195 -0.401,0.494 -0.395,1.204 0.015,1.691 0.054,0.064 0.114,0.123 0.179,0.175 z"
             id="path101" />
          <path
             d="m 172.759,501.693 c 2.174,0 3.937,-1.763 3.937,-3.938 0,-2.175 -1.763,-3.937 -3.937,-3.937 -2.175,0 -3.938,1.762 -3.938,3.937 0.002,2.174 1.764,3.935 3.938,3.938 z m 0,-6.563 c 1.449,0 2.625,1.175 2.625,2.625 0,1.45 -1.176,2.625 -2.625,2.625 -1.45,0 -2.625,-1.175 -2.625,-2.625 0.001,-1.449 1.175,-2.623 2.625,-2.625 z"
             id="path103" />
          <path
             d="m 171.281,498.77 c 0.569,0.462 1.405,0.375 1.867,-0.194 0.462,-0.569 0.375,-1.405 -0.195,-1.867 -0.569,-0.461 -1.405,-0.375 -1.866,0.195 -0.402,0.494 -0.395,1.204 0.015,1.691 0.054,0.064 0.114,0.123 0.179,0.175 z"
             id="path105" />
          <path
             d="m 177.4,503.884 c -2.286,2.604 -4.852,3.715 -8.579,3.715 h -0.656 c -3.728,0 -6.293,-1.111 -8.579,-3.715 -0.235,-0.275 -0.649,-0.308 -0.925,-0.072 -0.276,0.235 -0.308,0.649 -0.073,0.925 0.004,0.004 0.008,0.009 0.012,0.013 0.706,0.816 1.511,1.541 2.397,2.157 10e-4,0.004 -0.002,0.008 -0.002,0.013 l 0.495,3.092 c 0.029,0.179 0.197,0.301 0.376,0.272 0.065,-0.01 0.125,-0.04 0.173,-0.084 l 1.969,-1.847 c 1.351,0.389 2.751,0.577 4.157,0.558 h 0.656 c 1.406,0.019 2.806,-0.169 4.157,-0.558 l 1.969,1.847 c 0.133,0.123 0.34,0.117 0.464,-0.015 0.045,-0.048 0.075,-0.108 0.085,-0.173 l 0.495,-3.092 c 0,-0.005 -0.002,-0.009 -0.002,-0.013 0.886,-0.616 1.691,-1.341 2.397,-2.157 0.239,-0.272 0.212,-0.687 -0.06,-0.926 -0.272,-0.239 -0.687,-0.212 -0.926,0.06 z"
             id="path107" />
        </g>
      </g>
    </g>
    <g
       clip-path="url(#clip7)"
       id="g123">
      <g
         clip-path="url(#clip8)"
         id="g121">
        <g
           clip-path="url(#clip9)"
           id="g119">
          <path
             d="m 154.938,296.062 c 0,0.38 0.307,0.688 0.687,0.688 0.38,0 0.687,-0.308 0.687,-0.688 v -39.573 c 10e-4,-0.004 0.004,-0.007 0.007,-0.007 0.002,0 0.004,10e-4 0.005,0.002 l 9.127,9.127 c 0.274,0.264 0.709,0.256 0.973,-0.017 0.257,-0.266 0.257,-0.689 0,-0.955 l -10.313,-10.313 c -0.268,-0.268 -0.704,-0.268 -0.972,0 l -10.313,10.313 c -0.263,0.273 -0.256,0.708 0.017,0.972 0.267,0.257 0.689,0.257 0.956,0 l 9.127,-9.127 c 0.002,-0.003 0.007,-0.003 0.01,0 0.001,0.001 0.002,0.003 0.002,0.005 z"
             id="path115" />
          <path
             d="m 190.201,300.389 -9.127,9.127 c -0.002,0.003 -0.007,0.003 -0.01,0 -0.001,-0.001 -0.002,-0.003 -0.002,-0.005 v -39.573 c 0,-0.38 -0.307,-0.688 -0.687,-0.688 -0.38,0 -0.687,0.308 -0.687,0.688 v 39.573 c -10e-4,0.004 -0.004,0.007 -0.007,0.007 -0.002,0 -0.004,-10e-4 -0.005,-0.002 l -9.127,-9.127 c -0.274,-0.264 -0.709,-0.256 -0.973,0.017 -0.257,0.266 -0.257,0.689 0,0.955 l 10.313,10.313 c 0.268,0.268 0.704,0.268 0.972,0 l 10.313,-10.313 c 0.263,-0.273 0.256,-0.708 -0.017,-0.972 -0.267,-0.257 -0.689,-0.257 -0.956,0 z"
             id="path117" />
        </g>
      </g>
    </g>
    <g
       clip-path="url(#clip10)"
       id="g135">
      <g
         clip-path="url(#clip11)"
         id="g133">
        <g
           clip-path="url(#clip12)"
           id="g131">
          <path
             d="m 201.075,198.498 c -0.021,-0.309 -0.246,-0.566 -0.55,-0.628 l -7.268,-1.481 c -0.226,-0.048 -0.461,0.023 -0.623,0.187 l -0.913,0.913 -13.371,-13.234 c -1.66,-1.893 -4.503,-2.175 -6.503,-0.646 l -14.502,11.407 c -0.156,-0.006 -0.312,-0.016 -0.47,-0.016 -6.831,0.008 -12.367,5.544 -12.375,12.375 v 14.506 c -1.599,0.329 -2.748,1.736 -2.75,3.369 v 3.438 H 172 v -3.438 c -0.005,-1.645 -1.173,-3.057 -2.788,-3.369 l 0.038,-14.506 v 0 c -0.003,-2.764 -0.938,-5.447 -2.655,-7.613 l 6.522,-7.804 c 1.031,0.381 2.163,0.389 3.2,0.025 l 10.541,10.369 -1.001,1 c -0.162,0.162 -0.233,0.394 -0.189,0.619 l 1.406,7.345 c 0.059,0.307 0.318,0.535 0.63,0.556 l 7.291,0.486 h 0.047 c 0.38,0.012 0.698,-0.285 0.71,-0.665 0.012,-0.38 -0.285,-0.698 -0.665,-0.71 l -6.762,-0.45 -1.238,-6.466 6.256,-6.256 6.394,1.302 0.451,6.768 c 0.03,0.377 0.354,0.661 0.731,0.641 0.379,-0.024 0.667,-0.35 0.644,-0.729 0,-0.001 0,-0.002 -10e-4,-0.003 z m -30.45,26.752 v 2.062 h -27.5 v -2.062 c 0,-1.139 0.923,-2.062 2.063,-2.062 h 23.374 c 1.14,0 2.063,0.923 2.063,2.062 z m -2.75,-17.875 -0.038,14.437 h -21.962 v -14.437 c 0.009,-5.536 4.127,-10.204 9.619,-10.902 l -2.757,2.171 c -2.422,2.028 -2.741,5.637 -0.712,8.059 1.086,1.297 2.692,2.047 4.385,2.047 0.083,0 0.167,0 0.25,-0.006 1.603,-0.073 3.103,-0.814 4.134,-2.043 l 4.902,-5.866 c 1.414,1.887 2.178,4.182 2.179,6.54 z m -8.135,-1.557 c -0.778,0.94 -1.92,1.505 -3.14,1.552 -1.22,0.067 -2.41,-0.395 -3.264,-1.268 -1.698,-1.696 -1.699,-4.447 -0.004,-6.145 0.087,-0.087 0.177,-0.17 0.271,-0.249 l 16.363,-12.88 c 0.007,-0.006 0.012,0 0.011,0.006 -0.231,1.721 0.499,3.431 1.901,4.455 z m 11.601,-17.932 c -0.247,-1.883 1.078,-3.609 2.961,-3.856 1.882,-0.248 3.608,1.078 3.856,2.96 0.247,1.882 -1.078,3.609 -2.961,3.856 -0.297,0.039 -0.598,0.039 -0.895,0 -1.543,-0.204 -2.756,-1.418 -2.961,-2.96 z m 8.231,-0.493 11.154,11.045 -2.918,2.918 -10.214,-10.045 c 1.217,-0.889 1.945,-2.298 1.968,-3.805 0,-0.02 0,-0.068 0,-0.106 0,-0.012 0,-0.013 0.01,-0.007 z"
             id="path125" />
          <path
             d="m 155.937,200.601 c -0.89,0.711 -1.035,2.009 -0.324,2.899 0.711,0.89 2.009,1.035 2.899,0.324 0.059,-0.048 0.116,-0.099 0.17,-0.153 v 0 c 0.808,-0.803 0.811,-2.109 0.007,-2.916 -0.743,-0.747 -1.93,-0.814 -2.752,-0.154 z m 1.773,2.099 v 0 c -0.271,0.26 -0.7,0.26 -0.971,0 -0.269,-0.268 -0.269,-0.704 0,-0.972 0.268,-0.269 0.703,-0.269 0.972,0 0.269,0.268 0.269,0.703 0,0.972 0,0 0,0 0,0 z"
             id="path127" />
          <path
             d="m 175.087,185.751 c -0.931,-0.185 -1.836,0.419 -2.022,1.35 -0.185,0.931 0.419,1.836 1.35,2.021 0.931,0.186 1.836,-0.418 2.021,-1.349 0.045,-0.222 0.045,-0.451 0,-0.672 -0.135,-0.682 -0.668,-1.214 -1.349,-1.35 z m -0.337,2.03 c -0.19,0 -0.344,-0.154 -0.344,-0.343 0,-0.19 0.154,-0.344 0.344,-0.344 0.19,0 0.344,0.154 0.344,0.344 0,0.189 -0.154,0.343 -0.344,0.343 z"
             id="path129" />
        </g>
      </g>
    </g>
    <g
       clip-path="url(#clip13)"
       id="g189">
      <g
         clip-path="url(#clip14)"
         id="g187">
        <g
           clip-path="url(#clip15)"
           id="g185">
          <path
             d="m 160.735,601.719 c -0.076,-0.329 -0.265,-0.621 -0.534,-0.825 -0.579,-0.434 -1.235,-0.754 -1.933,-0.943 -1.066,-0.309 -2.198,-0.309 -3.264,0 -0.7,0.189 -1.357,0.509 -1.937,0.944 -0.27,0.204 -0.46,0.496 -0.536,0.826 -0.005,0.022 -0.009,0.045 -0.013,0.066 l -1.074,7.684 c -0.05,0.359 0.2,0.691 0.559,0.741 0.03,0.005 0.06,0.007 0.091,0.007 0.327,-0.001 0.603,-0.242 0.649,-0.565 l 1.069,-7.642 c 0.006,-0.026 0.021,-0.05 0.042,-0.066 0.446,-0.335 0.952,-0.582 1.491,-0.727 0.842,-0.249 1.738,-0.249 2.58,0 0.537,0.145 1.042,0.392 1.487,0.726 0.021,0.016 0.036,0.039 0.042,0.065 l 1.069,7.642 c 0.046,0.323 0.322,0.564 0.649,0.565 0.031,0 0.062,-0.002 0.092,-0.007 0.359,-0.05 0.609,-0.382 0.559,-0.741 l -1.074,-7.682 c -0.003,-0.023 -0.008,-0.046 -0.014,-0.068 z"
             id="path137" />
          <path
             d="m 156.63,599.062 c 1.449,0 2.625,-1.175 2.625,-2.624 0,-1.45 -1.176,-2.626 -2.625,-2.626 -1.45,0 -2.625,1.176 -2.625,2.626 0,1.449 1.175,2.624 2.625,2.624 z m 0,-3.937 c 0.725,0 1.312,0.588 1.312,1.313 0,0.724 -0.587,1.312 -1.312,1.312 -0.725,0 -1.313,-0.588 -1.313,-1.312 0,-0.725 0.588,-1.313 1.313,-1.313 z"
             id="path139" />
          <path
             d="m 148.981,601.72 c -0.076,-0.33 -0.265,-0.622 -0.535,-0.826 -0.578,-0.434 -1.233,-0.754 -1.93,-0.943 -0.533,-0.15 -1.084,-0.228 -1.637,-0.232 -0.552,0.004 -1.1,0.082 -1.631,0.231 -0.699,0.189 -1.356,0.509 -1.936,0.944 -0.27,0.204 -0.459,0.496 -0.535,0.826 -0.006,0.022 -0.01,0.045 -0.013,0.065 l -1.073,7.686 c -0.051,0.359 0.199,0.691 0.558,0.741 0.031,0.005 0.061,0.007 0.092,0.007 0.327,-0.001 0.604,-0.242 0.649,-0.565 l 1.068,-7.642 c 0.005,-0.027 0.02,-0.05 0.042,-0.066 0.446,-0.335 0.952,-0.581 1.49,-0.727 0.419,-0.119 0.853,-0.183 1.289,-0.188 0.437,0.005 0.872,0.068 1.292,0.187 0.537,0.146 1.042,0.392 1.487,0.726 0.021,0.016 0.036,0.04 0.042,0.066 l 1.069,7.642 c 0.046,0.323 0.322,0.564 0.649,0.565 0.031,0 0.062,-0.002 0.092,-0.007 0.359,-0.05 0.609,-0.382 0.559,-0.741 0,0 0,0 0,0 l -1.075,-7.682 c -0.003,-0.023 -0.007,-0.045 -0.013,-0.067 z"
             id="path141" />
          <path
             d="m 144.875,599.062 c 1.45,0 2.625,-1.175 2.625,-2.624 0,-1.45 -1.175,-2.626 -2.625,-2.626 -1.45,0 -2.625,1.176 -2.625,2.626 0,1.449 1.175,2.624 2.625,2.624 z m 0,-3.937 c 0.725,0 1.313,0.588 1.313,1.313 0,0.724 -0.588,1.312 -1.313,1.312 -0.725,0 -1.313,-0.588 -1.313,-1.312 0,-0.725 0.588,-1.313 1.313,-1.313 z"
             id="path143" />
          <path
             d="m 158.598,603.656 c 0,-0.362 -0.293,-0.656 -0.656,-0.656 -0.362,0 -0.656,0.294 -0.656,0.656 v 5.906 h -1.313 v -5.906 c 0,-0.362 -0.293,-0.656 -0.656,-0.656 -0.362,0 -0.656,0.294 -0.656,0.656 v 16.378 h 1.312 v -9.159 h 1.313 v 9.159 h 1.312 v -14.409 0 z"
             id="path145" />
          <path
             d="m 146.844,603.656 c 0,-0.362 -0.294,-0.656 -0.656,-0.656 v 0 c -0.363,0 -0.657,0.294 -0.657,0.656 v 3.012 l 2.016,5.52 h -5.343 l 2.015,-5.52 v -0.116 0 -2.896 c 0,-0.362 -0.294,-0.656 -0.657,-0.656 v 0 c -0.362,0 -0.656,0.294 -0.656,0.656 v 2.781 l -2.578,7.063 h 2.578 v 6.562 h 1.313 V 613.5 h 1.312 v 6.562 h 1.313 V 613.5 h 2.579 l -2.579,-7.065 z"
             id="path147" />
          <path
             d="m 184.36,601.719 c -0.076,-0.329 -0.265,-0.621 -0.534,-0.825 -0.579,-0.434 -1.235,-0.754 -1.933,-0.943 -1.066,-0.309 -2.198,-0.309 -3.264,0 -0.7,0.189 -1.357,0.509 -1.937,0.944 -0.27,0.204 -0.46,0.496 -0.536,0.826 -0.005,0.022 -0.009,0.045 -0.013,0.066 l -1.074,7.684 c -0.05,0.359 0.2,0.691 0.559,0.741 0.03,0.005 0.06,0.007 0.091,0.007 0.327,-0.001 0.603,-0.242 0.649,-0.565 l 1.069,-7.642 c 0.006,-0.026 0.021,-0.05 0.042,-0.066 0.446,-0.335 0.952,-0.582 1.491,-0.727 0.842,-0.249 1.738,-0.249 2.58,0 0.537,0.145 1.042,0.392 1.487,0.726 0.021,0.016 0.036,0.039 0.042,0.065 l 1.069,7.642 c 0.046,0.323 0.322,0.564 0.649,0.565 0.031,0 0.062,-0.002 0.092,-0.007 0.359,-0.05 0.609,-0.382 0.559,-0.741 l -1.074,-7.682 c -0.003,-0.023 -0.008,-0.046 -0.014,-0.068 z"
             id="path149" />
          <path
             d="m 180.255,599.062 c 1.449,0 2.625,-1.175 2.625,-2.624 0,-1.45 -1.176,-2.626 -2.625,-2.626 -1.45,0 -2.625,1.176 -2.625,2.626 0,1.449 1.175,2.624 2.625,2.624 z m 0,-3.937 c 0.725,0 1.312,0.588 1.312,1.313 0,0.724 -0.587,1.312 -1.312,1.312 -0.725,0 -1.313,-0.588 -1.313,-1.312 0,-0.725 0.588,-1.313 1.313,-1.313 z"
             id="path151" />
          <path
             d="m 172.606,601.72 c -0.076,-0.33 -0.265,-0.622 -0.535,-0.826 -0.578,-0.434 -1.233,-0.754 -1.93,-0.943 -1.067,-0.309 -2.199,-0.309 -3.265,0 -0.7,0.189 -1.357,0.51 -1.936,0.944 -0.27,0.204 -0.46,0.496 -0.536,0.826 -0.005,0.022 -0.009,0.045 -0.013,0.066 l -1.075,7.684 c -0.051,0.359 0.199,0.691 0.558,0.741 0.031,0.005 0.061,0.007 0.092,0.007 0.327,-0.001 0.604,-0.242 0.649,-0.565 l 1.069,-7.642 c 0.006,-0.027 0.021,-0.05 0.042,-0.066 0.446,-0.335 0.952,-0.581 1.49,-0.727 0.843,-0.249 1.739,-0.249 2.581,0 0.538,0.145 1.042,0.392 1.487,0.726 0.022,0.016 0.037,0.039 0.042,0.065 l 1.07,7.642 c 0.045,0.324 0.322,0.565 0.649,0.565 0.03,10e-4 0.061,-0.002 0.091,-0.006 0.359,-0.05 0.61,-0.382 0.56,-0.741 0,0 0,0 0,0 l -1.077,-7.683 c -0.003,-0.023 -0.007,-0.045 -0.013,-0.067 z"
             id="path153" />
          <path
             d="m 168.5,593.812 c -1.45,0 -2.625,1.176 -2.625,2.626 0,1.449 1.175,2.624 2.625,2.624 1.45,0 2.625,-1.175 2.625,-2.624 0,-1.45 -1.175,-2.626 -2.625,-2.626 z m 0,3.938 c -0.725,0 -1.312,-0.588 -1.312,-1.312 0,-0.725 0.587,-1.313 1.312,-1.313 0.725,0 1.312,0.588 1.312,1.313 0,0.724 -0.587,1.312 -1.312,1.312 z"
             id="path155" />
          <path
             d="m 182.224,603.656 c 0,-0.362 -0.294,-0.656 -0.657,-0.656 -0.362,0 -0.656,0.294 -0.656,0.656 v 5.906 h -1.312 v -5.906 c 0,-0.362 -0.294,-0.656 -0.657,-0.656 -0.362,0 -0.656,0.294 -0.656,0.656 v 16.378 h 1.313 v -9.159 h 1.312 v 9.159 h 1.313 v -14.409 0 z"
             id="path157" />
          <path
             d="m 170.469,603.656 c 0,-0.362 -0.294,-0.656 -0.657,-0.656 v 0 c -0.362,0 -0.656,0.294 -0.656,0.656 v 3.012 l 2.016,5.52 h -5.343 l 2.015,-5.52 v -0.116 0 -2.896 c 0,-0.362 -0.294,-0.656 -0.656,-0.656 v 0 c -0.363,0 -0.657,0.294 -0.657,0.656 v 2.781 l -2.578,7.063 h 2.578 v 6.562 h 1.313 V 613.5 h 1.312 v 6.562 h 1.313 V 613.5 h 2.579 l -2.579,-7.065 z"
             id="path159" />
          <path
             d="m 160.735,572.844 c -0.076,-0.329 -0.265,-0.621 -0.534,-0.825 -0.579,-0.434 -1.235,-0.754 -1.933,-0.943 -1.066,-0.309 -2.198,-0.309 -3.264,0 -0.7,0.189 -1.357,0.509 -1.937,0.944 -0.27,0.204 -0.46,0.496 -0.536,0.826 -0.005,0.022 -0.009,0.045 -0.013,0.066 l -1.074,7.684 c -0.05,0.359 0.2,0.691 0.559,0.741 0.03,0.005 0.06,0.007 0.091,0.007 0.327,-0.001 0.603,-0.242 0.649,-0.565 l 1.069,-7.642 c 0.006,-0.026 0.021,-0.05 0.042,-0.066 0.446,-0.335 0.952,-0.582 1.491,-0.727 0.842,-0.249 1.738,-0.249 2.58,0 0.537,0.145 1.042,0.392 1.487,0.726 0.021,0.016 0.036,0.039 0.042,0.065 l 1.069,7.642 c 0.046,0.323 0.322,0.564 0.649,0.565 0.031,0 0.062,-0.002 0.092,-0.007 0.359,-0.05 0.609,-0.382 0.559,-0.741 l -1.074,-7.682 c -0.003,-0.023 -0.008,-0.046 -0.014,-0.068 z"
             id="path161" />
          <path
             d="m 156.63,570.188 c 1.449,0 2.625,-1.176 2.625,-2.626 0,-1.449 -1.176,-2.624 -2.625,-2.624 -1.45,0 -2.625,1.175 -2.625,2.624 0,1.45 1.175,2.626 2.625,2.626 z m 0,-3.938 c 0.725,0 1.312,0.588 1.312,1.312 0,0.725 -0.587,1.313 -1.312,1.313 -0.725,0 -1.313,-0.588 -1.313,-1.313 0,-0.724 0.588,-1.312 1.313,-1.312 z"
             id="path163" />
          <path
             d="m 155.973,576.75 v -1.969 c 0,-0.362 -0.293,-0.656 -0.656,-0.656 -0.362,0 -0.656,0.294 -0.656,0.656 v 16.378 h 1.312 V 582 h 1.313 v 9.159 h 1.312 v -14.409 0 -1.969 c 0,-0.362 -0.293,-0.656 -0.656,-0.656 -0.362,0 -0.656,0.294 -0.656,0.656 v 5.907 h -1.313 z"
             id="path165" />
          <path
             d="m 184.36,572.844 c -0.076,-0.329 -0.265,-0.621 -0.534,-0.825 -0.579,-0.434 -1.235,-0.754 -1.933,-0.943 -1.066,-0.309 -2.198,-0.309 -3.264,0 -0.7,0.189 -1.357,0.509 -1.937,0.944 -0.27,0.204 -0.46,0.496 -0.536,0.826 -0.005,0.022 -0.009,0.045 -0.013,0.066 l -1.074,7.684 c -0.05,0.359 0.2,0.691 0.559,0.741 0.03,0.005 0.06,0.007 0.091,0.007 0.327,-0.001 0.603,-0.242 0.649,-0.565 l 1.069,-7.642 c 0.006,-0.026 0.021,-0.05 0.042,-0.066 0.446,-0.335 0.952,-0.582 1.491,-0.727 0.842,-0.249 1.738,-0.249 2.58,0 0.537,0.145 1.042,0.392 1.487,0.726 0.021,0.016 0.036,0.039 0.042,0.065 l 1.069,7.642 c 0.046,0.323 0.322,0.564 0.649,0.565 0.031,0 0.062,-0.002 0.092,-0.007 0.359,-0.05 0.609,-0.382 0.559,-0.741 l -1.074,-7.682 c -0.003,-0.023 -0.008,-0.046 -0.014,-0.068 z"
             id="path167" />
          <path
             d="m 180.255,570.188 c 1.449,0 2.625,-1.176 2.625,-2.626 0,-1.449 -1.176,-2.624 -2.625,-2.624 -1.45,0 -2.625,1.175 -2.625,2.624 0,1.45 1.175,2.626 2.625,2.626 z m 0,-3.938 c 0.725,0 1.312,0.588 1.312,1.312 0,0.725 -0.587,1.313 -1.312,1.313 -0.725,0 -1.313,-0.588 -1.313,-1.313 0,-0.724 0.588,-1.312 1.313,-1.312 z"
             id="path169" />
          <path
             d="m 172.606,572.845 c -0.076,-0.33 -0.265,-0.622 -0.535,-0.826 -0.578,-0.434 -1.233,-0.754 -1.93,-0.943 -1.067,-0.309 -2.199,-0.309 -3.265,0 -0.7,0.189 -1.357,0.51 -1.936,0.944 -0.27,0.204 -0.46,0.496 -0.536,0.826 -0.005,0.022 -0.009,0.045 -0.013,0.066 l -1.075,7.684 c -0.051,0.359 0.199,0.691 0.558,0.741 0.031,0.005 0.061,0.007 0.092,0.007 0.327,-0.001 0.604,-0.242 0.649,-0.565 l 1.069,-7.642 c 0.006,-0.027 0.021,-0.05 0.042,-0.066 0.446,-0.335 0.952,-0.581 1.49,-0.727 0.843,-0.249 1.739,-0.249 2.581,0 0.538,0.145 1.042,0.392 1.487,0.726 0.022,0.016 0.037,0.039 0.042,0.065 l 1.07,7.642 c 0.045,0.324 0.322,0.565 0.649,0.565 0.03,10e-4 0.061,-0.002 0.091,-0.006 0.359,-0.05 0.61,-0.382 0.56,-0.741 0,0 0,0 0,0 l -1.077,-7.683 c -0.003,-0.023 -0.007,-0.045 -0.013,-0.067 z"
             id="path171" />
          <path
             d="m 168.5,570.188 c 1.45,0 2.625,-1.176 2.625,-2.626 0,-1.449 -1.175,-2.624 -2.625,-2.624 -1.45,0 -2.625,1.175 -2.625,2.624 0,1.45 1.175,2.626 2.625,2.626 z m 0,-3.938 c 0.725,0 1.312,0.588 1.312,1.312 0,0.725 -0.587,1.313 -1.312,1.313 -0.725,0 -1.312,-0.588 -1.312,-1.313 0,-0.724 0.587,-1.312 1.312,-1.312 z"
             id="path173" />
          <path
             d="m 179.599,576.75 v -1.969 c 0,-0.362 -0.294,-0.656 -0.657,-0.656 -0.362,0 -0.656,0.294 -0.656,0.656 v 16.378 h 1.313 V 582 h 1.312 v 9.159 h 1.313 v -14.409 0 -1.969 c 0,-0.362 -0.294,-0.656 -0.657,-0.656 -0.362,0 -0.656,0.294 -0.656,0.656 v 5.907 h -1.312 z"
             id="path175" />
          <path
             d="m 164.855,584.625 h 1.676 v 6.563 h 1.313 v -6.563 h 1.312 v 6.563 h 1.313 v -6.563 h 2.579 l -2.579,-7.065 v -2.779 c 0,-0.362 -0.294,-0.656 -0.657,-0.656 v 0 c -0.362,0 -0.656,0.294 -0.656,0.656 v 3.012 l 2.016,5.519 h -5.343 l 2.015,-5.519 v -0.116 0 -2.896 c 0,-0.362 -0.294,-0.656 -0.656,-0.656 v 0 c -0.363,0 -0.657,0.294 -0.657,0.656 v 2.781 l -2.578,7.063 z"
             id="path177" />
          <path
             d="m 196.231,601.72 c -0.076,-0.33 -0.265,-0.622 -0.535,-0.826 -0.578,-0.434 -1.233,-0.754 -1.93,-0.943 -1.067,-0.309 -2.199,-0.309 -3.265,0 -0.7,0.189 -1.357,0.51 -1.936,0.944 -0.27,0.204 -0.46,0.496 -0.536,0.826 -0.005,0.022 -0.009,0.045 -0.013,0.066 l -1.075,7.684 c -0.051,0.359 0.199,0.691 0.558,0.741 0.031,0.005 0.061,0.007 0.092,0.007 0.327,-0.001 0.604,-0.242 0.649,-0.565 l 1.069,-7.642 c 0.006,-0.027 0.021,-0.05 0.042,-0.066 0.446,-0.335 0.952,-0.581 1.49,-0.727 0.843,-0.249 1.739,-0.249 2.581,0 0.538,0.145 1.042,0.392 1.487,0.726 0.022,0.016 0.037,0.039 0.042,0.065 l 1.069,7.642 c 0.046,0.324 0.323,0.565 0.65,0.565 0.03,10e-4 0.061,-0.002 0.091,-0.006 0.359,-0.05 0.61,-0.382 0.56,-0.741 0,0 0,0 0,0 l -1.077,-7.683 c -0.003,-0.023 -0.007,-0.045 -0.013,-0.067 z"
             id="path179" />
          <path
             d="m 192.125,599.062 c 1.45,0 2.625,-1.175 2.625,-2.624 0,-1.45 -1.175,-2.626 -2.625,-2.626 -1.45,0 -2.625,1.176 -2.625,2.626 0,1.449 1.175,2.624 2.625,2.624 z m 0,-3.937 c 0.725,0 1.313,0.588 1.313,1.313 0,0.724 -0.588,1.312 -1.313,1.312 -0.725,0 -1.313,-0.588 -1.313,-1.312 0,-0.725 0.588,-1.313 1.313,-1.313 z"
             id="path181" />
          <path
             d="m 194.094,603.656 c 0,-0.362 -0.294,-0.656 -0.656,-0.656 v 0 c -0.363,0 -0.657,0.294 -0.657,0.656 v 3.012 l 2.016,5.52 h -5.343 l 2.015,-5.52 v -0.116 0 -2.896 c 0,-0.362 -0.294,-0.656 -0.657,-0.656 v 0 c -0.362,0 -0.656,0.294 -0.656,0.656 v 2.781 l -2.578,7.063 h 2.578 v 6.562 h 1.313 V 613.5 h 1.312 v 6.562 h 1.313 V 613.5 h 2.579 l -2.579,-7.065 z"
             id="path183" />
        </g>
      </g>
    </g>
    <text
       font-family="Calibri, Calibri_MSFontService, sans-serif"
       font-weight="400"
       font-size="27px"
       transform="translate(249.154,215)"
       id="text191">s</text>
    <text
       font-family="Calibri, Calibri_MSFontService, sans-serif"
       font-weight="400"
       font-size="27px"
       transform="translate(259.654,215)"
       id="text193">elect()</text>
    <text
       font-family="Calibri, Calibri_MSFontService, sans-serif"
       font-weight="400"
       font-size="27px"
       transform="translate(249.154,291)"
       id="text195">arrange()</text>
    <text
       font-family="Calibri, Calibri_MSFontService, sans-serif"
       font-weight="400"
       font-size="27px"
       transform="translate(249.154,369)"
       id="text197">filter()</text>
    <text
       font-family="Calibri, Calibri_MSFontService, sans-serif"
       font-weight="400"
       font-size="27px"
       transform="translate(249.154,525)"
       id="text199">mutate()</text>
    <text
       font-family="Calibri, Calibri_MSFontService, sans-serif"
       font-weight="400"
       font-size="27px"
       transform="translate(249.154,447)"
       id="text201">transmutate()</text>
    <g
       clip-path="url(#clip16)"
       id="g219">
      <g
         clip-path="url(#clip17)"
         id="g217">
        <g
           clip-path="url(#clip18)"
           id="g215">
          <path
             d="m 197.303,414.831 c -0.023,-0.885 -0.76,-1.583 -1.644,-1.56 -0.207,0.006 -0.411,0.051 -0.601,0.134 -0.537,-0.466 -1.318,-0.522 -1.916,-0.137 -0.61,-0.337 -1.367,-0.242 -1.875,0.234 -0.798,-0.382 -1.755,-0.044 -2.137,0.754 -0.092,0.193 -0.145,0.403 -0.155,0.618 l -0.051,1.167 c -0.17,-0.06 -0.349,-0.091 -0.529,-0.091 -0.553,0.003 -1.066,0.29 -1.358,0.76 -0.292,0.47 -0.319,1.058 -0.069,1.552 l 0.946,1.893 v 1.968 c 0.005,2.092 -1.31,3.96 -3.281,4.66 l -0.734,0.211 v -1.165 c -0.003,-3.013 -0.857,-5.963 -2.464,-8.511 l 4.718,-4.718 -0.74,-0.431 c -3.14,-1.787 -6.919,-2.056 -10.28,-0.733 l -0.132,0.052 c -1.892,-0.938 -3.962,-1.463 -6.072,-1.541 -2.513,-0.094 -5.011,0.424 -7.279,1.51 l -0.057,-0.023 c -3.362,-1.322 -7.141,-1.052 -10.28,0.735 l -0.74,0.428 4.622,4.625 c -1.555,2.47 -2.376,5.332 -2.367,8.251 v 1.032 l -0.581,0.061 -0.089,0.011 c -7.161,0.955 -12.515,7.056 -12.53,14.281 v 0.988 0.006 0.196 2.969 l 0.072,3.131 c 0.024,0.885 0.761,1.583 1.646,1.559 0.205,-0.005 0.407,-0.05 0.596,-0.132 0.537,0.466 1.317,0.522 1.915,0.137 0.61,0.337 1.368,0.242 1.876,-0.234 0.798,0.382 1.755,0.044 2.137,-0.754 0.092,-0.193 0.145,-0.403 0.155,-0.618 l 0.051,-1.168 c 0.708,0.249 1.494,-0.03 1.887,-0.67 0.291,-0.469 0.317,-1.056 0.069,-1.549 l -0.946,-1.892 v -1.969 c 0.009,-2.145 1.392,-4.042 3.432,-4.707 h 0.107 v 22.51 c -2.212,0.328 -3.85,2.226 -3.851,4.462 v 1.939 h 16.074 v -7.516 c 1.152,0.276 2.33,0.43 3.515,0.459 1.184,-0.029 2.363,-0.183 3.515,-0.459 v 7.516 h 16.074 v -1.939 c -0.001,-2.236 -1.639,-4.135 -3.851,-4.463 v -22.181 l 0.928,-0.103 c 7.068,-1.053 12.309,-7.106 12.342,-14.252 v -0.984 -0.006 -0.202 -2.97 z m -13.315,-1.925 -3.313,3.313 c -1.143,-1.528 -2.55,-2.839 -4.154,-3.872 2.474,-0.726 5.128,-0.527 7.467,0.559 z m -31.254,0 c 2.302,-1.069 4.911,-1.279 7.354,-0.59 -1.595,1.01 -2.996,2.299 -4.134,3.806 z m 43.328,8.025 c 0,0.007 0,0.012 -0.003,0.019 v 1.174 c -0.009,6.504 -4.783,12.018 -11.218,12.958 l -0.866,0.132 -0.531,0.056 c -0.362,0 -0.656,0.294 -0.656,0.656 v 24.002 h 0.656 c 1.764,0.002 3.193,1.431 3.195,3.195 v 0.627 H 173.19 v -7.914 l -0.836,0.238 c -1.302,0.359 -2.641,0.566 -3.991,0.617 -1.35,-0.051 -2.689,-0.258 -3.991,-0.617 l -0.837,-0.238 v 7.914 h -13.449 v -0.627 c 0.002,-1.764 1.432,-3.193 3.196,-3.195 h 0.656 v -24.62 c 0,-0.362 -0.294,-0.656 -0.656,-0.656 l -0.954,0.186 c -2.691,0.765 -4.55,3.222 -4.554,6.02 v 2.277 l 1.084,2.17 c 0.07,0.141 0.013,0.312 -0.128,0.383 -0.039,0.019 -0.082,0.029 -0.125,0.03 -0.037,-0.001 -0.075,-0.008 -0.109,-0.023 l -1.277,-0.525 c -0.034,-0.014 -0.071,-0.022 -0.108,-0.021 -0.152,-10e-4 -0.277,0.12 -0.284,0.272 l -0.113,2.625 c -0.005,0.154 -0.133,0.276 -0.288,0.273 -0.108,10e-4 -0.207,-0.062 -0.253,-0.161 l -0.436,-0.901 c -0.068,-0.141 -0.239,-0.2 -0.38,-0.132 -0.074,0.036 -0.129,0.102 -0.151,0.181 l -0.292,1.088 c -0.041,0.151 -0.198,0.241 -0.35,0.199 -0.097,-0.027 -0.172,-0.102 -0.199,-0.199 l -0.232,-0.843 c -0.042,-0.152 -0.199,-0.241 -0.35,-0.199 -0.09,0.025 -0.163,0.092 -0.194,0.18 l -0.328,0.935 c -0.052,0.148 -0.215,0.226 -0.363,0.173 -0.092,-0.032 -0.161,-0.109 -0.183,-0.204 l -0.227,-1 c -0.028,-0.131 -0.145,-0.224 -0.279,-0.222 -0.11,-0.002 -0.211,0.063 -0.256,0.164 l -0.401,0.857 c -0.044,0.101 -0.145,0.166 -0.255,0.165 -0.156,0.003 -0.285,-0.121 -0.288,-0.277 0,0 0,-10e-4 0,-0.002 l -0.071,-3.101 v -2.969 c 0,-0.006 0,-0.012 0,-0.018 v -1.175 c 0.008,-6.569 4.878,-12.118 11.39,-12.98 l 0.5,-0.049 v 0.493 c 0,0.362 0.294,0.656 0.656,0.656 0.363,0 0.657,-0.294 0.657,-0.656 v -2.85 c 0,-7.855 6.368,-14.222 14.223,-14.222 0.173,0 0.346,0.003 0.519,0.009 7.556,0.269 13.703,6.805 13.703,14.569 v 2.738 c 0,0.363 0.294,0.657 0.656,0.657 0.362,0 0.656,-0.294 0.656,-0.657 v -0.227 l 0.943,-0.241 c 2.607,-0.823 4.381,-3.239 4.385,-5.972 v -2.279 0 l -1.084,-2.17 c -0.07,-0.141 -0.013,-0.312 0.128,-0.383 0.039,-0.019 0.082,-0.029 0.125,-0.029 0.037,0 0.075,0.007 0.109,0.022 l 1.277,0.522 c 0.144,0.061 0.31,-0.007 0.371,-0.151 0.014,-0.032 0.021,-0.066 0.023,-0.101 l 0.113,-2.625 c 0.005,-0.154 0.133,-0.275 0.288,-0.272 0.108,-0.001 0.208,0.062 0.253,0.161 l 0.436,0.901 c 0.067,0.141 0.237,0.201 0.379,0.133 0.075,-0.036 0.13,-0.103 0.152,-0.183 l 0.292,-1.08 c 0.041,-0.151 0.198,-0.241 0.35,-0.199 0.097,0.027 0.172,0.102 0.199,0.199 l 0.232,0.844 c 0.042,0.151 0.199,0.24 0.35,0.198 0.091,-0.024 0.163,-0.092 0.194,-0.18 l 0.328,-0.935 c 0.052,-0.148 0.215,-0.226 0.363,-0.173 0.092,0.032 0.161,0.109 0.183,0.204 l 0.227,1.001 c 0.028,0.131 0.145,0.223 0.279,0.222 0.11,10e-4 0.211,-0.063 0.256,-0.164 l 0.401,-0.858 c 0.044,-0.101 0.145,-0.166 0.255,-0.165 0.156,-0.003 0.285,0.122 0.288,0.278 0,0 0,0.001 0,0.001 l 0.069,3.097 z"
             id="path203" />
          <path
             d="m 178.339,421.148 c -1.103,-2.596 -3.169,-4.662 -5.765,-5.764 -0.656,-0.277 -1.337,-0.489 -2.034,-0.632 -1.439,-0.293 -2.921,-0.293 -4.359,0 -1.386,0.285 -2.701,0.839 -3.872,1.632 -1.741,1.177 -3.104,2.831 -3.924,4.765 -0.565,1.332 -0.855,2.764 -0.854,4.211 v 10.437 l 3.137,3.237 2.606,-2.016 2.543,1.968 2.543,-1.968 2.543,1.968 2.542,-1.968 2.606,2.016 3.137,-3.237 v -10.438 c 0.001,-1.447 -0.289,-2.879 -0.853,-4.211 z m -0.46,14.117 -1.95,2.013 -2.48,-1.921 -2.543,1.969 -2.543,-1.969 -2.543,1.969 -2.543,-1.969 -2.48,1.921 -1.95,-2.009 v -9.91 c 0.001,-0.643 0.067,-1.285 0.197,-1.915 0.249,-1.216 0.735,-2.372 1.431,-3.4 1.033,-1.531 2.488,-2.73 4.188,-3.451 0.575,-0.244 1.173,-0.43 1.784,-0.556 1.264,-0.257 2.567,-0.257 3.831,0 1.217,0.251 2.372,0.738 3.401,1.434 1.531,1.033 2.729,2.488 3.451,4.188 0.244,0.575 0.431,1.173 0.558,1.785 0.128,0.63 0.193,1.272 0.193,1.915 z"
             id="path205" />
          <path
             d="m 167.975,422.669 c -0.061,-1.703 -1.49,-3.033 -3.193,-2.972 -1.617,0.057 -2.914,1.355 -2.972,2.972 0,0.882 0.4,2.362 3.085,2.362 2.684,0 3.08,-1.483 3.08,-2.362 z m -5.05,0 c -0.001,-1.088 0.879,-1.97 1.966,-1.972 1.088,-10e-4 1.97,0.879 1.972,1.967 0,0.048 -0.002,0.097 -0.006,0.146 -0.019,0.354 -0.164,0.909 -1.299,1.064 -0.022,0 -0.024,0 -0.004,-0.013 0.57,-0.29 0.796,-0.986 0.506,-1.556 -0.29,-0.569 -0.986,-0.796 -1.556,-0.506 -0.569,0.29 -0.796,0.987 -0.506,1.556 0.122,0.24 0.325,0.43 0.572,0.537 0.019,0.009 0.017,0.014 0,0.012 -1.64,-0.094 -1.643,-0.887 -1.643,-1.235 z"
             id="path207" />
          <path
             d="m 171.831,419.584 c -1.703,0 -3.084,1.381 -3.084,3.085 0,0.882 0.4,2.362 3.084,2.362 2.684,0 3.084,-1.48 3.084,-2.362 0,-1.704 -1.38,-3.085 -3.084,-3.085 z m 0.32,4.306 c 0.589,-0.253 0.861,-0.935 0.608,-1.523 -0.252,-0.588 -0.934,-0.861 -1.523,-0.608 -0.588,0.253 -0.86,0.935 -0.608,1.523 0.108,0.25 0.3,0.454 0.542,0.577 0.019,0.01 0.017,0.015 -0.004,0.013 -1.135,-0.155 -1.281,-0.71 -1.3,-1.064 -0.079,-1.085 0.736,-2.028 1.82,-2.107 1.085,-0.08 2.028,0.735 2.107,1.82 0.004,0.048 0.006,0.097 0.006,0.146 0,0.351 0,1.144 -1.641,1.235 -0.024,0.001 -0.026,-0.004 -0.007,-0.013 z"
             id="path209" />
          <path
             d="m 165.738,427.095 c 0,1.313 1.175,0.398 2.625,0.398 1.449,0 2.625,0.915 2.625,-0.398 0,-0.656 -1.176,-1.312 -2.625,-1.312 -1.45,0 -2.625,0.656 -2.625,1.312 z"
             id="path211" />
          <path
             d="m 168.363,429.484 c -3.625,0 -5.906,-0.656 -5.906,1.141 0,1.299 2.281,2.281 5.906,2.281 3.624,0 5.906,-0.984 5.906,-2.281 0,-1.799 -2.282,-1.141 -5.906,-1.141 z m -3.386,2.297 c -0.115,-0.752 -0.204,-1.808 0.091,-1.847 0.296,-0.039 1.745,2.053 1.745,2.053 z m 6.773,0 -1.838,0.21 c 0,0 1.45,-2.096 1.745,-2.057 0.294,0.039 0.207,1.094 0.093,1.845 z"
             id="path213" />
        </g>
      </g>
    </g>
    <text
       font-family="Calibri, Calibri_MSFontService, sans-serif"
       font-weight="400"
       font-size="27px"
       transform="translate(249.154,602)"
       id="text221">summarise()</text>
    <text
       font-family="Calibri, Calibri_MSFontService, sans-serif"
       font-weight="400"
       font-size="48px"
       transform="translate(785.063,255)"
       id="text223">DT[</text>
    <text
       fill="#00b0f0"
       font-family="Calibri, Calibri_MSFontService, sans-serif"
       font-weight="400"
       font-size="48px"
       transform="translate(852.023,255)"
       id="text225">i</text>
    <text
       font-family="Calibri, Calibri_MSFontService, sans-serif"
       font-weight="400"
       font-size="48px"
       transform="translate(863.023,255)"
       id="text227">,</text>
    <text
       fill="#0070c0"
       font-family="Calibri, Calibri_MSFontService, sans-serif"
       font-weight="400"
       font-size="48px"
       transform="translate(885.857,255)"
       id="text229">j</text>
    <text
       font-family="Calibri, Calibri_MSFontService, sans-serif"
       font-weight="400"
       font-size="48px"
       transform="translate(897.357,255)"
       id="text231">,</text>
    <text
       fill="#7030a0"
       font-family="Calibri, Calibri_MSFontService, sans-serif"
       font-weight="400"
       font-size="48px"
       transform="translate(920.19,255)"
       id="text233">by</text>
    <text
       font-family="Calibri, Calibri_MSFontService, sans-serif"
       font-weight="400"
       font-size="48px"
       transform="translate(966.79,255)"
       id="text235">]</text>
    <text
       font-family="Calibri, Calibri_MSFontService, sans-serif"
       font-weight="400"
       font-size="24px"
       transform="translate(637.608,360)"
       id="text237">Which rows are</text>
    <text
       font-family="Calibri, Calibri_MSFontService, sans-serif"
       font-weight="400"
       font-size="24px"
       transform="translate(637.608,389)"
       id="text239">we interested in?</text>
    <text
       font-family="Calibri, Calibri_MSFontService, sans-serif"
       font-weight="400"
       font-size="24px"
       transform="translate(832.275,387)"
       id="text241">Which columns are</text>
    <text
       font-family="Calibri, Calibri_MSFontService, sans-serif"
       font-weight="400"
       font-size="24px"
       transform="translate(832.275,416)"
       id="text243">we interested in?</text>
    <text
       font-family="Calibri, Calibri_MSFontService, sans-serif"
       font-weight="400"
       font-size="24px"
       transform="translate(832.275,445)"
       id="text245">Which operations</text>
    <text
       font-family="Calibri, Calibri_MSFontService, sans-serif"
       font-weight="400"
       font-size="24px"
       transform="translate(832.275,474)"
       id="text247">do we perform?</text>
    <text
       font-family="Calibri, Calibri_MSFontService, sans-serif"
       font-weight="400"
       font-size="24px"
       transform="translate(1042.88,360)"
       id="text249">Are there</text>
    <text
       font-family="Calibri, Calibri_MSFontService, sans-serif"
       font-weight="400"
       font-size="24px"
       transform="translate(1042.88,389)"
       id="text251">group bys?</text>
    <path
       d="M 0.949225,-1.16145 75.6527,59.8917 73.7542,62.2146 -0.949225,1.16145 Z M 73.9536,49.266 76.5177,62.5359 63.0029,62.665 c -0.8284,0.0079 -1.5064,-0.6572 -1.5143,-1.4856 -0.0079,-0.8284 0.6573,-1.5063 1.4856,-1.5143 l 11.7149,-0.1119 -1.4584,1.7845 -2.2226,-11.5026 c -0.1572,-0.8134 0.3748,-1.6001 1.1882,-1.7573 0.8133,-0.1572 1.6001,0.3748 1.7573,1.1882 z"
       fill="#00b0f0"
       transform="matrix(-1,0,0,1,857.015,272.5)"
       id="path253" />
    <path
       d="m 893.954,274.133 17.8,70.532 -2.908,0.735 -17.8,-70.533 z m 22.768,60.987 -5.849,12.184 -10.93,-7.95 c -0.67,-0.487 -0.818,-1.425 -0.33,-2.095 0.487,-0.67 1.425,-0.818 2.095,-0.331 l 9.474,6.891 -2.234,0.564 5.069,-10.562 c 0.359,-0.746 1.255,-1.061 2.002,-0.703 0.747,0.359 1.061,1.255 0.703,2.002 z"
       fill="#0070c0"
       id="path255" />
    <path
       d="m 952.371,273.279 83.849,59.809 -1.74,2.443 -83.851,-59.81 z m 81.459,49.318 3.42,13.073 -13.47,1.015 c -0.83,0.062 -1.55,-0.557 -1.61,-1.383 -0.06,-0.827 0.56,-1.547 1.38,-1.609 l 11.68,-0.879 -1.33,1.876 -2.98,-11.332 c -0.21,-0.801 0.27,-1.621 1.07,-1.832 0.81,-0.21 1.63,0.27 1.84,1.071 z"
       fill="#7030a0"
       id="path257" />
  </g>
</svg>
