<?xml version="1.0" encoding="UTF-8" standalone="no"?>
<svg
   width="900"
   height="500"
   overflow="hidden"
   version="1.1"
   id="svg190"
   sodipodi:docname="p-automating_rmd_reports-project_structure.svg.svg"
   inkscape:version="1.2 (dc2aedaf03, 2022-05-15)"
   xmlns:inkscape="http://www.inkscape.org/namespaces/inkscape"
   xmlns:sodipodi="http://sodipodi.sourceforge.net/DTD/sodipodi-0.dtd"
   xmlns="http://www.w3.org/2000/svg"
   xmlns:svg="http://www.w3.org/2000/svg">
  <sodipodi:namedview
     id="namedview192"
     pagecolor="#ffffff"
     bordercolor="#000000"
     borderopacity="0.25"
     inkscape:showpageshadow="2"
     inkscape:pageopacity="0.0"
     inkscape:pagecheckerboard="0"
     inkscape:deskcolor="#d1d1d1"
     showgrid="false"
     inkscape:zoom="1.3111111"
     inkscape:cx="576.99153"
     inkscape:cy="350.84746"
     inkscape:window-width="2880"
     inkscape:window-height="1514"
     inkscape:window-x="3829"
     inkscape:window-y="-11"
     inkscape:window-maximized="1"
     inkscape:current-layer="svg190" />
  <defs
     id="defs86">
    <clipPath
       id="clip0">
      <rect
         x="0"
         y="0"
         width="1280"
         height="720"
         id="rect2" />
    </clipPath>
    <clipPath
       id="clip1">
      <rect
         x="263"
         y="368"
         width="64"
         height="64"
         id="rect5" />
    </clipPath>
    <clipPath
       id="clip2">
      <rect
         x="263"
         y="368"
         width="64"
         height="64"
         id="rect8" />
    </clipPath>
    <clipPath
       id="clip3">
      <rect
         x="263"
         y="368"
         width="64"
         height="64"
         id="rect11" />
    </clipPath>
    <clipPath
       id="clip4">
      <rect
         x="263"
         y="429"
         width="64"
         height="64"
         id="rect14" />
    </clipPath>
    <clipPath
       id="clip5">
      <rect
         x="263"
         y="429"
         width="64"
         height="64"
         id="rect17" />
    </clipPath>
    <clipPath
       id="clip6">
      <rect
         x="263"
         y="429"
         width="64"
         height="64"
         id="rect20" />
    </clipPath>
    <clipPath
       id="clip7">
      <rect
         x="263"
         y="490"
         width="64"
         height="63"
         id="rect23" />
    </clipPath>
    <clipPath
       id="clip8">
      <rect
         x="263"
         y="490"
         width="64"
         height="63"
         id="rect26" />
    </clipPath>
    <clipPath
       id="clip9">
      <rect
         x="263"
         y="490"
         width="64"
         height="63"
         id="rect29" />
    </clipPath>
    <clipPath
       id="clip10">
      <rect
         x="517"
         y="442"
         width="64"
         height="64"
         id="rect32" />
    </clipPath>
    <clipPath
       id="clip11">
      <rect
         x="517"
         y="442"
         width="64"
         height="64"
         id="rect35" />
    </clipPath>
    <clipPath
       id="clip12">
      <rect
         x="517"
         y="442"
         width="64"
         height="64"
         id="rect38" />
    </clipPath>
    <clipPath
       id="clip13">
      <rect
         x="517"
         y="494"
         width="64"
         height="64"
         id="rect41" />
    </clipPath>
    <clipPath
       id="clip14">
      <rect
         x="517"
         y="494"
         width="64"
         height="64"
         id="rect44" />
    </clipPath>
    <clipPath
       id="clip15">
      <rect
         x="517"
         y="494"
         width="64"
         height="64"
         id="rect47" />
    </clipPath>
    <clipPath
       id="clip16">
      <rect
         x="511"
         y="133"
         width="64"
         height="64"
         id="rect50" />
    </clipPath>
    <clipPath
       id="clip17">
      <rect
         x="511"
         y="133"
         width="64"
         height="64"
         id="rect53" />
    </clipPath>
    <clipPath
       id="clip18">
      <rect
         x="511"
         y="133"
         width="64"
         height="64"
         id="rect56" />
    </clipPath>
    <clipPath
       id="clip19">
      <rect
         x="511"
         y="204"
         width="64"
         height="63"
         id="rect59" />
    </clipPath>
    <clipPath
       id="clip20">
      <rect
         x="511"
         y="204"
         width="64"
         height="63"
         id="rect62" />
    </clipPath>
    <clipPath
       id="clip21">
      <rect
         x="511"
         y="204"
         width="64"
         height="63"
         id="rect65" />
    </clipPath>
    <clipPath
       id="clip22">
      <rect
         x="512"
         y="274"
         width="64"
         height="64"
         id="rect68" />
    </clipPath>
    <clipPath
       id="clip23">
      <rect
         x="512"
         y="274"
         width="64"
         height="64"
         id="rect71" />
    </clipPath>
    <clipPath
       id="clip24">
      <rect
         x="512"
         y="274"
         width="64"
         height="64"
         id="rect74" />
    </clipPath>
    <clipPath
       id="clip25">
      <rect
         x="512"
         y="344"
         width="64"
         height="64"
         id="rect77" />
    </clipPath>
    <clipPath
       id="clip26">
      <rect
         x="512"
         y="344"
         width="64"
         height="64"
         id="rect80" />
    </clipPath>
    <clipPath
       id="clip27">
      <rect
         x="512"
         y="344"
         width="64"
         height="64"
         id="rect83" />
    </clipPath>
  </defs>
  <g
     clip-path="url(#clip0)"
     id="g188"
     transform="translate(-208.98305,-96.864407)">
    <rect
       x="0"
       y="0"
       width="1280"
       height="720"
       fill="#ffffff"
       id="rect88" />
    <g
       clip-path="url(#clip1)"
       id="g96">
      <g
         clip-path="url(#clip2)"
         id="g94">
        <g
           clip-path="url(#clip3)"
           id="g92">
          <path
             d="m 270.291,418.663 c 0.024,0.008 0.048,0.014 0.072,0.018 h 41.304 l 9.066,-19.472 c 0.648,-1.351 0.077,-2.971 -1.274,-3.619 -0.271,-0.129 -0.561,-0.213 -0.859,-0.248 h -2.933 v -6 c -0.005,-1.471 -1.196,-2.662 -2.667,-2.667 h -19.813 c -0.121,0 -0.24,-0.036 -0.34,-0.102 l -7.18,-4.769 c -0.439,-0.284 -0.945,-0.445 -1.467,-0.467 h -12.533 c -1.471,0.005 -2.663,1.196 -2.667,2.667 v 33.329 c 0.002,0.719 0.573,1.307 1.291,1.33 z m 48.238,-21.989 c 0.752,0.133 1.253,0.851 1.119,1.603 -0.02,0.116 -0.056,0.229 -0.105,0.336 l -0.008,0.016 -0.008,0.017 -8.706,18.697 -0.006,0.004 h -39.082 c -0.003,0 -0.006,-0.003 -0.006,-0.006 0,-0.001 0,-0.002 0,-0.003 l 8.226,-19.992 c 0.193,-0.405 0.599,-0.666 1.047,-0.672 z m -48.196,-12.67 c 0,-0.736 0.597,-1.333 1.334,-1.333 H 284.2 c 0.275,0.023 0.54,0.115 0.769,0.27 l 7.14,4.739 c 0.319,0.212 0.694,0.325 1.078,0.325 H 313 c 0.736,0 1.333,0.597 1.333,1.334 v 5.994 h -32.666 c -0.036,0 -0.067,0.006 -0.104,0.008 H 281 c -0.977,0.004 -1.862,0.577 -2.267,1.466 l -8.387,20.383 c -10e-4,0.004 -0.005,0.005 -0.008,0.004 -0.002,0 -0.004,-0.002 -0.005,-0.004 z"
             id="path90" />
        </g>
      </g>
    </g>
    <g
       clip-path="url(#clip4)"
       id="g104">
      <g
         clip-path="url(#clip5)"
         id="g102">
        <g
           clip-path="url(#clip6)"
           id="g100">
          <path
             d="m 270.291,479.663 c 0.024,0.008 0.048,0.014 0.072,0.018 h 41.304 l 9.066,-19.472 c 0.648,-1.351 0.077,-2.971 -1.274,-3.619 -0.271,-0.129 -0.561,-0.213 -0.859,-0.248 h -2.933 v -6 c -0.005,-1.471 -1.196,-2.662 -2.667,-2.667 h -19.813 c -0.121,0 -0.24,-0.036 -0.34,-0.102 l -7.18,-4.769 c -0.439,-0.284 -0.945,-0.445 -1.467,-0.467 h -12.533 c -1.471,0.005 -2.663,1.196 -2.667,2.667 v 33.329 c 0.002,0.719 0.573,1.307 1.291,1.33 z m 48.238,-21.989 c 0.752,0.133 1.253,0.851 1.119,1.603 -0.02,0.116 -0.056,0.229 -0.105,0.336 l -0.008,0.016 -0.008,0.017 -8.706,18.697 -0.006,0.004 h -39.082 c -0.003,0 -0.006,-0.003 -0.006,-0.006 0,-0.001 0,-0.002 0,-0.003 l 8.226,-19.992 c 0.193,-0.405 0.599,-0.666 1.047,-0.672 z m -48.196,-12.67 c 0,-0.736 0.597,-1.333 1.334,-1.333 H 284.2 c 0.275,0.023 0.54,0.115 0.769,0.27 l 7.14,4.739 c 0.319,0.212 0.694,0.325 1.078,0.325 H 313 c 0.736,0 1.333,0.597 1.333,1.334 v 5.994 h -32.666 c -0.036,0 -0.067,0.006 -0.104,0.008 H 281 c -0.977,0.004 -1.862,0.577 -2.267,1.466 l -8.387,20.383 c -10e-4,0.004 -0.005,0.005 -0.008,0.004 -0.002,0 -0.004,-0.002 -0.005,-0.004 z"
             id="path98" />
        </g>
      </g>
    </g>
    <g
       clip-path="url(#clip7)"
       id="g112">
      <g
         clip-path="url(#clip8)"
         id="g110">
        <g
           clip-path="url(#clip9)"
           id="g108">
          <path
             d="m 7.17741,49.8711 c 0.02303,0.008 0.04679,0.0139 0.07087,0.0177 H 47.9062 l 8.925,-19.1678 c 0.6373,-1.3299 0.0757,-2.9247 -1.2543,-3.5619 -0.2664,-0.1276 -0.5522,-0.2103 -0.8456,-0.2443 h -2.8875 v -5.9063 c -0.0044,-1.4479 -1.1771,-2.6206 -2.625,-2.625 H 29.715 c -0.119,-2e-4 -0.2355,-0.0353 -0.3347,-0.101 L 22.3125,13.5883 C 21.8808,13.3092 21.3823,13.1507 20.8687,13.1289 H 8.53125 c -1.44795,0.0044 -2.62068,1.1771 -2.625,2.625 v 32.8086 c 0.00177,0.7075 0.564,1.2863 1.27116,1.3086 z M 54.661,28.226 c 0.7401,0.1314 1.2336,0.8379 1.1022,1.578 -0.0203,0.114 -0.055,0.2251 -0.1034,0.3303 l -0.0085,0.0164 -0.0072,0.0165 -8.5706,18.4051 -0.0059,0.004 H 8.59688 c -0.00361,-1e-4 -0.0065,-0.003 -0.00644,-0.0067 0,-9e-4 2e-4,-0.0017 5.3e-4,-0.0025 L 16.6884,28.8875 c 0.1892,-0.399 0.5889,-0.6556 1.0304,-0.6615 z M 7.21875,15.7539 c 0,-0.7249 0.58761,-1.3125 1.3125,-1.3125 H 20.8687 c 0.2708,0.0225 0.5313,0.114 0.7567,0.2658 l 7.0284,4.6653 c 0.3146,0.2088 0.6837,0.3202 1.0612,0.3202 h 19.5038 c 0.7248,0 1.3124,0.5877 1.3124,1.3125 v 5.901 H 18.375 c -0.0348,0 -0.0656,0.006 -0.1024,0.0073 h -0.5538 c -0.9618,0.0047 -1.8329,0.5684 -2.2313,1.4437 L 7.23122,48.4214 C 7.2301,48.4249 7.22636,48.4267 7.22295,48.4256 7.22098,48.4249 7.21941,48.4234 7.21875,48.4214 Z"
             transform="matrix(1.01587,0,0,1,263,490)"
             id="path106" />
        </g>
      </g>
    </g>
    <text
       font-family="Calibri, Calibri_MSFontService, sans-serif"
       font-weight="400"
       font-size="24px"
       transform="translate(341.86,408)"
       id="text118">code<tspan
   font-size="24px"
   x="-0.00012207"
   y="60"
   id="tspan114">data</tspan><tspan
   font-size="24px"
   x="-0.00012207"
   y="122"
   id="tspan116">output</tspan></text>
    <path
       d="M 399.5,461.5 H 630.325"
       stroke="#000000"
       stroke-width="1.33333"
       stroke-miterlimit="8"
       fill="none"
       fill-rule="evenodd"
       id="path120" />
    <path
       d="m 504.5,459.118 c 0,-9.73 7.888,-17.618 17.618,-17.618 h 437.764 c 9.73,0 17.618,7.888 17.618,17.618 v 81.764 c 0,9.73 -7.888,17.618 -17.618,17.618 H 522.118 c -9.73,0 -17.618,-7.888 -17.618,-17.618 z"
       stroke="#000000"
       stroke-width="1.33333"
       stroke-miterlimit="8"
       fill="#ffffff"
       fill-rule="evenodd"
       id="path122" />
    <g
       clip-path="url(#clip10)"
       id="g130">
      <g
         clip-path="url(#clip11)"
         id="g128">
        <g
           clip-path="url(#clip12)"
           id="g126">
          <path
             d="m 524.291,492.663 c 0.024,0.008 0.048,0.014 0.072,0.018 h 41.304 l 9.066,-19.472 c 0.648,-1.351 0.077,-2.971 -1.274,-3.619 -0.271,-0.129 -0.561,-0.213 -0.859,-0.248 h -2.933 v -6 c -0.005,-1.471 -1.196,-2.662 -2.667,-2.667 h -19.813 c -0.121,0 -0.24,-0.036 -0.34,-0.102 l -7.18,-4.769 c -0.439,-0.284 -0.945,-0.445 -1.467,-0.467 h -12.533 c -1.471,0.005 -2.663,1.196 -2.667,2.667 v 33.329 c 0.002,0.719 0.573,1.307 1.291,1.33 z m 48.238,-21.989 c 0.752,0.133 1.253,0.851 1.119,1.603 -0.02,0.116 -0.056,0.229 -0.105,0.336 l -0.008,0.016 -0.008,0.017 -8.706,18.697 -0.006,0.004 h -39.082 c -0.003,0 -0.006,-0.003 -0.006,-0.006 0,-0.001 0,-0.002 0,-0.003 l 8.226,-19.992 c 0.193,-0.405 0.599,-0.666 1.047,-0.672 z m -48.196,-12.67 c 0,-0.736 0.597,-1.333 1.334,-1.333 H 538.2 c 0.275,0.023 0.54,0.115 0.769,0.27 l 7.14,4.739 c 0.319,0.212 0.694,0.325 1.078,0.325 H 567 c 0.736,0 1.333,0.597 1.333,1.334 v 5.994 h -32.666 c -0.036,0 -0.067,0.006 -0.104,0.008 H 535 c -0.977,0.004 -1.862,0.577 -2.267,1.466 l -8.387,20.383 c -10e-4,0.004 -0.005,0.005 -0.008,0.004 -0.002,0 -0.004,-0.002 -0.005,-0.004 z"
             id="path124" />
        </g>
      </g>
    </g>
    <g
       clip-path="url(#clip13)"
       id="g138">
      <g
         clip-path="url(#clip14)"
         id="g136">
        <g
           clip-path="url(#clip15)"
           id="g134">
          <path
             d="m 524.291,544.663 c 0.024,0.008 0.048,0.014 0.072,0.018 h 41.304 l 9.066,-19.472 c 0.648,-1.351 0.077,-2.971 -1.274,-3.619 -0.271,-0.129 -0.561,-0.213 -0.859,-0.248 h -2.933 v -6 c -0.005,-1.471 -1.196,-2.662 -2.667,-2.667 h -19.813 c -0.121,0 -0.24,-0.036 -0.34,-0.102 l -7.18,-4.769 c -0.439,-0.284 -0.945,-0.445 -1.467,-0.467 h -12.533 c -1.471,0.005 -2.663,1.196 -2.667,2.667 v 33.329 c 0.002,0.719 0.573,1.307 1.291,1.33 z m 48.238,-21.989 c 0.752,0.133 1.253,0.851 1.119,1.603 -0.02,0.116 -0.056,0.229 -0.105,0.336 l -0.008,0.016 -0.008,0.017 -8.706,18.697 -0.006,0.004 h -39.082 c -0.003,0 -0.006,-0.003 -0.006,-0.006 0,-10e-4 0,-0.002 0,-0.003 l 8.226,-19.992 c 0.193,-0.405 0.599,-0.666 1.047,-0.672 z m -48.196,-12.67 c 0,-0.736 0.597,-1.333 1.334,-1.333 H 538.2 c 0.275,0.023 0.54,0.115 0.769,0.27 l 7.14,4.739 c 0.319,0.212 0.694,0.325 1.078,0.325 H 567 c 0.736,0 1.333,0.597 1.333,1.334 v 5.994 h -32.666 c -0.036,0 -0.067,0.006 -0.104,0.008 H 535 c -0.977,0.004 -1.862,0.577 -2.267,1.466 l -8.387,20.383 c -10e-4,0.004 -0.005,0.005 -0.008,0.004 -0.002,0 -0.004,-0.002 -0.005,-0.004 z"
             id="path132" />
        </g>
      </g>
    </g>
    <text
       font-family="Calibri, Calibri_MSFontService, sans-serif"
       font-weight="400"
       font-size="24px"
       transform="translate(591.354,482)"
       id="text142">clean_data<tspan
   font-size="24px"
   x="0"
   y="51"
   id="tspan140">raw_data</tspan></text>
    <path
       d="M 399.5,400.5 H 518.053"
       stroke="#000000"
       stroke-width="1.33333"
       stroke-miterlimit="8"
       fill="none"
       fill-rule="evenodd"
       id="path144" />
    <path
       d="m 504.5,147.341 c 0,-13.719 11.122,-24.841 24.841,-24.841 h 423.318 c 13.719,0 24.841,11.122 24.841,24.841 v 248.318 c 0,13.719 -11.122,24.841 -24.841,24.841 H 529.341 c -13.719,0 -24.841,-11.122 -24.841,-24.841 z"
       stroke="#000000"
       stroke-width="1.33333"
       stroke-miterlimit="8"
       fill="#ffffff"
       fill-rule="evenodd"
       id="path146" />
    <g
       clip-path="url(#clip16)"
       id="g154">
      <g
         clip-path="url(#clip17)"
         id="g152">
        <g
           clip-path="url(#clip18)"
           id="g150">
          <path
             d="m 523,138.333 v 53.334 h 40 v -38.943 l -14.391,-14.391 z m 26.011,2.288 11.702,11.701 c 0.002,0.003 0.002,0.007 0,0.009 -0.002,0.002 -0.003,0.002 -0.005,0.002 H 549 v -11.708 c 0,-0.003 0.003,-0.006 0.007,-0.006 0.001,0 0.003,0 0.004,0.002 z m -24.678,49.712 v -50.666 h 23.334 v 14 h 14 v 36.666 z"
             id="path148" />
        </g>
      </g>
    </g>
    <g
       clip-path="url(#clip19)"
       id="g162">
      <g
         clip-path="url(#clip20)"
         id="g160">
        <g
           clip-path="url(#clip21)"
           id="g158">
          <path
             d="m 11.8125,5.25 v 52.5 h 39.375 V 19.4158 L 37.0217,5.25 Z M 37.4174,7.50159 48.9359,19.0201 c 0.0026,0.0026 0.0025,0.0068 -10e-5,0.0092 -0.0012,0.0012 -0.0028,0.0019 -0.0045,0.0019 H 37.4062 V 7.50619 c 1e-4,-0.00361 0.0031,-0.0065 0.0067,-0.0065 0.0017,7e-5 0.0033,7.2e-4 0.0045,0.0019 z M 13.125,56.4375 V 6.5625 H 36.0938 V 20.3438 H 49.875 v 36.0937 z"
             transform="matrix(1.01587,0,0,1,511,204)"
             id="path156" />
        </g>
      </g>
    </g>
    <g
       clip-path="url(#clip22)"
       id="g170">
      <g
         clip-path="url(#clip23)"
         id="g168">
        <g
           clip-path="url(#clip24)"
           id="g166">
          <path
             d="m 524,279.333 v 53.334 h 40 v -38.943 l -14.391,-14.391 z m 26.011,2.288 11.702,11.701 c 0.002,0.003 0.002,0.007 0,0.009 -0.002,0.002 -0.003,0.002 -0.005,0.002 H 550 v -11.708 c 0,-0.003 0.003,-0.006 0.007,-0.006 0.001,0 0.003,0 0.004,0.002 z m -24.678,49.712 v -50.666 h 23.334 v 14 h 14 v 36.666 z"
             id="path164" />
        </g>
      </g>
    </g>
    <g
       clip-path="url(#clip25)"
       id="g178">
      <g
         clip-path="url(#clip26)"
         id="g176">
        <g
           clip-path="url(#clip27)"
           id="g174">
          <path
             d="m 524,349.333 v 53.334 h 40 v -38.943 l -14.391,-14.391 z m 26.011,2.288 11.702,11.701 c 0.002,0.003 0.002,0.007 0,0.009 -0.002,0.002 -0.003,0.002 -0.005,0.002 H 550 v -11.708 c 0,-0.003 0.003,-0.006 0.007,-0.006 0.001,0 0.003,0 0.004,0.002 z m -24.678,49.712 v -50.666 h 23.334 v 14 h 14 v 36.666 z"
             id="path172" />
        </g>
      </g>
    </g>
    <text
       font-family="Calibri, Calibri_MSFontService, sans-serif"
       font-weight="400"
       font-size="24px"
       transform="translate(590.379,173)"
       id="text186">01_extract_data.R<tspan
   font-size="24px"
   x="0"
   y="70"
   id="tspan180">02_clean_data.R</tspan><tspan
   font-size="24px"
   x="-0.00012207"
   y="140"
   id="tspan182">03_automate_reports.R</tspan><tspan
   font-size="24px"
   x="-0.00012207"
   y="211"
   id="tspan184">labour_market_report_template.Rmd</tspan></text>
  </g>
</svg>
