<svg width="1280" height="720" xmlns="http://www.w3.org/2000/svg" xmlns:xlink="http://www.w3.org/1999/xlink" overflow="hidden"><defs><clipPath id="clip0"><rect x="0" y="0" width="1280" height="720"/></clipPath><clipPath id="clip1"><rect x="243" y="275" width="64" height="63"/></clipPath><clipPath id="clip2"><rect x="243" y="275" width="64" height="63"/></clipPath><clipPath id="clip3"><rect x="243" y="275" width="64" height="63"/></clipPath><clipPath id="clip4"><rect x="243" y="335" width="64" height="64"/></clipPath><clipPath id="clip5"><rect x="243" y="335" width="64" height="64"/></clipPath><clipPath id="clip6"><rect x="243" y="335" width="64" height="64"/></clipPath><clipPath id="clip7"><rect x="243" y="396" width="64" height="64"/></clipPath><clipPath id="clip8"><rect x="243" y="396" width="64" height="64"/></clipPath><clipPath id="clip9"><rect x="243" y="396" width="64" height="64"/></clipPath><clipPath id="clip10"><rect x="496" y="349" width="64" height="63"/></clipPath><clipPath id="clip11"><rect x="496" y="349" width="64" height="63"/></clipPath><clipPath id="clip12"><rect x="496" y="349" width="64" height="63"/></clipPath><clipPath id="clip13"><rect x="496" y="400" width="64" height="64"/></clipPath><clipPath id="clip14"><rect x="496" y="400" width="64" height="64"/></clipPath><clipPath id="clip15"><rect x="496" y="400" width="64" height="64"/></clipPath><clipPath id="clip16"><rect x="491" y="39" width="63" height="64"/></clipPath><clipPath id="clip17"><rect x="491" y="39" width="63" height="64"/></clipPath><clipPath id="clip18"><rect x="491" y="39" width="63" height="64"/></clipPath><clipPath id="clip19"><rect x="491" y="110" width="63" height="64"/></clipPath><clipPath id="clip20"><rect x="491" y="110" width="63" height="64"/></clipPath><clipPath id="clip21"><rect x="491" y="110" width="63" height="64"/></clipPath><clipPath id="clip22"><rect x="492" y="181" width="63" height="63"/></clipPath><clipPath id="clip23"><rect x="492" y="181" width="63" height="63"/></clipPath><clipPath id="clip24"><rect x="492" y="181" width="63" height="63"/></clipPath><clipPath id="clip25"><rect x="492" y="251" width="63" height="64"/></clipPath><clipPath id="clip26"><rect x="492" y="251" width="63" height="64"/></clipPath><clipPath id="clip27"><rect x="492" y="251" width="63" height="64"/></clipPath><clipPath id="clip28"><rect x="243" y="486" width="64" height="64"/></clipPath><clipPath id="clip29"><rect x="243" y="486" width="64" height="64"/></clipPath><clipPath id="clip30"><rect x="243" y="486" width="64" height="64"/></clipPath><clipPath id="clip31"><rect x="243" y="550" width="64" height="63"/></clipPath><clipPath id="clip32"><rect x="243" y="550" width="64" height="63"/></clipPath><clipPath id="clip33"><rect x="243" y="550" width="64" height="63"/></clipPath><clipPath id="clip34"><rect x="239" y="614" width="63" height="64"/></clipPath><clipPath id="clip35"><rect x="239" y="614" width="63" height="64"/></clipPath><clipPath id="clip36"><rect x="239" y="614" width="63" height="64"/></clipPath><clipPath id="clip37"><rect x="605" y="490" width="64" height="64"/></clipPath><clipPath id="clip38"><rect x="605" y="490" width="64" height="64"/></clipPath><clipPath id="clip39"><rect x="605" y="490" width="64" height="64"/></clipPath></defs><g clip-path="url(#clip0)"><rect x="0" y="0" width="1280" height="720" fill="#FFFFFF"/><g clip-path="url(#clip1)"><g clip-path="url(#clip2)"><g clip-path="url(#clip3)"><path d="M7.17741 49.8711C7.20044 49.8791 7.2242 49.885 7.24828 49.8888L47.9062 49.8888 56.8312 30.721C57.4685 29.3911 56.9069 27.7963 55.5769 27.1591 55.3105 27.0315 55.0247 26.9488 54.7313 26.9148L51.8438 26.9148 51.8438 21.0085C51.8394 19.5606 50.6667 18.3879 49.2188 18.3835L29.715 18.3835C29.596 18.3833 29.4795 18.3482 29.3803 18.2825L22.3125 13.5883C21.8808 13.3092 21.3823 13.1507 20.8687 13.1289L8.53125 13.1289C7.0833 13.1333 5.91057 14.306 5.90625 15.7539L5.90625 48.5625C5.90802 49.27 6.47025 49.8488 7.17741 49.8711ZM54.661 28.226C55.4011 28.3574 55.8946 29.0639 55.7632 29.804 55.7429 29.918 55.7082 30.0291 55.6598 30.1343L55.6513 30.1507 55.6441 30.1672 47.0735 48.5723 47.0676 48.5763 8.59688 48.5763C8.59327 48.5762 8.59038 48.5733 8.59044 48.5696 8.59044 48.5687 8.59064 48.5679 8.59097 48.5671L16.6884 28.8875C16.8776 28.4885 17.2773 28.2319 17.7188 28.226ZM7.21875 15.7539C7.21875 15.029 7.80636 14.4414 8.53125 14.4414L20.8687 14.4414C21.1395 14.4639 21.4 14.5554 21.6254 14.7072L28.6538 19.3725C28.9684 19.5813 29.3375 19.6927 29.715 19.6927L49.2188 19.6927C49.9436 19.6927 50.5312 20.2804 50.5312 21.0052L50.5312 26.9062 18.375 26.9062C18.3402 26.9062 18.3094 26.9122 18.2726 26.9135L17.7188 26.9135C16.757 26.9182 15.8859 27.4819 15.4875 28.3572L7.23122 48.4214C7.2301 48.4249 7.22636 48.4267 7.22295 48.4256 7.22098 48.4249 7.21941 48.4234 7.21875 48.4214Z" transform="matrix(1.01587 0 0 1 243 275)"/></g></g></g><g clip-path="url(#clip4)"><g clip-path="url(#clip5)"><g clip-path="url(#clip6)"><path d="M250.291 385.663C250.315 385.671 250.339 385.677 250.363 385.681L291.667 385.681 300.733 366.209C301.381 364.858 300.81 363.238 299.459 362.59 299.188 362.461 298.898 362.377 298.6 362.342L295.667 362.342 295.667 356.342C295.662 354.871 294.471 353.68 293 353.675L273.187 353.675C273.066 353.675 272.947 353.639 272.847 353.573L265.667 348.804C265.228 348.52 264.722 348.359 264.2 348.337L251.667 348.337C250.196 348.342 249.004 349.533 249 351.004L249 384.333C249.002 385.052 249.573 385.64 250.291 385.663ZM298.529 363.674C299.281 363.807 299.782 364.525 299.648 365.277 299.628 365.393 299.592 365.506 299.543 365.613L299.535 365.629 299.527 365.646 290.821 384.343 290.815 384.347 251.733 384.347C251.73 384.347 251.727 384.344 251.727 384.341 251.727 384.34 251.727 384.339 251.727 384.338L259.953 364.346C260.146 363.941 260.552 363.68 261 363.674ZM250.333 351.004C250.333 350.268 250.93 349.671 251.667 349.671L264.2 349.671C264.475 349.694 264.74 349.786 264.969 349.941L272.109 354.68C272.428 354.892 272.803 355.005 273.187 355.005L293 355.005C293.736 355.005 294.333 355.602 294.333 356.339L294.333 362.333 261.667 362.333C261.631 362.333 261.6 362.339 261.563 362.341L261 362.341C260.023 362.345 259.138 362.918 258.733 363.807L250.346 384.19C250.345 384.194 250.341 384.195 250.338 384.194 250.336 384.194 250.334 384.192 250.333 384.19Z"/></g></g></g><g clip-path="url(#clip7)"><g clip-path="url(#clip8)"><g clip-path="url(#clip9)"><path d="M250.291 446.663C250.315 446.671 250.339 446.677 250.363 446.681L291.667 446.681 300.733 427.209C301.381 425.858 300.81 424.238 299.459 423.59 299.188 423.461 298.898 423.377 298.6 423.342L295.667 423.342 295.667 417.342C295.662 415.871 294.471 414.68 293 414.675L273.187 414.675C273.066 414.675 272.947 414.639 272.847 414.573L265.667 409.804C265.228 409.52 264.722 409.359 264.2 409.337L251.667 409.337C250.196 409.342 249.004 410.533 249 412.004L249 445.333C249.002 446.052 249.573 446.64 250.291 446.663ZM298.529 424.674C299.281 424.807 299.782 425.525 299.648 426.277 299.628 426.393 299.592 426.506 299.543 426.613L299.535 426.629 299.527 426.646 290.821 445.343 290.815 445.347 251.733 445.347C251.73 445.347 251.727 445.344 251.727 445.341 251.727 445.34 251.727 445.339 251.727 445.338L259.953 425.346C260.146 424.941 260.552 424.68 261 424.674ZM250.333 412.004C250.333 411.268 250.93 410.671 251.667 410.671L264.2 410.671C264.475 410.694 264.74 410.786 264.969 410.941L272.109 415.68C272.428 415.892 272.803 416.005 273.187 416.005L293 416.005C293.736 416.005 294.333 416.602 294.333 417.339L294.333 423.333 261.667 423.333C261.631 423.333 261.6 423.339 261.563 423.341L261 423.341C260.023 423.345 259.138 423.918 258.733 424.807L250.346 445.19C250.345 445.194 250.341 445.195 250.338 445.194 250.336 445.194 250.334 445.192 250.333 445.19Z"/></g></g></g><text font-family="Calibri,Calibri_MSFontService,sans-serif" font-weight="400" font-size="24" transform="translate(321.288 314)">code<tspan font-size="24" x="-9.15527e-05" y="61">data</tspan><tspan font-size="24" x="-9.15527e-05" y="123">output</tspan></text><path d="M379.5 367.5 610.325 367.5" stroke="#000000" stroke-width="1.33333" stroke-miterlimit="8" fill="none" fill-rule="evenodd"/><path d="M483.5 365.967C483.5 356.32 491.32 348.5 500.967 348.5L940.033 348.5C949.68 348.5 957.5 356.32 957.5 365.967L957.5 447.033C957.5 456.68 949.68 464.5 940.033 464.5L500.967 464.5C491.32 464.5 483.5 456.68 483.5 447.033Z" stroke="#000000" stroke-width="1.33333" stroke-miterlimit="8" fill="#FFFFFF" fill-rule="evenodd"/><g clip-path="url(#clip10)"><g clip-path="url(#clip11)"><g clip-path="url(#clip12)"><path d="M7.17741 49.8711C7.20044 49.8791 7.2242 49.885 7.24828 49.8888L47.9062 49.8888 56.8312 30.721C57.4685 29.3911 56.9069 27.7963 55.5769 27.1591 55.3105 27.0315 55.0247 26.9488 54.7313 26.9148L51.8438 26.9148 51.8438 21.0085C51.8394 19.5606 50.6667 18.3879 49.2188 18.3835L29.715 18.3835C29.596 18.3833 29.4795 18.3482 29.3803 18.2825L22.3125 13.5883C21.8808 13.3092 21.3823 13.1507 20.8687 13.1289L8.53125 13.1289C7.0833 13.1333 5.91057 14.306 5.90625 15.7539L5.90625 48.5625C5.90802 49.27 6.47025 49.8488 7.17741 49.8711ZM54.661 28.226C55.4011 28.3574 55.8946 29.0639 55.7632 29.804 55.7429 29.918 55.7082 30.0291 55.6598 30.1343L55.6513 30.1507 55.6441 30.1672 47.0735 48.5723 47.0676 48.5763 8.59688 48.5763C8.59327 48.5762 8.59038 48.5733 8.59044 48.5696 8.59044 48.5687 8.59064 48.5679 8.59097 48.5671L16.6884 28.8875C16.8776 28.4885 17.2773 28.2319 17.7188 28.226ZM7.21875 15.7539C7.21875 15.029 7.80636 14.4414 8.53125 14.4414L20.8687 14.4414C21.1395 14.4639 21.4 14.5554 21.6254 14.7072L28.6538 19.3725C28.9684 19.5813 29.3375 19.6927 29.715 19.6927L49.2188 19.6927C49.9436 19.6927 50.5312 20.2804 50.5312 21.0052L50.5312 26.9062 18.375 26.9062C18.3402 26.9062 18.3094 26.9122 18.2726 26.9135L17.7188 26.9135C16.757 26.9182 15.8859 27.4819 15.4875 28.3572L7.23122 48.4214C7.2301 48.4249 7.22636 48.4267 7.22295 48.4256 7.22098 48.4249 7.21941 48.4234 7.21875 48.4214Z" transform="matrix(1.01587 0 0 1 496 349)"/></g></g></g><g clip-path="url(#clip13)"><g clip-path="url(#clip14)"><g clip-path="url(#clip15)"><path d="M503.291 450.663C503.315 450.671 503.339 450.677 503.363 450.681L544.667 450.681 553.733 431.209C554.381 429.858 553.81 428.238 552.459 427.59 552.188 427.461 551.898 427.377 551.6 427.342L548.667 427.342 548.667 421.342C548.662 419.871 547.471 418.68 546 418.675L526.187 418.675C526.066 418.675 525.947 418.639 525.847 418.573L518.667 413.804C518.228 413.52 517.722 413.359 517.2 413.337L504.667 413.337C503.196 413.342 502.004 414.533 502 416.004L502 449.333C502.002 450.052 502.573 450.64 503.291 450.663ZM551.529 428.674C552.281 428.807 552.782 429.525 552.648 430.277 552.628 430.393 552.592 430.506 552.543 430.613L552.535 430.629 552.527 430.646 543.821 449.343 543.815 449.347 504.733 449.347C504.73 449.347 504.727 449.344 504.727 449.341 504.727 449.34 504.727 449.339 504.727 449.338L512.953 429.346C513.146 428.941 513.552 428.68 514 428.674ZM503.333 416.004C503.333 415.268 503.93 414.671 504.667 414.671L517.2 414.671C517.475 414.694 517.74 414.786 517.969 414.941L525.109 419.68C525.428 419.892 525.803 420.005 526.187 420.005L546 420.005C546.736 420.005 547.333 420.602 547.333 421.339L547.333 427.333 514.667 427.333C514.631 427.333 514.6 427.339 514.563 427.341L514 427.341C513.023 427.345 512.138 427.918 511.733 428.807L503.346 449.19C503.345 449.194 503.341 449.195 503.338 449.194 503.336 449.194 503.334 449.192 503.333 449.19Z"/></g></g></g><text font-family="Calibri,Calibri_MSFontService,sans-serif" font-weight="400" font-size="24" transform="translate(570.782 388)">clean_data<tspan font-size="24" x="0" y="51">raw_data</tspan></text><path d="M379.5 307.5 498.053 307.5" stroke="#000000" stroke-width="1.33333" stroke-miterlimit="8" fill="none" fill-rule="evenodd"/><path d="M483.5 54.2581C483.5 40.5846 494.585 29.5001 508.258 29.5001L932.742 29.5001C946.416 29.5001 957.5 40.5846 957.5 54.2581L957.5 301.742C957.5 315.416 946.416 326.5 932.742 326.5L508.258 326.5C494.585 326.5 483.5 315.416 483.5 301.742Z" stroke="#000000" stroke-width="1.33333" stroke-miterlimit="8" fill="#FFFFFF" fill-rule="evenodd"/><g clip-path="url(#clip16)"><g clip-path="url(#clip17)"><g clip-path="url(#clip18)"><path d="M11.8125 5.25 11.8125 57.75 51.1875 57.75 51.1875 19.4158 37.0217 5.25ZM37.4174 7.50159 48.9359 19.0201C48.9385 19.0227 48.9384 19.0269 48.9358 19.0293 48.9346 19.0305 48.933 19.0312 48.9313 19.0312L37.4062 19.0312 37.4062 7.50619C37.4063 7.50258 37.4093 7.49969 37.4129 7.49969 37.4146 7.49976 37.4162 7.50041 37.4174 7.50159ZM13.125 56.4375 13.125 6.5625 36.0938 6.5625 36.0938 20.3438 49.875 20.3438 49.875 56.4375Z" transform="matrix(1 0 0 1.01587 491 39)"/></g></g></g><g clip-path="url(#clip19)"><g clip-path="url(#clip20)"><g clip-path="url(#clip21)"><path d="M11.8125 5.25 11.8125 57.75 51.1875 57.75 51.1875 19.4158 37.0217 5.25ZM37.4174 7.50159 48.9359 19.0201C48.9385 19.0227 48.9384 19.0269 48.9358 19.0293 48.9346 19.0305 48.933 19.0312 48.9313 19.0312L37.4062 19.0312 37.4062 7.50619C37.4063 7.50258 37.4093 7.49969 37.4129 7.49969 37.4146 7.49976 37.4162 7.50041 37.4174 7.50159ZM13.125 56.4375 13.125 6.5625 36.0938 6.5625 36.0938 20.3438 49.875 20.3438 49.875 56.4375Z" transform="matrix(1 0 0 1.01587 491 110)"/></g></g></g><g clip-path="url(#clip22)"><g clip-path="url(#clip23)"><g clip-path="url(#clip24)"><path d="M503.812 186.25 503.812 238.75 543.188 238.75 543.188 200.416 529.022 186.25ZM529.417 188.502 540.936 200.02C540.938 200.023 540.938 200.027 540.936 200.029 540.935 200.031 540.933 200.031 540.931 200.031L529.406 200.031 529.406 188.506C529.406 188.503 529.409 188.5 529.413 188.5 529.415 188.5 529.416 188.5 529.417 188.502ZM505.125 237.438 505.125 187.562 528.094 187.562 528.094 201.344 541.875 201.344 541.875 237.438Z"/></g></g></g><g clip-path="url(#clip25)"><g clip-path="url(#clip26)"><g clip-path="url(#clip27)"><path d="M11.8125 5.25 11.8125 57.75 51.1875 57.75 51.1875 19.4158 37.0217 5.25ZM37.4174 7.50159 48.9359 19.0201C48.9385 19.0227 48.9384 19.0269 48.9358 19.0293 48.9346 19.0305 48.933 19.0312 48.9313 19.0312L37.4062 19.0312 37.4062 7.50619C37.4063 7.50258 37.4093 7.49969 37.4129 7.49969 37.4146 7.49976 37.4162 7.50041 37.4174 7.50159ZM13.125 56.4375 13.125 6.5625 36.0938 6.5625 36.0938 20.3438 49.875 20.3438 49.875 56.4375Z" transform="matrix(1 0 0 1.01587 492 251)"/></g></g></g><text font-family="Calibri,Calibri_MSFontService,sans-serif" font-weight="400" font-size="24" transform="translate(569.808 79)">01_extract_data.R<tspan font-size="24" x="0" y="71">02_clean_data.R</tspan><tspan font-size="24" x="-0.00012207" y="141">03_automate_reports.R</tspan><tspan font-size="24" x="-0.00012207" y="211">labour_market_report_template.Rmd</tspan></text><g clip-path="url(#clip28)"><g clip-path="url(#clip29)"><g clip-path="url(#clip30)"><path d="M250.291 536.663C250.315 536.671 250.339 536.677 250.363 536.681L291.667 536.681 300.733 517.209C301.381 515.858 300.81 514.238 299.459 513.59 299.188 513.461 298.898 513.377 298.6 513.342L295.667 513.342 295.667 507.342C295.662 505.871 294.471 504.68 293 504.675L273.187 504.675C273.066 504.675 272.947 504.639 272.847 504.573L265.667 499.804C265.228 499.52 264.722 499.359 264.2 499.337L251.667 499.337C250.196 499.342 249.004 500.533 249 502.004L249 535.333C249.002 536.052 249.573 536.64 250.291 536.663ZM298.529 514.674C299.281 514.807 299.782 515.525 299.648 516.277 299.628 516.393 299.592 516.506 299.543 516.613L299.535 516.629 299.527 516.646 290.821 535.343 290.815 535.347 251.733 535.347C251.73 535.347 251.727 535.344 251.727 535.341 251.727 535.34 251.727 535.339 251.727 535.338L259.953 515.346C260.146 514.941 260.552 514.68 261 514.674ZM250.333 502.004C250.333 501.268 250.93 500.671 251.667 500.671L264.2 500.671C264.475 500.694 264.74 500.786 264.969 500.941L272.109 505.68C272.428 505.892 272.803 506.005 273.187 506.005L293 506.005C293.736 506.005 294.333 506.602 294.333 507.339L294.333 513.333 261.667 513.333C261.631 513.333 261.6 513.339 261.563 513.341L261 513.341C260.023 513.345 259.138 513.918 258.733 514.807L250.346 535.19C250.345 535.194 250.341 535.195 250.338 535.194 250.336 535.194 250.334 535.192 250.333 535.19Z" stroke="#5B9BD5" stroke-width="0.66669"/></g></g></g><g clip-path="url(#clip31)"><g clip-path="url(#clip32)"><g clip-path="url(#clip33)"><path d="M7.17741 49.8711C7.20044 49.8791 7.2242 49.885 7.24828 49.8888L47.9062 49.8888 56.8312 30.721C57.4685 29.3911 56.9069 27.7963 55.5769 27.1591 55.3105 27.0315 55.0247 26.9488 54.7313 26.9148L51.8438 26.9148 51.8438 21.0085C51.8394 19.5606 50.6667 18.3879 49.2188 18.3835L29.715 18.3835C29.596 18.3833 29.4795 18.3482 29.3803 18.2825L22.3125 13.5883C21.8808 13.3092 21.3823 13.1507 20.8687 13.1289L8.53125 13.1289C7.0833 13.1333 5.91057 14.306 5.90625 15.7539L5.90625 48.5625C5.90802 49.27 6.47025 49.8488 7.17741 49.8711ZM54.661 28.226C55.4011 28.3574 55.8946 29.0639 55.7632 29.804 55.7429 29.918 55.7082 30.0291 55.6598 30.1343L55.6513 30.1507 55.6441 30.1672 47.0735 48.5723 47.0676 48.5763 8.59688 48.5763C8.59327 48.5762 8.59038 48.5733 8.59044 48.5696 8.59044 48.5687 8.59064 48.5679 8.59097 48.5671L16.6884 28.8875C16.8776 28.4885 17.2773 28.2319 17.7188 28.226ZM7.21875 15.7539C7.21875 15.029 7.80636 14.4414 8.53125 14.4414L20.8687 14.4414C21.1395 14.4639 21.4 14.5554 21.6254 14.7072L28.6538 19.3725C28.9684 19.5813 29.3375 19.6927 29.715 19.6927L49.2188 19.6927C49.9436 19.6927 50.5312 20.2804 50.5312 21.0052L50.5312 26.9062 18.375 26.9062C18.3402 26.9062 18.3094 26.9122 18.2726 26.9135L17.7188 26.9135C16.757 26.9182 15.8859 27.4819 15.4875 28.3572L7.23122 48.4214C7.2301 48.4249 7.22636 48.4267 7.22295 48.4256 7.22098 48.4249 7.21941 48.4234 7.21875 48.4214Z" stroke="#5B9BD5" stroke-width="0.656273" transform="matrix(1.01587 0 0 1 243 550)"/></g></g></g><text font-family="Calibri,Calibri_MSFontService,sans-serif" font-weight="400" font-size="24" transform="translate(321.288 525)">.github/workflows<tspan font-size="24" x="0.635925" y="64">renv</tspan></text><g clip-path="url(#clip34)"><g clip-path="url(#clip35)"><g clip-path="url(#clip36)"><path d="M11.8125 5.25 11.8125 57.75 51.1875 57.75 51.1875 19.4158 37.0217 5.25ZM37.4174 7.50159 48.9359 19.0201C48.9385 19.0227 48.9384 19.0269 48.9358 19.0293 48.9346 19.0305 48.933 19.0312 48.9313 19.0312L37.4062 19.0312 37.4062 7.50619C37.4063 7.50258 37.4093 7.49969 37.4129 7.49969 37.4146 7.49976 37.4162 7.50041 37.4174 7.50159ZM13.125 56.4375 13.125 6.5625 36.0938 6.5625 36.0938 20.3438 49.875 20.3438 49.875 56.4375Z" stroke="#5B9BD5" stroke-width="0.656273" transform="matrix(1 0 0 1.01587 239 614)"/></g></g></g><text font-family="Calibri,Calibri_MSFontService,sans-serif" font-weight="400" font-size="24" transform="translate(321.288 653)">renv.lock</text><path d="M518.5 518.5 749.325 518.5" stroke="#5B9BD5" stroke-width="1.33333" stroke-miterlimit="8" fill="none" fill-rule="evenodd"/><path d="M599.5 497.794C599.5 491.556 604.556 486.5 610.794 486.5L946.206 486.5C952.444 486.5 957.5 491.556 957.5 497.794L957.5 550.206C957.5 556.444 952.444 561.5 946.206 561.5L610.794 561.5C604.556 561.5 599.5 556.444 599.5 550.206Z" stroke="#5B9BD5" stroke-width="1.33333" stroke-miterlimit="8" fill="#FFFFFF" fill-rule="evenodd"/><g clip-path="url(#clip37)"><g clip-path="url(#clip38)"><g clip-path="url(#clip39)"><path d="M617 495.333 617 548.667 657 548.667 657 509.724 642.609 495.333ZM643.011 497.621 654.713 509.322C654.715 509.325 654.715 509.329 654.713 509.331 654.711 509.333 654.71 509.333 654.708 509.333L643 509.333 643 497.625C643 497.622 643.003 497.619 643.007 497.619 643.008 497.619 643.01 497.619 643.011 497.621ZM618.333 547.333 618.333 496.667 641.667 496.667 641.667 510.667 655.667 510.667 655.667 547.333Z" stroke="#5B9BD5" stroke-width="0.66669"/></g></g></g><text font-family="Calibri,Calibri_MSFontService,sans-serif" font-weight="400" font-size="24" transform="translate(678.716 530)">main.yml</text></g></svg>