<?xml version="1.0" encoding="UTF-8" standalone="no"?>
<svg
   xmlns:dc="http://purl.org/dc/elements/1.1/"
   xmlns:cc="http://creativecommons.org/ns#"
   xmlns:rdf="http://www.w3.org/1999/02/22-rdf-syntax-ns#"
   xmlns:svg="http://www.w3.org/2000/svg"
   xmlns="http://www.w3.org/2000/svg"
   xmlns:sodipodi="http://sodipodi.sourceforge.net/DTD/sodipodi-0.dtd"
   xmlns:inkscape="http://www.inkscape.org/namespaces/inkscape"
   width="1160"
   height="350"
   overflow="hidden"
   version="1.1"
   id="svg297"
   sodipodi:docname="p-sql_to_r_workflows-relational_model.svg"
   inkscape:version="1.0.1 (3bc2e813f5, 2020-09-07)">
  <metadata
     id="metadata301">
    <rdf:RDF>
      <cc:Work
         rdf:about="">
        <dc:format>image/svg+xml</dc:format>
        <dc:type
           rdf:resource="http://purl.org/dc/dcmitype/StillImage" />
        <dc:title></dc:title>
      </cc:Work>
    </rdf:RDF>
  </metadata>
  <sodipodi:namedview
     pagecolor="#ffffff"
     bordercolor="#666666"
     borderopacity="1"
     objecttolerance="10"
     gridtolerance="10"
     guidetolerance="10"
     inkscape:pageopacity="0"
     inkscape:pageshadow="2"
     inkscape:window-width="1280"
     inkscape:window-height="650"
     id="namedview299"
     showgrid="false"
     fit-margin-top="20"
     fit-margin-left="20"
     fit-margin-right="20"
     fit-margin-bottom="20"
     inkscape:zoom="0.47336871"
     inkscape:cx="1065.2848"
     inkscape:cy="232.5391"
     inkscape:window-x="-6"
     inkscape:window-y="-6"
     inkscape:window-maximized="1"
     inkscape:current-layer="svg297"
     inkscape:document-rotation="0" />
  <defs
     id="defs89">
    <clipPath
       id="clip0">
      <rect
         x="0"
         y="0"
         width="1280"
         height="720"
         id="rect2" />
    </clipPath>
    <clipPath
       id="clip1">
      <rect
         x="148"
         y="141"
         width="145"
         height="203"
         id="rect5" />
    </clipPath>
    <clipPath
       id="clip2">
      <rect
         x="148"
         y="179"
         width="145"
         height="203"
         id="rect8" />
    </clipPath>
    <clipPath
       id="clip3">
      <rect
         x="148"
         y="218"
         width="145"
         height="202"
         id="rect11" />
    </clipPath>
    <clipPath
       id="clip4">
      <rect
         x="148"
         y="256"
         width="145"
         height="203"
         id="rect14" />
    </clipPath>
    <clipPath
       id="clip5">
      <rect
         x="148"
         y="295"
         width="145"
         height="202"
         id="rect17" />
    </clipPath>
    <clipPath
       id="clip6">
      <rect
         x="341"
         y="141"
         width="173"
         height="203"
         id="rect20" />
    </clipPath>
    <clipPath
       id="clip7">
      <rect
         x="341"
         y="179"
         width="173"
         height="203"
         id="rect23" />
    </clipPath>
    <clipPath
       id="clip8">
      <rect
         x="341"
         y="218"
         width="173"
         height="202"
         id="rect26" />
    </clipPath>
    <clipPath
       id="clip9">
      <rect
         x="341"
         y="256"
         width="173"
         height="203"
         id="rect29" />
    </clipPath>
    <clipPath
       id="clip10">
      <rect
         x="341"
         y="295"
         width="173"
         height="202"
         id="rect32" />
    </clipPath>
    <clipPath
       id="clip11">
      <rect
         x="341"
         y="333"
         width="173"
         height="203"
         id="rect35" />
    </clipPath>
    <clipPath
       id="clip12">
      <rect
         x="562"
         y="141"
         width="173"
         height="203"
         id="rect38" />
    </clipPath>
    <clipPath
       id="clip13">
      <rect
         x="562"
         y="179"
         width="173"
         height="203"
         id="rect41" />
    </clipPath>
    <clipPath
       id="clip14">
      <rect
         x="562"
         y="218"
         width="173"
         height="202"
         id="rect44" />
    </clipPath>
    <clipPath
       id="clip15">
      <rect
         x="562"
         y="256"
         width="173"
         height="203"
         id="rect47" />
    </clipPath>
    <clipPath
       id="clip16">
      <rect
         x="562"
         y="295"
         width="173"
         height="202"
         id="rect50" />
    </clipPath>
    <clipPath
       id="clip17">
      <rect
         x="562"
         y="333"
         width="173"
         height="203"
         id="rect53" />
    </clipPath>
    <clipPath
       id="clip18">
      <rect
         x="783"
         y="141"
         width="183"
         height="203"
         id="rect56" />
    </clipPath>
    <clipPath
       id="clip19">
      <rect
         x="783"
         y="179"
         width="183"
         height="203"
         id="rect59" />
    </clipPath>
    <clipPath
       id="clip20">
      <rect
         x="783"
         y="218"
         width="183"
         height="202"
         id="rect62" />
    </clipPath>
    <clipPath
       id="clip21">
      <rect
         x="783"
         y="256"
         width="183"
         height="203"
         id="rect65" />
    </clipPath>
    <clipPath
       id="clip22">
      <rect
         x="783"
         y="295"
         width="183"
         height="202"
         id="rect68" />
    </clipPath>
    <clipPath
       id="clip23">
      <rect
         x="1003"
         y="265"
         width="67"
         height="67"
         id="rect71" />
    </clipPath>
    <clipPath
       id="clip24">
      <rect
         x="1003"
         y="265"
         width="67"
         height="67"
         id="rect74" />
    </clipPath>
    <clipPath
       id="clip25">
      <rect
         x="1003"
         y="265"
         width="67"
         height="67"
         id="rect77" />
    </clipPath>
    <clipPath
       id="clip26">
      <rect
         x="1003"
         y="306"
         width="67"
         height="68"
         id="rect80" />
    </clipPath>
    <clipPath
       id="clip27">
      <rect
         x="1003"
         y="306"
         width="67"
         height="68"
         id="rect83" />
    </clipPath>
    <clipPath
       id="clip28">
      <rect
         x="1003"
         y="306"
         width="67"
         height="68"
         id="rect86" />
    </clipPath>
    <clipPath
       clipPathUnits="userSpaceOnUse"
       id="clipPath1138">
      <rect
         style="opacity:1;fill:#64ffff;fill-opacity:0.240964;stroke:none"
         id="rect1140"
         width="1101.8577"
         height="312.50696"
         x="114.07598"
         y="177.45152" />
    </clipPath>
  </defs>
  <g
     clip-path="url(#clip0)"
     id="g295"
     transform="translate(-92.9508,-171.11397)">
    <rect
       x="0"
       y="0"
       width="1280"
       height="720"
       fill="#ffffff"
       id="rect91"
       clip-path="url(#clipPath1138)" />
    <path
       d="M 148.042,223.092 H 292.94 v 38.4 H 148.042 Z"
       fill="#4472c4"
       fill-rule="evenodd"
       id="path93" />
    <path
       d="M 148.042,261.492 H 292.94 v 38.4 H 148.042 Z"
       fill="#dae3f3"
       fill-rule="evenodd"
       id="path95" />
    <path
       d="M 147.375,261.492 H 293.607"
       stroke="#4472c4"
       stroke-width="1.33333"
       stroke-linejoin="round"
       stroke-miterlimit="10"
       fill="none"
       fill-rule="evenodd"
       id="path97" />
    <path
       d="M 147.375,299.892 H 293.607"
       stroke="#4472c4"
       stroke-width="1.33333"
       stroke-linejoin="round"
       stroke-miterlimit="10"
       fill="none"
       fill-rule="evenodd"
       id="path99" />
    <path
       d="M 147.375,338.292 H 293.607"
       stroke="#4472c4"
       stroke-width="1.33333"
       stroke-linejoin="round"
       stroke-miterlimit="10"
       fill="none"
       fill-rule="evenodd"
       id="path101" />
    <path
       d="M 147.375,376.692 H 293.607"
       stroke="#4472c4"
       stroke-width="1.33333"
       stroke-linejoin="round"
       stroke-miterlimit="10"
       fill="none"
       fill-rule="evenodd"
       id="path103" />
    <path
       d="M 148.042,222.426 V 415.759"
       stroke="#4472c4"
       stroke-width="1.33333"
       stroke-linejoin="round"
       stroke-miterlimit="10"
       fill="none"
       fill-rule="evenodd"
       id="path105" />
    <path
       d="M 292.94,222.426 V 415.759"
       stroke="#4472c4"
       stroke-width="1.33333"
       stroke-linejoin="round"
       stroke-miterlimit="10"
       fill="none"
       fill-rule="evenodd"
       id="path107" />
    <path
       d="M 147.375,223.092 H 293.607"
       stroke="#4472c4"
       stroke-width="1.33333"
       stroke-linejoin="round"
       stroke-miterlimit="10"
       fill="none"
       fill-rule="evenodd"
       id="path109" />
    <path
       d="M 147.375,415.092 H 293.607"
       stroke="#4472c4"
       stroke-width="1.33333"
       stroke-linejoin="round"
       stroke-miterlimit="10"
       fill="none"
       fill-rule="evenodd"
       id="path111" />
    <g
       clip-path="url(#clip1)"
       id="g115">
      <text
         fill="#ffffff"
         font-family="Calibri, Calibri_MSFontService, sans-serif"
         font-weight="700"
         font-size="24px"
         transform="translate(157.642,250)"
         id="text113">student</text>
    </g>
    <g
       clip-path="url(#clip2)"
       id="g119">
      <text
         font-family="Calibri, Calibri_MSFontService, sans-serif"
         font-weight="400"
         font-size="24px"
         transform="translate(157.642,288)"
         id="text117">student_id</text>
    </g>
    <g
       clip-path="url(#clip3)"
       id="g123">
      <text
         font-family="Calibri, Calibri_MSFontService, sans-serif"
         font-weight="400"
         font-size="24px"
         transform="translate(157.642,327)"
         id="text121">first_name</text>
    </g>
    <g
       clip-path="url(#clip4)"
       id="g127">
      <text
         font-family="Calibri, Calibri_MSFontService, sans-serif"
         font-weight="400"
         font-size="24px"
         transform="translate(157.642,365)"
         id="text125">last_name</text>
    </g>
    <g
       clip-path="url(#clip5)"
       id="g131">
      <text
         font-family="Calibri, Calibri_MSFontService, sans-serif"
         font-weight="400"
         font-size="24px"
         transform="translate(157.642,403)"
         id="text129">dob</text>
    </g>
    <path
       d="m 341.221,223.092 h 172.688 v 38.4 H 341.221 Z"
       fill="#4472c4"
       fill-rule="evenodd"
       id="path133" />
    <path
       d="m 341.221,261.492 h 172.688 v 38.4 H 341.221 Z"
       fill="#dae3f3"
       fill-rule="evenodd"
       id="path135" />
    <path
       d="m 341.221,299.892 h 172.688 v 38.4 H 341.221 Z"
       fill="#fbe5d6"
       fill-rule="evenodd"
       id="path137" />
    <path
       d="m 341.221,338.292 h 172.688 v 38.4 H 341.221 Z"
       fill="#fbe5d6"
       fill-rule="evenodd"
       id="path139" />
    <path
       d="M 340.554,261.492 H 514.576"
       stroke="#4472c4"
       stroke-width="1.33333"
       stroke-linejoin="round"
       stroke-miterlimit="10"
       fill="none"
       fill-rule="evenodd"
       id="path141" />
    <path
       d="M 340.554,299.892 H 514.576"
       stroke="#4472c4"
       stroke-width="1.33333"
       stroke-linejoin="round"
       stroke-miterlimit="10"
       fill="none"
       fill-rule="evenodd"
       id="path143" />
    <path
       d="M 340.554,338.292 H 514.576"
       stroke="#4472c4"
       stroke-width="1.33333"
       stroke-linejoin="round"
       stroke-miterlimit="10"
       fill="none"
       fill-rule="evenodd"
       id="path145" />
    <path
       d="M 340.554,376.692 H 514.576"
       stroke="#4472c4"
       stroke-width="1.33333"
       stroke-linejoin="round"
       stroke-miterlimit="10"
       fill="none"
       fill-rule="evenodd"
       id="path147" />
    <path
       d="M 340.554,415.092 H 514.576"
       stroke="#4472c4"
       stroke-width="1.33333"
       stroke-linejoin="round"
       stroke-miterlimit="10"
       fill="none"
       fill-rule="evenodd"
       id="path149" />
    <path
       d="M 341.221,222.426 V 454.159"
       stroke="#4472c4"
       stroke-width="1.33333"
       stroke-linejoin="round"
       stroke-miterlimit="10"
       fill="none"
       fill-rule="evenodd"
       id="path151" />
    <path
       d="M 513.909,222.426 V 454.159"
       stroke="#4472c4"
       stroke-width="1.33333"
       stroke-linejoin="round"
       stroke-miterlimit="10"
       fill="none"
       fill-rule="evenodd"
       id="path153" />
    <path
       d="M 340.554,223.092 H 514.576"
       stroke="#4472c4"
       stroke-width="1.33333"
       stroke-linejoin="round"
       stroke-miterlimit="10"
       fill="none"
       fill-rule="evenodd"
       id="path155" />
    <path
       d="M 340.554,453.492 H 514.576"
       stroke="#4472c4"
       stroke-width="1.33333"
       stroke-linejoin="round"
       stroke-miterlimit="10"
       fill="none"
       fill-rule="evenodd"
       id="path157" />
    <g
       clip-path="url(#clip6)"
       id="g161">
      <text
         fill="#ffffff"
         font-family="Calibri, Calibri_MSFontService, sans-serif"
         font-weight="700"
         font-size="24px"
         transform="translate(350.821,250)"
         id="text159">enrolment</text>
    </g>
    <g
       clip-path="url(#clip7)"
       id="g165">
      <text
         font-family="Calibri, Calibri_MSFontService, sans-serif"
         font-weight="400"
         font-size="24px"
         transform="translate(350.821,288)"
         id="text163">enrolment_id</text>
    </g>
    <g
       clip-path="url(#clip8)"
       id="g169">
      <text
         font-family="Calibri, Calibri_MSFontService, sans-serif"
         font-weight="400"
         font-size="24px"
         transform="translate(350.821,327)"
         id="text167">student_id</text>
    </g>
    <g
       clip-path="url(#clip9)"
       id="g173">
      <text
         font-family="Calibri, Calibri_MSFontService, sans-serif"
         font-weight="400"
         font-size="24px"
         transform="translate(350.821,365)"
         id="text171">course_id</text>
    </g>
    <g
       clip-path="url(#clip10)"
       id="g177">
      <text
         font-family="Calibri, Calibri_MSFontService, sans-serif"
         font-weight="400"
         font-size="24px"
         transform="translate(350.821,403)"
         id="text175">start_date</text>
    </g>
    <g
       clip-path="url(#clip11)"
       id="g181">
      <text
         font-family="Calibri, Calibri_MSFontService, sans-serif"
         font-weight="400"
         font-size="24px"
         transform="translate(350.821,442)"
         id="text179">end_date</text>
    </g>
    <path
       d="m 562.19,223.092 h 172.687 v 38.4 H 562.19 Z"
       fill="#4472c4"
       fill-rule="evenodd"
       id="path183" />
    <path
       d="m 562.19,261.492 h 172.687 v 38.4 H 562.19 Z"
       fill="#dae3f3"
       fill-rule="evenodd"
       id="path185" />
    <path
       d="m 562.19,415.092 h 172.687 v 38.4 H 562.19 Z"
       fill="#fbe5d6"
       fill-rule="evenodd"
       id="path187" />
    <path
       d="M 561.523,261.492 H 735.544"
       stroke="#4472c4"
       stroke-width="1.33333"
       stroke-linejoin="round"
       stroke-miterlimit="10"
       fill="none"
       fill-rule="evenodd"
       id="path189" />
    <path
       d="M 561.523,299.892 H 735.544"
       stroke="#4472c4"
       stroke-width="1.33333"
       stroke-linejoin="round"
       stroke-miterlimit="10"
       fill="none"
       fill-rule="evenodd"
       id="path191" />
    <path
       d="M 561.523,338.292 H 735.544"
       stroke="#4472c4"
       stroke-width="1.33333"
       stroke-linejoin="round"
       stroke-miterlimit="10"
       fill="none"
       fill-rule="evenodd"
       id="path193" />
    <path
       d="M 561.523,376.692 H 735.544"
       stroke="#4472c4"
       stroke-width="1.33333"
       stroke-linejoin="round"
       stroke-miterlimit="10"
       fill="none"
       fill-rule="evenodd"
       id="path195" />
    <path
       d="M 561.523,415.092 H 735.544"
       stroke="#4472c4"
       stroke-width="1.33333"
       stroke-linejoin="round"
       stroke-miterlimit="10"
       fill="none"
       fill-rule="evenodd"
       id="path197" />
    <path
       d="M 562.19,222.426 V 454.159"
       stroke="#4472c4"
       stroke-width="1.33333"
       stroke-linejoin="round"
       stroke-miterlimit="10"
       fill="none"
       fill-rule="evenodd"
       id="path199" />
    <path
       d="M 734.877,222.426 V 454.159"
       stroke="#4472c4"
       stroke-width="1.33333"
       stroke-linejoin="round"
       stroke-miterlimit="10"
       fill="none"
       fill-rule="evenodd"
       id="path201" />
    <path
       d="M 561.523,223.092 H 735.544"
       stroke="#4472c4"
       stroke-width="1.33333"
       stroke-linejoin="round"
       stroke-miterlimit="10"
       fill="none"
       fill-rule="evenodd"
       id="path203" />
    <path
       d="M 561.523,453.492 H 735.544"
       stroke="#4472c4"
       stroke-width="1.33333"
       stroke-linejoin="round"
       stroke-miterlimit="10"
       fill="none"
       fill-rule="evenodd"
       id="path205" />
    <g
       clip-path="url(#clip12)"
       id="g209">
      <text
         fill="#ffffff"
         font-family="Calibri, Calibri_MSFontService, sans-serif"
         font-weight="700"
         font-size="24px"
         transform="translate(571.79,250)"
         id="text207">course</text>
    </g>
    <g
       clip-path="url(#clip13)"
       id="g213">
      <text
         font-family="Calibri, Calibri_MSFontService, sans-serif"
         font-weight="400"
         font-size="24px"
         transform="translate(571.79,288)"
         id="text211">course_id</text>
    </g>
    <g
       clip-path="url(#clip14)"
       id="g217">
      <text
         font-family="Calibri, Calibri_MSFontService, sans-serif"
         font-weight="400"
         font-size="24px"
         transform="translate(571.79,327)"
         id="text215">course_name</text>
    </g>
    <g
       clip-path="url(#clip15)"
       id="g221">
      <text
         font-family="Calibri, Calibri_MSFontService, sans-serif"
         font-weight="400"
         font-size="24px"
         transform="translate(571.79,365)"
         id="text219">course_length</text>
    </g>
    <g
       clip-path="url(#clip16)"
       id="g225">
      <text
         font-family="Calibri, Calibri_MSFontService, sans-serif"
         font-weight="400"
         font-size="24px"
         transform="translate(571.79,403)"
         id="text223">course_desc</text>
    </g>
    <g
       clip-path="url(#clip17)"
       id="g229">
      <text
         font-family="Calibri, Calibri_MSFontService, sans-serif"
         font-weight="400"
         font-size="24px"
         transform="translate(571.79,442)"
         id="text227">platform_id</text>
    </g>
    <path
       d="m 783.158,223.092 h 182.568 v 38.4 H 783.158 Z"
       fill="#4472c4"
       fill-rule="evenodd"
       id="path231" />
    <path
       d="m 783.158,261.492 h 182.568 v 38.4 H 783.158 Z"
       fill="#dae3f3"
       fill-rule="evenodd"
       id="path233" />
    <path
       d="M 782.491,261.492 H 966.393"
       stroke="#4472c4"
       stroke-width="1.33333"
       stroke-linejoin="round"
       stroke-miterlimit="10"
       fill="none"
       fill-rule="evenodd"
       id="path235" />
    <path
       d="M 782.491,299.892 H 966.393"
       stroke="#4472c4"
       stroke-width="1.33333"
       stroke-linejoin="round"
       stroke-miterlimit="10"
       fill="none"
       fill-rule="evenodd"
       id="path237" />
    <path
       d="M 782.491,338.292 H 966.393"
       stroke="#4472c4"
       stroke-width="1.33333"
       stroke-linejoin="round"
       stroke-miterlimit="10"
       fill="none"
       fill-rule="evenodd"
       id="path239" />
    <path
       d="M 782.491,376.692 H 966.393"
       stroke="#4472c4"
       stroke-width="1.33333"
       stroke-linejoin="round"
       stroke-miterlimit="10"
       fill="none"
       fill-rule="evenodd"
       id="path241" />
    <path
       d="M 783.158,222.426 V 415.759"
       stroke="#4472c4"
       stroke-width="1.33333"
       stroke-linejoin="round"
       stroke-miterlimit="10"
       fill="none"
       fill-rule="evenodd"
       id="path243" />
    <path
       d="M 965.726,222.426 V 415.759"
       stroke="#4472c4"
       stroke-width="1.33333"
       stroke-linejoin="round"
       stroke-miterlimit="10"
       fill="none"
       fill-rule="evenodd"
       id="path245" />
    <path
       d="M 782.491,223.092 H 966.393"
       stroke="#4472c4"
       stroke-width="1.33333"
       stroke-linejoin="round"
       stroke-miterlimit="10"
       fill="none"
       fill-rule="evenodd"
       id="path247" />
    <path
       d="M 782.491,415.092 H 966.393"
       stroke="#4472c4"
       stroke-width="1.33333"
       stroke-linejoin="round"
       stroke-miterlimit="10"
       fill="none"
       fill-rule="evenodd"
       id="path249" />
    <g
       clip-path="url(#clip18)"
       id="g253">
      <text
         fill="#ffffff"
         font-family="Calibri, Calibri_MSFontService, sans-serif"
         font-weight="700"
         font-size="24px"
         transform="translate(792.758,250)"
         id="text251">platform</text>
    </g>
    <g
       clip-path="url(#clip19)"
       id="g257">
      <text
         font-family="Calibri, Calibri_MSFontService, sans-serif"
         font-weight="400"
         font-size="24px"
         transform="translate(792.758,288)"
         id="text255">platform_id</text>
    </g>
    <g
       clip-path="url(#clip20)"
       id="g261">
      <text
         font-family="Calibri, Calibri_MSFontService, sans-serif"
         font-weight="400"
         font-size="24px"
         transform="translate(792.758,327)"
         id="text259">platform_name</text>
    </g>
    <g
       clip-path="url(#clip21)"
       id="g265">
      <text
         font-family="Calibri, Calibri_MSFontService, sans-serif"
         font-weight="400"
         font-size="24px"
         transform="translate(792.758,365)"
         id="text263">company_name</text>
    </g>
    <g
       clip-path="url(#clip22)"
       id="g269">
      <text
         font-family="Calibri, Calibri_MSFontService, sans-serif"
         font-weight="400"
         font-size="24px"
         transform="translate(792.758,403)"
         id="text267">is_active</text>
    </g>
    <g
       clip-path="url(#clip23)"
       id="g279">
      <g
         clip-path="url(#clip24)"
         id="g277">
        <g
           clip-path="url(#clip25)"
           id="g275">
          <path
             d="m 1033.36,291.529 c -3.86,-7.121 -12.75,-9.768 -19.87,-5.914 -7.12,3.855 -9.77,12.751 -5.92,19.872 3.86,7.12 12.76,9.768 19.88,5.913 2.5,-1.355 4.55,-3.41 5.91,-5.913 h 4.54 l 2.79,-2.792 2.79,2.792 4.54,-4.537 4.53,4.537 4.54,-4.537 4.53,4.537 5.59,-6.979 -5.59,-6.979 z m 28.15,11.871 -3.43,-3.434 -0.99,-0.987 -0.99,0.987 -3.55,3.551 -3.54,-3.551 -0.99,-0.987 -0.99,0.987 -3.55,3.551 -1.8,-1.807 -0.99,-0.986 -0.99,0.986 -2.38,2.384 h -4.79 l -0.39,0.728 c -3.49,6.443 -11.54,8.839 -17.98,5.353 -6.45,-3.487 -8.84,-11.536 -5.36,-17.979 3.49,-6.443 11.54,-8.84 17.98,-5.353 2.27,1.226 4.13,3.086 5.36,5.353 l 0.39,0.728 h 28.43 l 2.22,2.784 h -28.08 v 1.396 h 29.2 l 1.12,1.405 z"
             stroke="#4472c4"
             stroke-width="0.697917"
             id="path271" />
          <path
             d="m 1014.17,294.321 c -2.32,0 -4.19,1.875 -4.19,4.187 0,2.313 1.87,4.188 4.19,4.188 2.31,0 4.18,-1.875 4.18,-4.188 0,-2.309 -1.87,-4.18 -4.18,-4.187 z m 0,6.979 c -1.55,0 -2.79,-1.25 -2.79,-2.792 0,-1.541 1.24,-2.791 2.79,-2.791 1.54,0 2.79,1.25 2.79,2.791 0,1.542 -1.25,2.792 -2.79,2.794 z"
             stroke="#4472c4"
             stroke-width="0.697917"
             id="path273" />
        </g>
      </g>
    </g>
    <text
       font-family="Calibri, Calibri_MSFontService, sans-serif"
       font-weight="400"
       font-size="24px"
       transform="translate(1085,306)"
       id="text281">Primary key</text>
    <g
       clip-path="url(#clip26)"
       id="g291">
      <g
         clip-path="url(#clip27)"
         id="g289">
        <g
           clip-path="url(#clip28)"
           id="g287">
          <path
             d="M 30.3594,26.5285 C 26.5049,19.4081 17.608,16.7605 10.4876,20.6151 3.36719,24.4695 0.71965,33.3664 4.57413,40.4868 c 3.85447,7.1205 12.75137,9.768 19.87177,5.9135 2.5035,-1.3552 4.5583,-3.41 5.9135,-5.9135 h 4.5364 l 2.7917,-2.7916 2.7917,2.7916 4.5364,-4.5364 4.5365,4.5364 4.5364,-4.5364 4.5365,4.5364 5.5833,-6.9791 -5.5833,-6.9792 z m 28.1511,11.8716 -3.4323,-3.4345 -0.9897,-0.9868 -0.9847,0.9868 -3.5517,3.551 -3.5468,-3.551 -0.9897,-0.9868 -0.9847,0.9868 -3.5517,3.551 -1.8028,-1.8062 -0.9889,-0.9861 -0.9855,0.9861 -2.3826,2.3834 h -4.7871 l -0.3971,0.7279 c -3.4866,6.443 -11.536,8.8396 -17.979,5.353 -6.44294,-3.4865 -8.83956,-11.536 -5.35298,-17.979 3.48654,-6.4429 11.53608,-8.8396 17.97898,-5.353 2.2665,1.2265 4.1266,3.0866 5.353,5.353 l 0.3971,0.7279 h 28.4248 l 2.2264,2.7847 H 32.1042 v 1.3959 h 29.1959 l 1.1237,1.4049 z"
             stroke="#ed7d31"
             stroke-width="0.697953"
             transform="matrix(1,0,0,1.01493,1003,306)"
             id="path283" />
          <path
             d="m 11.1667,29.3209 c -2.31272,0 -4.18753,1.8748 -4.18753,4.1875 0,2.3127 1.87481,4.1875 4.18753,4.1875 2.3127,0 4.1875,-1.8748 4.1875,-4.1875 -0.0073,-2.3097 -1.8778,-4.1803 -4.1875,-4.1875 z m 0,6.9791 c -1.5418,0 -2.7917,-1.2499 -2.7917,-2.7916 0,-1.5418 1.2499,-2.7917 2.7917,-2.7917 1.5417,0 2.7916,1.2499 2.7916,2.7917 -0.0012,1.5416 -1.25,2.7914 -2.7916,2.7937 z"
             stroke="#ed7d31"
             stroke-width="0.697953"
             transform="matrix(1,0,0,1.01493,1003,306)"
             id="path285" />
        </g>
      </g>
    </g>
    <text
       font-family="Calibri, Calibri_MSFontService, sans-serif"
       font-weight="400"
       font-size="24px"
       transform="translate(1085,347)"
       id="text293">Foreign key</text>
  </g>
  <rect
     style="fill:none"
     id="rect303"
     width="1111.3693"
     height="333.11203"
     x="104.56432"
     y="156.84647" />
  <rect
     style="fill:none"
     id="rect1128"
     width="1171.1204"
     height="292.78009"
     x="128.46474"
     y="194.19087" />
  <rect
     style="fill:none"
     id="rect1130"
     width="1171.1204"
     height="292.78009"
     x="128.46474"
     y="194.19087" />
  <rect
     style="fill:none"
     id="rect1132"
     width="994.5589"
     height="331.51962"
     x="221.37469"
     y="158.43886" />
  <rect
     style="fill:none"
     id="rect1134"
     width="1242.1606"
     height="310.54016"
     x="114.07598"
     y="177.45152" />
</svg>
