<?xml version="1.0" encoding="UTF-8" standalone="no"?>
<svg
   xmlns:dc="http://purl.org/dc/elements/1.1/"
   xmlns:cc="http://creativecommons.org/ns#"
   xmlns:rdf="http://www.w3.org/1999/02/22-rdf-syntax-ns#"
   xmlns:svg="http://www.w3.org/2000/svg"
   xmlns="http://www.w3.org/2000/svg"
   width="1000"
   height="650"
   overflow="hidden"
   version="1.1"
   id="svg235">
  <metadata
     id="metadata239">
    <rdf:RDF>
      <cc:Work
         rdf:about="">
        <dc:format>image/svg+xml</dc:format>
        <dc:type
           rdf:resource="http://purl.org/dc/dcmitype/StillImage" />
        <dc:title></dc:title>
      </cc:Work>
    </rdf:RDF>
  </metadata>
  <defs
     id="defs41">
    <clipPath
       id="clip0">
      <rect
         x="0"
         y="0"
         width="1280"
         height="720"
         id="rect2" />
    </clipPath>
    <clipPath
       id="clip1">
      <rect
         x="97"
         y="96"
         width="96"
         height="96"
         id="rect5" />
    </clipPath>
    <clipPath
       id="clip2">
      <rect
         x="97"
         y="96"
         width="96"
         height="96"
         id="rect8" />
    </clipPath>
    <clipPath
       id="clip3">
      <rect
         x="97"
         y="96"
         width="96"
         height="96"
         id="rect11" />
    </clipPath>
    <clipPath
       id="clip4">
      <rect
         x="585"
         y="96"
         width="96"
         height="96"
         id="rect14" />
    </clipPath>
    <clipPath
       id="clip5">
      <rect
         x="585"
         y="96"
         width="96"
         height="96"
         id="rect17" />
    </clipPath>
    <clipPath
       id="clip6">
      <rect
         x="585"
         y="96"
         width="96"
         height="96"
         id="rect20" />
    </clipPath>
    <clipPath
       id="clip7">
      <rect
         x="97"
         y="413"
         width="96"
         height="96"
         id="rect23" />
    </clipPath>
    <clipPath
       id="clip8">
      <rect
         x="97"
         y="413"
         width="96"
         height="96"
         id="rect26" />
    </clipPath>
    <clipPath
       id="clip9">
      <rect
         x="97"
         y="413"
         width="96"
         height="96"
         id="rect29" />
    </clipPath>
    <clipPath
       id="clip10">
      <rect
         x="585"
         y="413"
         width="96"
         height="96"
         id="rect32" />
    </clipPath>
    <clipPath
       id="clip11">
      <rect
         x="585"
         y="413"
         width="96"
         height="96"
         id="rect35" />
    </clipPath>
    <clipPath
       id="clip12">
      <rect
         x="585"
         y="413"
         width="96"
         height="96"
         id="rect38" />
    </clipPath>
  </defs>
  <g
     clip-path="url(#clip0)"
     id="g233"
     transform="translate(-60.829885,-27.30291)">
    <rect
       x="0"
       y="0"
       width="1280"
       height="720"
       fill="#ffffff"
       id="rect43" />
    <text
       fill="#4472c4"
       font-family="Calibri, Calibri_MSFontService, sans-serif"
       font-weight="700"
       font-size="24px"
       transform="translate(190.643,156)"
       id="text81">FROM<tspan
   fill="#000000"
   font-weight="400"
   font-size="24px"
   x="66.933296"
   y="0"
   id="tspan45">t1</tspan><tspan
   font-size="24px"
   x="0"
   y="29"
   id="tspan47">JOIN</tspan><tspan
   fill="#000000"
   font-weight="400"
   font-size="24px"
   x="51.833302"
   y="29"
   id="tspan49">t2</tspan><tspan
   font-size="24px"
   x="77.5"
   y="29"
   id="tspan51">ON</tspan><tspan
   fill="#000000"
   font-weight="400"
   font-size="24px"
   x="120.5"
   y="29"
   id="tspan53">t1.field = t2.field</tspan><tspan
   fill="#00b050"
   font-size="24px"
   x="0"
   y="58"
   id="tspan55">WHERE</tspan><tspan
   fill="#000000"
   font-weight="400"
   font-size="24px"
   x="79.333298"
   y="58"
   id="tspan57">…</tspan><tspan
   fill="#7030a0"
   font-size="24px"
   x="0"
   y="87"
   id="tspan59">GROUP</tspan><tspan
   fill="#7030a0"
   font-size="24px"
   x="78.766701"
   y="87"
   id="tspan61">BY</tspan><tspan
   fill="#000000"
   font-weight="400"
   font-size="24px"
   x="109.447"
   y="87"
   id="tspan63">…</tspan><tspan
   fill="#a9d18e"
   font-size="24px"
   x="0"
   y="116"
   id="tspan65">HAVING</tspan><tspan
   fill="#000000"
   font-weight="400"
   font-size="24px"
   x="85.599998"
   y="116"
   id="tspan67">…</tspan><tspan
   fill="#c00000"
   font-size="24px"
   x="0"
   y="144"
   id="tspan69">SELECT</tspan><tspan
   fill="#000000"
   font-weight="400"
   font-size="24px"
   x="74.599998"
   y="144"
   id="tspan71">…</tspan><tspan
   fill="#ff9933"
   font-size="24px"
   x="0"
   y="173"
   id="tspan73">ORDER</tspan><tspan
   fill="#ff9933"
   font-size="24px"
   x="75.5"
   y="173"
   id="tspan75">B</tspan><tspan
   fill="#ff9933"
   font-size="24px"
   x="88.18"
   y="173"
   id="tspan77">Y</tspan><tspan
   fill="#000000"
   font-size="27px"
   x="0"
   y="-31"
   id="tspan79">Execution order</tspan></text>
    <g
       clip-path="url(#clip1)"
       id="g89">
      <g
         clip-path="url(#clip2)"
         id="g87">
        <g
           clip-path="url(#clip3)"
           id="g85">
          <path
             d="m 171,104 h -52 c -2.76,0.003 -4.997,2.24 -5,5 v 70 c 0.003,2.76 2.24,4.997 5,5 h 52 c 2.76,-0.003 4.997,-2.24 5,-5 v -70 c -0.003,-2.76 -2.24,-4.997 -5,-5 z m -52,2 h 52 c 1.657,0 3,1.343 3,3 v 10 h -9 v -1 c 0,-2.209 -1.791,-4 -4,-4 -2.209,0 -4,1.791 -4,4 v 1 h -2 v -1 c 0,-2.209 -1.791,-4 -4,-4 -2.209,0 -4,1.791 -4,4 v 1 h -14 v -1 c 0,-2.209 -1.791,-4 -4,-4 -2.209,0 -4,1.791 -4,4 v 1 h -9 v -10 c 0,-1.657 1.343,-3 3,-3 z m 42,56 c -2.209,0 -4,1.791 -4,4 v 1 h -2 v -1 c 0,-2.209 -1.791,-4 -4,-4 -2.209,0 -4,1.791 -4,4 v 1 h -14 v -1 c 0,-2.209 -1.791,-4 -4,-4 -2.209,0 -4,1.791 -4,4 v 1 h -9 v -14 h 9 v 1 c 0,2.209 1.791,4 4,4 2.209,0 4,-1.791 4,-4 v -1 h 2 v 1 c 0,2.209 1.791,4 4,4 2.209,0 4,-1.791 4,-4 v -1 h 14 v 1 c 0,2.209 1.791,4 4,4 2.209,0 4,-1.791 4,-4 v -1 h 9 v 14 h -9 v -1 c 0,-2.209 -1.791,-4 -4,-4 z m 2,4 v 4 c 0,1.105 -0.895,2 -2,2 -1.105,0 -2,-0.895 -2,-2 v -4 c 0,-1.105 0.895,-2 2,-2 1.105,0 2,0.895 2,2 z m -10,0 v 4 c 0,1.105 -0.895,2 -2,2 -1.105,0 -2,-0.895 -2,-2 v -4 c 0,-1.105 0.895,-2 2,-2 1.105,0 2,0.895 2,2 z m -22,0 v 4 c 0,1.105 -0.895,2 -2,2 -1.105,0 -2,-0.895 -2,-2 v -4 c 0,-1.105 0.895,-2 2,-2 1.105,0 2,0.895 2,2 z m -4,-12 v -4 c 0,-1.105 0.895,-2 2,-2 1.105,0 2,0.895 2,2 v 4 c 0,1.105 -0.895,2 -2,2 -1.105,0 -2,-0.895 -2,-2 z m 10,0 v -4 c 0,-1.105 0.895,-2 2,-2 1.105,0 2,0.895 2,2 v 4 c 0,1.105 -0.895,2 -2,2 -1.105,0 -2,-0.895 -2,-2 z m 22,0 v -4 c 0,-1.105 0.895,-2 2,-2 1.105,0 2,0.895 2,2 v 4 c 0,1.105 -0.895,2 -2,2 -1.105,0 -2,-0.895 -2,-2 z m 6,-3 v -1 c 0,-2.209 -1.791,-4 -4,-4 -2.209,0 -4,1.791 -4,4 v 1 h -14 v -1 c 0,-2.209 -1.791,-4 -4,-4 -2.209,0 -4,1.791 -4,4 v 1 h -2 v -1 c 0,-2.209 -1.791,-4 -4,-4 -2.209,0 -4,1.791 -4,4 v 1 h -9 v -14 h 21 v 1 c 0,2.209 1.791,4 4,4 2.209,0 4,-1.791 4,-4 v -1 h 2 v 1 c 0,2.209 1.791,4 4,4 2.209,0 4,-1.791 4,-4 v -1 h 2 v 1 c 0,2.209 1.791,4 4,4 2.209,0 4,-1.791 4,-4 v -1 h 9 v 14 z m -26,-13 v -4 c 0,-1.105 0.895,-2 2,-2 1.105,0 2,0.895 2,2 v 4 c 0,1.105 -0.895,2 -2,2 -1.105,0 -2,-0.895 -2,-2 z m 10,0 v -4 c 0,-1.105 0.895,-2 2,-2 1.105,0 2,0.895 2,2 v 4 c 0,1.105 -0.895,2 -2,2 -1.105,0 -2,-0.895 -2,-2 z m 10,0 v -4 c 0,-1.105 0.895,-2 2,-2 1.105,0 2,0.895 2,2 v 4 c 0,1.105 -0.895,2 -2,2 -1.105,0 -2,-0.895 -2,-2 z m 6,-3 v -1 c 0,-2.209 -1.791,-4 -4,-4 -2.209,0 -4,1.791 -4,4 v 1 h -2 v -1 c 0,-2.209 -1.791,-4 -4,-4 -2.209,0 -4,1.791 -4,4 v 1 h -2 v -1 c 0,-2.209 -1.791,-4 -4,-4 -2.209,0 -4,1.791 -4,4 v 1 h -21 v -14 h 9 v 1 c 0,2.209 1.791,4 4,4 2.209,0 4,-1.791 4,-4 v -1 h 14 v 1 c 0,2.209 1.791,4 4,4 2.209,0 4,-1.791 4,-4 v -1 h 2 v 1 c 0,2.209 1.791,4 4,4 2.209,0 4,-1.791 4,-4 v -1 h 9 v 14 z m -38,-13 v -4 c 0,-1.105 0.895,-2 2,-2 1.105,0 2,0.895 2,2 v 4 c 0,1.105 -0.895,2 -2,2 -1.105,0 -2,-0.895 -2,-2 z m 22,0 v -4 c 0,-1.105 0.895,-2 2,-2 1.105,0 2,0.895 2,2 v 4 c 0,1.105 -0.895,2 -2,2 -1.105,0 -2,-0.895 -2,-2 z m 10,0 v -4 c 0,-1.105 0.895,-2 2,-2 1.105,0 2,0.895 2,2 v 4 c 0,1.105 -0.895,2 -2,2 -1.105,0 -2,-0.895 -2,-2 z m 12,60 h -52 c -1.657,0 -3,-1.343 -3,-3 v -10 h 9 v 1 c 0,2.209 1.791,4 4,4 2.209,0 4,-1.791 4,-4 v -1 h 14 v 1 c 0,2.209 1.791,4 4,4 2.209,0 4,-1.791 4,-4 v -1 h 2 v 1 c 0,2.209 1.791,4 4,4 2.209,0 4,-1.791 4,-4 v -1 h 9 v 10 c 0,1.657 -1.343,3 -3,3 z"
             id="path83" />
        </g>
      </g>
    </g>
    <text
       font-family="Calibri, Calibri_MSFontService, sans-serif"
       font-weight="700"
       font-size="48px"
       transform="translate(526.898,395)"
       id="text127">R<tspan
   font-size="48px"
   x="-24.6744"
   y="-319"
   id="tspan91">SQL</tspan><tspan
   font-size="27px"
   x="168.00301"
   y="-270"
   id="tspan93">Written order</tspan><tspan
   fill="#c00000"
   font-size="24px"
   x="168.00301"
   y="-239"
   id="tspan95">SELECT</tspan><tspan
   font-weight="400"
   font-size="24px"
   x="242.603"
   y="-239"
   id="tspan97">…</tspan><tspan
   fill="#4472c4"
   font-size="24px"
   x="168.00301"
   y="-210"
   id="tspan99">FROM</tspan><tspan
   font-weight="400"
   font-size="24px"
   x="234.937"
   y="-210"
   id="tspan101">t1</tspan><tspan
   fill="#4472c4"
   font-size="24px"
   x="168.00301"
   y="-181"
   id="tspan103">JOIN</tspan><tspan
   font-weight="400"
   font-size="24px"
   x="219.83701"
   y="-181"
   id="tspan105">t2</tspan><tspan
   fill="#4472c4"
   font-size="24px"
   x="245.50301"
   y="-181"
   id="tspan107">ON</tspan><tspan
   font-weight="400"
   font-size="24px"
   x="288.50299"
   y="-181"
   id="tspan109">t1.field = t2.field</tspan><tspan
   fill="#70ad47"
   font-size="24px"
   x="168.00301"
   y="-152"
   id="tspan111">WHERE</tspan><tspan
   font-weight="400"
   font-size="24px"
   x="247.33701"
   y="-152"
   id="tspan113">…</tspan><tspan
   fill="#7030a0"
   font-size="24px"
   x="168.00301"
   y="-123"
   id="tspan115">GROUP</tspan><tspan
   fill="#7030a0"
   font-size="24px"
   x="246.77"
   y="-123"
   id="tspan117">BY</tspan><tspan
   font-weight="400"
   font-size="24px"
   x="277.45001"
   y="-123"
   id="tspan119">…</tspan><tspan
   fill="#a9d18e"
   font-size="24px"
   x="168.00301"
   y="-95"
   id="tspan121">HAVING</tspan><tspan
   font-weight="400"
   font-size="24px"
   x="253.603"
   y="-95"
   id="tspan123">…</tspan><tspan
   fill="#ff9933"
   font-size="24px"
   x="168.00301"
   y="-66"
   id="tspan125">ORDER BY</tspan></text>
    <g
       clip-path="url(#clip4)"
       id="g135">
      <g
         clip-path="url(#clip5)"
         id="g133">
        <g
           clip-path="url(#clip6)"
           id="g131">
          <path
             d="m 658.8,130.012 c 0.122,-0.13 10.132,-10.721 20.2,-21.491 v -2.929 c -10.533,11.279 -21.523,22.908 -21.635,23.026 l -3.765,3.763 2.542,2.544 c -9.342,8.831 -16.742,11.152 -16.742,11.152 -1.325,8.236 -4.577,16.043 -9.491,22.785 l 1.717,1.718 -10.3,1.583 c -0.005,10e-4 -0.01,-0.001 -0.011,-0.006 -0.001,-0.002 -0.001,-0.004 0,-0.006 0.574,-1.55 1.16,-3.8 0.534,-5.461 -0.308,-0.846 -0.969,-1.517 -1.81,-1.838 -2.293,-0.9 -5.789,1.677 -8.517,4.238 -0.004,0.004 -0.009,0.004 -0.013,0 -0.002,-0.002 -0.003,-0.006 -0.002,-0.009 0.29,-1.129 0.24,-2.319 -0.146,-3.42 -0.426,-0.992 -1.306,-1.715 -2.361,-1.941 -2.227,-0.561 -5.294,1.883 -8.616,5.541 -0.003,0.004 -0.008,0.006 -0.012,0.003 -0.005,-0.002 -0.007,-0.008 -0.004,-0.012 2.746,-5.791 4.918,-12.724 1.449,-16.192 -2.5,-2.5 -7.122,-2.579 -14.131,-0.242 -0.525,0.174 -0.808,0.741 -0.634,1.266 0.175,0.525 0.741,0.809 1.266,0.634 6.134,-2.044 10.2,-2.126 12.085,-0.241 4.206,4.206 -3.359,17.077 -5.844,21.307 -0.432,0.734 -0.749,1.277 -0.9,1.571 -0.337,0.472 -0.227,1.127 0.244,1.463 0.015,0.011 0.031,0.021 0.046,0.031 0.165,0.12 0.36,0.191 0.563,0.206 0.488,0 0.935,-0.577 2.011,-1.967 7.737,-9.987 10.792,-11.724 11.99,-11.424 0.451,0.067 0.836,0.364 1.014,0.784 0.643,1.5 -0.666,4.778 -1.64,6.489 -0.272,0.48 -0.104,1.091 0.377,1.363 0.413,0.235 0.935,0.145 1.247,-0.213 3.487,-4.028 8.217,-7.988 9.8,-7.371 0.317,0.113 0.564,0.365 0.672,0.683 0.513,1.354 -0.462,4.14 -1.2,5.578 -0.252,0.492 -0.057,1.094 0.434,1.346 0.188,0.096 0.401,0.13 0.609,0.098 l 13.32,-2.049 c 0.069,-0.016 0.136,-0.04 0.2,-0.072 l 2.254,2.253 c 6.74,-4.915 14.546,-8.168 22.781,-9.494 0,0 2.275,-7.447 11.1,-16.794 l 2.619,2.614 0.707,-0.7 c 0.055,-0.054 3.042,-3 6.2,-6.08 v -2.791 c -2.71,2.638 -5.587,5.466 -6.894,6.753 l -1.243,-1.237 v 0 l -13.28,-13.293 -0.005,0.005 -1.154,-1.155 z m -1.9,33.273 c -7.551,1.392 -14.73,4.342 -21.077,8.663 l -0.955,-0.955 12.963,-12.963 c 1.007,0.431 2.175,0.206 2.95,-0.568 v 0 c 1.048,-1.047 1.05,-2.746 0.002,-3.794 -1.047,-1.049 -2.746,-1.05 -3.794,-0.003 -0.775,0.775 -1.002,1.943 -0.572,2.951 l -12.961,12.962 -0.94,-0.94 c 4.322,-6.352 7.272,-13.534 8.663,-21.09 2.539,-1.032 8.868,-4.081 16.386,-11.2 l 10.5,10.5 c -7.121,7.519 -10.141,13.879 -11.165,16.437 z"
             id="path129" />
        </g>
      </g>
    </g>
    <text
       font-family="Calibri, Calibri_MSFontService, sans-serif"
       font-weight="700"
       font-size="27px"
       transform="translate(190.643,443)"
       id="text137">Execution order</text>
    <g
       clip-path="url(#clip7)"
       id="g145">
      <g
         clip-path="url(#clip8)"
         id="g143">
        <g
           clip-path="url(#clip9)"
           id="g141">
          <path
             d="m 171,421 h -52 c -2.76,0.003 -4.997,2.24 -5,5 v 70 c 0.003,2.76 2.24,4.997 5,5 h 52 c 2.76,-0.003 4.997,-2.24 5,-5 v -70 c -0.003,-2.76 -2.24,-4.997 -5,-5 z m -52,2 h 52 c 1.657,0 3,1.343 3,3 v 10 h -9 v -1 c 0,-2.209 -1.791,-4 -4,-4 -2.209,0 -4,1.791 -4,4 v 1 h -2 v -1 c 0,-2.209 -1.791,-4 -4,-4 -2.209,0 -4,1.791 -4,4 v 1 h -14 v -1 c 0,-2.209 -1.791,-4 -4,-4 -2.209,0 -4,1.791 -4,4 v 1 h -9 v -10 c 0,-1.657 1.343,-3 3,-3 z m 42,56 c -2.209,0 -4,1.791 -4,4 v 1 h -2 v -1 c 0,-2.209 -1.791,-4 -4,-4 -2.209,0 -4,1.791 -4,4 v 1 h -14 v -1 c 0,-2.209 -1.791,-4 -4,-4 -2.209,0 -4,1.791 -4,4 v 1 h -9 v -14 h 9 v 1 c 0,2.209 1.791,4 4,4 2.209,0 4,-1.791 4,-4 v -1 h 2 v 1 c 0,2.209 1.791,4 4,4 2.209,0 4,-1.791 4,-4 v -1 h 14 v 1 c 0,2.209 1.791,4 4,4 2.209,0 4,-1.791 4,-4 v -1 h 9 v 14 h -9 v -1 c 0,-2.209 -1.791,-4 -4,-4 z m 2,4 v 4 c 0,1.105 -0.895,2 -2,2 -1.105,0 -2,-0.895 -2,-2 v -4 c 0,-1.105 0.895,-2 2,-2 1.105,0 2,0.895 2,2 z m -10,0 v 4 c 0,1.105 -0.895,2 -2,2 -1.105,0 -2,-0.895 -2,-2 v -4 c 0,-1.105 0.895,-2 2,-2 1.105,0 2,0.895 2,2 z m -22,0 v 4 c 0,1.105 -0.895,2 -2,2 -1.105,0 -2,-0.895 -2,-2 v -4 c 0,-1.105 0.895,-2 2,-2 1.105,0 2,0.895 2,2 z m -4,-12 v -4 c 0,-1.105 0.895,-2 2,-2 1.105,0 2,0.895 2,2 v 4 c 0,1.105 -0.895,2 -2,2 -1.105,0 -2,-0.895 -2,-2 z m 10,0 v -4 c 0,-1.105 0.895,-2 2,-2 1.105,0 2,0.895 2,2 v 4 c 0,1.105 -0.895,2 -2,2 -1.105,0 -2,-0.895 -2,-2 z m 22,0 v -4 c 0,-1.105 0.895,-2 2,-2 1.105,0 2,0.895 2,2 v 4 c 0,1.105 -0.895,2 -2,2 -1.105,0 -2,-0.895 -2,-2 z m 6,-3 v -1 c 0,-2.209 -1.791,-4 -4,-4 -2.209,0 -4,1.791 -4,4 v 1 h -14 v -1 c 0,-2.209 -1.791,-4 -4,-4 -2.209,0 -4,1.791 -4,4 v 1 h -2 v -1 c 0,-2.209 -1.791,-4 -4,-4 -2.209,0 -4,1.791 -4,4 v 1 h -9 v -14 h 21 v 1 c 0,2.209 1.791,4 4,4 2.209,0 4,-1.791 4,-4 v -1 h 2 v 1 c 0,2.209 1.791,4 4,4 2.209,0 4,-1.791 4,-4 v -1 h 2 v 1 c 0,2.209 1.791,4 4,4 2.209,0 4,-1.791 4,-4 v -1 h 9 v 14 z m -26,-13 v -4 c 0,-1.105 0.895,-2 2,-2 1.105,0 2,0.895 2,2 v 4 c 0,1.105 -0.895,2 -2,2 -1.105,0 -2,-0.895 -2,-2 z m 10,0 v -4 c 0,-1.105 0.895,-2 2,-2 1.105,0 2,0.895 2,2 v 4 c 0,1.105 -0.895,2 -2,2 -1.105,0 -2,-0.895 -2,-2 z m 10,0 v -4 c 0,-1.105 0.895,-2 2,-2 1.105,0 2,0.895 2,2 v 4 c 0,1.105 -0.895,2 -2,2 -1.105,0 -2,-0.895 -2,-2 z m 6,-3 v -1 c 0,-2.209 -1.791,-4 -4,-4 -2.209,0 -4,1.791 -4,4 v 1 h -2 v -1 c 0,-2.209 -1.791,-4 -4,-4 -2.209,0 -4,1.791 -4,4 v 1 h -2 v -1 c 0,-2.209 -1.791,-4 -4,-4 -2.209,0 -4,1.791 -4,4 v 1 h -21 v -14 h 9 v 1 c 0,2.209 1.791,4 4,4 2.209,0 4,-1.791 4,-4 v -1 h 14 v 1 c 0,2.209 1.791,4 4,4 2.209,0 4,-1.791 4,-4 v -1 h 2 v 1 c 0,2.209 1.791,4 4,4 2.209,0 4,-1.791 4,-4 v -1 h 9 v 14 z m -38,-13 v -4 c 0,-1.105 0.895,-2 2,-2 1.105,0 2,0.895 2,2 v 4 c 0,1.105 -0.895,2 -2,2 -1.105,0 -2,-0.895 -2,-2 z m 22,0 v -4 c 0,-1.105 0.895,-2 2,-2 1.105,0 2,0.895 2,2 v 4 c 0,1.105 -0.895,2 -2,2 -1.105,0 -2,-0.895 -2,-2 z m 10,0 v -4 c 0,-1.105 0.895,-2 2,-2 1.105,0 2,0.895 2,2 v 4 c 0,1.105 -0.895,2 -2,2 -1.105,0 -2,-0.895 -2,-2 z m 12,60 h -52 c -1.657,0 -3,-1.343 -3,-3 v -10 h 9 v 1 c 0,2.209 1.791,4 4,4 2.209,0 4,-1.791 4,-4 v -1 h 14 v 1 c 0,2.209 1.791,4 4,4 2.209,0 4,-1.791 4,-4 v -1 h 2 v 1 c 0,2.209 1.791,4 4,4 2.209,0 4,-1.791 4,-4 v -1 h 9 v 10 c 0,1.657 -1.343,3 -3,3 z"
             id="path139" />
        </g>
      </g>
    </g>
    <text
       font-family="Calibri, Calibri_MSFontService, sans-serif"
       font-weight="700"
       font-size="27px"
       transform="translate(694.901,443)"
       id="text147">Written order</text>
    <g
       clip-path="url(#clip10)"
       id="g155">
      <g
         clip-path="url(#clip11)"
         id="g153">
        <g
           clip-path="url(#clip12)"
           id="g151">
          <path
             d="m 658.8,447.012 c 0.122,-0.13 10.132,-10.721 20.2,-21.491 v -2.929 c -10.533,11.279 -21.523,22.908 -21.635,23.026 l -3.765,3.763 2.542,2.544 c -9.342,8.831 -16.742,11.152 -16.742,11.152 -1.325,8.236 -4.577,16.043 -9.491,22.785 l 1.717,1.718 -10.3,1.583 c -0.005,10e-4 -0.01,-0.001 -0.011,-0.006 -0.001,-0.002 -0.001,-0.004 0,-0.006 0.574,-1.55 1.16,-3.8 0.534,-5.461 -0.308,-0.846 -0.969,-1.517 -1.81,-1.838 -2.293,-0.9 -5.789,1.677 -8.517,4.238 -0.004,0.004 -0.009,0.004 -0.013,0 -0.002,-0.002 -0.003,-0.006 -0.002,-0.009 0.29,-1.129 0.24,-2.319 -0.146,-3.42 -0.426,-0.992 -1.306,-1.715 -2.361,-1.941 -2.227,-0.561 -5.294,1.883 -8.616,5.541 -0.003,0.004 -0.008,0.006 -0.012,0.003 -0.005,-0.002 -0.007,-0.008 -0.004,-0.012 2.746,-5.791 4.918,-12.724 1.449,-16.192 -2.5,-2.5 -7.122,-2.579 -14.131,-0.242 -0.525,0.174 -0.808,0.741 -0.634,1.266 0.175,0.525 0.741,0.809 1.266,0.634 6.134,-2.044 10.2,-2.126 12.085,-0.241 4.206,4.206 -3.359,17.077 -5.844,21.307 -0.432,0.734 -0.749,1.277 -0.9,1.571 -0.337,0.472 -0.227,1.127 0.244,1.463 0.015,0.011 0.031,0.021 0.046,0.031 0.165,0.12 0.36,0.191 0.563,0.206 0.488,0 0.935,-0.577 2.011,-1.967 7.737,-9.987 10.792,-11.724 11.99,-11.424 0.451,0.067 0.836,0.364 1.014,0.784 0.643,1.5 -0.666,4.778 -1.64,6.489 -0.272,0.48 -0.104,1.091 0.377,1.363 0.413,0.235 0.935,0.145 1.247,-0.213 3.487,-4.028 8.217,-7.988 9.8,-7.371 0.317,0.113 0.564,0.365 0.672,0.683 0.513,1.354 -0.462,4.14 -1.2,5.578 -0.252,0.492 -0.057,1.094 0.434,1.346 0.188,0.096 0.401,0.13 0.609,0.098 l 13.32,-2.049 c 0.069,-0.016 0.136,-0.04 0.2,-0.072 l 2.254,2.253 c 6.74,-4.915 14.546,-8.168 22.781,-9.494 0,0 2.275,-7.447 11.1,-16.794 l 2.619,2.614 0.707,-0.7 c 0.055,-0.054 3.042,-3 6.2,-6.08 v -2.791 c -2.71,2.638 -5.587,5.466 -6.894,6.753 l -1.243,-1.237 v 0 l -13.28,-13.293 -0.005,0.005 -1.154,-1.155 z m -1.9,33.273 c -7.551,1.392 -14.73,4.342 -21.077,8.663 l -0.955,-0.955 12.963,-12.963 c 1.007,0.431 2.175,0.206 2.95,-0.568 v 0 c 1.048,-1.047 1.05,-2.746 0.002,-3.794 -1.047,-1.049 -2.746,-1.05 -3.794,-0.003 -0.775,0.775 -1.002,1.943 -0.572,2.951 l -12.961,12.962 -0.94,-0.94 c 4.322,-6.352 7.272,-13.534 8.663,-21.09 2.539,-1.032 8.868,-4.081 16.386,-11.2 l 10.5,10.5 c -7.121,7.519 -10.141,13.879 -11.165,16.437 z"
             id="path149" />
        </g>
      </g>
    </g>
    <text
       font-family="Calibri, Calibri_MSFontService, sans-serif"
       font-weight="400"
       font-size="24px"
       transform="translate(190.643,475)"
       id="text231">t1 %&gt;% <tspan
   fill="#4472c4"
   font-weight="700"
   font-size="24px"
   x="0"
   y="29"
   id="tspan157">inner_</tspan><tspan
   fill="#4472c4"
   font-weight="700"
   font-size="24px"
   x="64"
   y="29"
   id="tspan159">join(</tspan><tspan
   font-size="24px"
   x="109.167"
   y="29"
   id="tspan161">t2</tspan><tspan
   font-size="24px"
   x="129.33299"
   y="29"
   id="tspan163">, by = “field</tspan>”) %&gt;%<tspan
   fill="#00b050"
   font-weight="700"
   font-size="24px"
   x="0"
   y="58"
   id="tspan165">f</tspan><tspan
   fill="#00b050"
   font-weight="700"
   font-size="24px"
   x="7.6666698"
   y="58"
   id="tspan167">ilter()</tspan><tspan
   font-size="24px"
   x="68.373299"
   y="58"
   id="tspan169">… %&gt;%</tspan><tspan
   fill="#7030a0"
   font-weight="700"
   font-size="24px"
   x="0"
   y="87"
   id="tspan171">g</tspan><tspan
   fill="#7030a0"
   font-weight="700"
   font-size="24px"
   x="11.3333"
   y="87"
   id="tspan173">roup_by()</tspan><tspan
   font-size="24px"
   x="114.58"
   y="87"
   id="tspan175">… %&gt;%</tspan><tspan
   fill="#7030a0"
   font-weight="700"
   font-size="24px"
   x="0"
   y="116"
   id="tspan177">summarise()</tspan><tspan
   fill="#7030a0"
   font-size="24px"
   x="129.5"
   y="116"
   id="tspan179">or</tspan><tspan
   fill="#7030a0"
   font-weight="700"
   font-size="24px"
   x="156"
   y="116"
   id="tspan181">mutate()</tspan>… %&gt;<tspan
   font-size="24px"
   x="294.25299"
   y="116"
   id="tspan183">%</tspan><tspan
   fill="#a9d18e"
   font-weight="700"
   font-size="24px"
   x="0"
   y="144"
   id="tspan185">f</tspan><tspan
   fill="#a9d18e"
   font-weight="700"
   font-size="24px"
   x="7.6666698"
   y="144"
   id="tspan187">ilter()</tspan><tspan
   font-size="24px"
   x="68.373299"
   y="144"
   id="tspan189">… %&gt;%</tspan><tspan
   fill="#ff9933"
   font-weight="700"
   font-size="24px"
   x="0"
   y="173"
   id="tspan191">a</tspan><tspan
   fill="#ff9933"
   font-weight="700"
   font-size="24px"
   x="11.8333"
   y="173"
   id="tspan193">rrange()</tspan><tspan
   font-size="24px"
   x="504.25699"
   y="0"
   id="tspan195">t</tspan>1 %&gt;% <tspan
   fill="#4472c4"
   font-weight="700"
   font-size="24px"
   x="504.25699"
   y="29"
   id="tspan197">inner_</tspan><tspan
   fill="#4472c4"
   font-weight="700"
   font-size="24px"
   x="568.25702"
   y="29"
   id="tspan199">join(</tspan><tspan
   font-size="24px"
   x="613.42401"
   y="29"
   id="tspan201">t2</tspan><tspan
   font-size="24px"
   x="633.591"
   y="29"
   id="tspan203">, by = “field</tspan>”) %&gt;%<tspan
   fill="#00b050"
   font-weight="700"
   font-size="24px"
   x="504.25699"
   y="58"
   id="tspan205">f</tspan><tspan
   fill="#00b050"
   font-weight="700"
   font-size="24px"
   x="511.92401"
   y="58"
   id="tspan207">ilter()</tspan>… %&gt;%<tspan
   fill="#7030a0"
   font-weight="700"
   font-size="24px"
   x="504.25699"
   y="87"
   id="tspan209">g</tspan><tspan
   fill="#7030a0"
   font-weight="700"
   font-size="24px"
   x="515.591"
   y="87"
   id="tspan211">roup_by()</tspan><tspan
   font-size="24px"
   x="618.83698"
   y="87"
   id="tspan213">… %&gt;%</tspan><tspan
   fill="#7030a0"
   font-weight="700"
   font-size="24px"
   x="504.25699"
   y="116"
   id="tspan215">summarise()</tspan><tspan
   fill="#7030a0"
   font-size="24px"
   x="633.75702"
   y="116"
   id="tspan217">or</tspan><tspan
   fill="#7030a0"
   font-weight="700"
   font-size="24px"
   x="660.25702"
   y="116"
   id="tspan219">mutate()</tspan>… %&gt;<tspan
   font-size="24px"
   x="798.51099"
   y="116"
   id="tspan221">%</tspan><tspan
   fill="#a9d18e"
   font-weight="700"
   font-size="24px"
   x="504.25699"
   y="144"
   id="tspan223">f</tspan><tspan
   fill="#a9d18e"
   font-weight="700"
   font-size="24px"
   x="511.92401"
   y="144"
   id="tspan225">ilter()</tspan>… %&gt;% <tspan
   fill="#ff9933"
   font-weight="700"
   font-size="24px"
   x="504.25699"
   y="173"
   id="tspan227">a</tspan><tspan
   fill="#ff9933"
   font-weight="700"
   font-size="24px"
   x="516.091"
   y="173"
   id="tspan229">rrange()</tspan></text>
  </g>
</svg>
