<svg width="1280" height="720" xmlns="http://www.w3.org/2000/svg" xmlns:xlink="http://www.w3.org/1999/xlink" overflow="hidden"><g><rect x="0" y="0" width="1280" height="720" fill="#FFFFFF"/><rect x="99" y="185" width="75" height="76" stroke="#E8E8E8" stroke-width="2" stroke-miterlimit="8" fill="#FFFFFF"/><rect x="99" y="261" width="75" height="76" stroke="#E8E8E8" stroke-width="2" stroke-miterlimit="8" fill="#FFFFFF"/><rect x="99" y="337" width="75" height="80" stroke="#E8E8E8" stroke-width="2" stroke-miterlimit="8" fill="#FFFFFF"/><rect x="174" y="185" width="76" height="76" stroke="#E8E8E8" stroke-width="2" stroke-miterlimit="8" fill="#FFFFFF"/><rect x="174" y="261" width="76" height="76" stroke="#E8E8E8" stroke-width="2" stroke-miterlimit="8" fill="#FFFFFF"/><rect x="174" y="337" width="76" height="80" stroke="#E8E8E8" stroke-width="2" stroke-miterlimit="8" fill="#FFFFFF"/><rect x="250" y="185" width="75" height="76" stroke="#E8E8E8" stroke-width="2" stroke-miterlimit="8" fill="#FFFFFF"/><rect x="250" y="261" width="75" height="76" stroke="#E8E8E8" stroke-width="2" stroke-miterlimit="8" fill="#FFFFFF"/><rect x="250" y="337" width="75" height="80" stroke="#E8E8E8" stroke-width="2" stroke-miterlimit="8" fill="#FFFFFF"/><rect x="325" y="185" width="75" height="76" stroke="#E8E8E8" stroke-width="2" stroke-miterlimit="8" fill="#FFFFFF"/><rect x="325" y="261" width="75" height="76" stroke="#E8E8E8" stroke-width="2" stroke-miterlimit="8" fill="#FFFFFF"/><rect x="325" y="337" width="75" height="80" stroke="#E8E8E8" stroke-width="2" stroke-miterlimit="8" fill="#FFFFFF"/><rect x="99" y="409" width="75" height="76" stroke="#E8E8E8" stroke-width="2" stroke-miterlimit="8" fill="#FFFFFF"/><rect x="99" y="485" width="75" height="76" stroke="#E8E8E8" stroke-width="2" stroke-miterlimit="8" fill="#FFFFFF"/><rect x="99" y="561" width="75" height="80" stroke="#E8E8E8" stroke-width="2" stroke-miterlimit="8" fill="#FFFFFF"/><rect x="174" y="409" width="76" height="76" stroke="#E8E8E8" stroke-width="2" stroke-miterlimit="8" fill="#FFFFFF"/><rect x="174" y="485" width="76" height="76" stroke="#E8E8E8" stroke-width="2" stroke-miterlimit="8" fill="#FFFFFF"/><rect x="174" y="561" width="76" height="80" stroke="#E8E8E8" stroke-width="2" stroke-miterlimit="8" fill="#FFFFFF"/><rect x="250" y="409" width="75" height="76" stroke="#E8E8E8" stroke-width="2" stroke-miterlimit="8" fill="#FFFFFF"/><rect x="250" y="485" width="75" height="76" stroke="#E8E8E8" stroke-width="2" stroke-miterlimit="8" fill="#FFFFFF"/><rect x="250" y="561" width="75" height="80" stroke="#E8E8E8" stroke-width="2" stroke-miterlimit="8" fill="#FFFFFF"/><rect x="325" y="409" width="75" height="76" stroke="#E8E8E8" stroke-width="2" stroke-miterlimit="8" fill="#FFFFFF"/><rect x="325" y="485" width="75" height="76" stroke="#E8E8E8" stroke-width="2" stroke-miterlimit="8" fill="#FFFFFF"/><rect x="325" y="561" width="75" height="80" stroke="#E8E8E8" stroke-width="2" stroke-miterlimit="8" fill="#FFFFFF"/><rect x="400" y="185" width="75" height="76" stroke="#E8E8E8" stroke-width="2" stroke-miterlimit="8" fill="#FFFFFF"/><rect x="400" y="261" width="75" height="76" stroke="#E8E8E8" stroke-width="2" stroke-miterlimit="8" fill="#FFFFFF"/><rect x="400" y="337" width="75" height="80" stroke="#E8E8E8" stroke-width="2" stroke-miterlimit="8" fill="#FFFFFF"/><rect x="475" y="185" width="76" height="76" stroke="#E8E8E8" stroke-width="2" stroke-miterlimit="8" fill="#FFFFFF"/><rect x="475" y="261" width="76" height="76" stroke="#E8E8E8" stroke-width="2" stroke-miterlimit="8" fill="#FFFFFF"/><rect x="475" y="337" width="76" height="80" stroke="#E8E8E8" stroke-width="2" stroke-miterlimit="8" fill="#FFFFFF"/><rect x="400" y="409" width="75" height="76" stroke="#E8E8E8" stroke-width="2" stroke-miterlimit="8" fill="#FFFFFF"/><rect x="400" y="485" width="75" height="76" stroke="#E8E8E8" stroke-width="2" stroke-miterlimit="8" fill="#FFFFFF"/><rect x="400" y="561" width="75" height="80" stroke="#E8E8E8" stroke-width="2" stroke-miterlimit="8" fill="#FFFFFF"/><rect x="475" y="409" width="76" height="76" stroke="#E8E8E8" stroke-width="2" stroke-miterlimit="8" fill="#FFFFFF"/><rect x="475" y="485" width="76" height="76" stroke="#E8E8E8" stroke-width="2" stroke-miterlimit="8" fill="#FFFFFF"/><rect x="475" y="561" width="76" height="80" stroke="#E8E8E8" stroke-width="2" stroke-miterlimit="8" fill="#FFFFFF"/><path d="M99 561 543.864 561 543.864 563 99 563ZM542.531 558 550.531 562 542.531 566Z"/><path d="M1-2.30485e-07 1.0001 448.836-0.999897 448.836-1 2.30485e-07ZM4.0001 447.504 0.000104987 455.504-3.9999 447.504Z" transform="matrix(1 0 0 -1 174 640.504)"/><text font-family="Calibri,Calibri_MSFontService,sans-serif" font-weight="400" font-size="48" transform="translate(320.11 81)">True model (always unknown)</text><text font-family="Cambria Math,Cambria Math_MSFontService,sans-serif" font-weight="400" font-size="48" transform="translate(430.285 145)">ğ¸</text><text font-family="Cambria Math,Cambria Math_MSFontService,sans-serif" font-weight="400" font-size="48" transform="translate(462.158 145)">(</text><text font-family="Cambria Math,Cambria Math_MSFontService,sans-serif" font-weight="400" font-size="48" transform="translate(482.158 145)">ğ‘Œ</text><text font-family="Cambria Math,Cambria Math_MSFontService,sans-serif" font-weight="400" font-size="32" transform="translate(511.158 156)">ğ‘–</text><text font-family="Cambria Math,Cambria Math_MSFontService,sans-serif" font-weight="400" font-size="48" transform="translate(522.852 145)">)</text><text font-family="Cambria Math,Cambria Math_MSFontService,sans-serif" font-weight="400" font-size="48" transform="translate(556.185 145)">=</text><text font-family="Cambria Math,Cambria Math_MSFontService,sans-serif" font-weight="400" font-size="48" transform="translate(601.852 145)">ğ›½</text><text font-family="Cambria Math,Cambria Math_MSFontService,sans-serif" font-weight="400" font-size="32" transform="translate(631.018 156)">0</text><text font-family="Cambria Math,Cambria Math_MSFontService,sans-serif" font-weight="400" font-size="48" transform="translate(659.352 145)">+</text><text font-family="Cambria Math,Cambria Math_MSFontService,sans-serif" font-weight="400" font-size="48" transform="translate(705.852 145)">ğ›½</text><text font-family="Cambria Math,Cambria Math_MSFontService,sans-serif" font-weight="400" font-size="32" transform="translate(735.018 156)">1</text><text font-family="Cambria Math,Cambria Math_MSFontService,sans-serif" font-weight="400" font-size="48" transform="translate(752.685 145)">ğ‘‹</text><text font-family="Cambria Math,Cambria Math_MSFontService,sans-serif" font-weight="400" font-size="32" transform="translate(783.685 156)">ğ‘–</text><text font-family="Calibri,Calibri_MSFontService,sans-serif" font-weight="400" font-size="24" transform="translate(168 175)">y</text><text font-family="Calibri,Calibri_MSFontService,sans-serif" font-weight="400" font-size="24" transform="translate(558.409 569)">x</text><text font-family="Calibri,Calibri_MSFontService,sans-serif" font-weight="400" font-size="32" transform="translate(614.596 408)">We assume each</text><text font-family="Cambria Math,Cambria Math_MSFontService,sans-serif" font-weight="400" font-size="32" transform="translate(839.756 408)">ğ‘Œ</text><text font-family="Cambria Math,Cambria Math_MSFontService,sans-serif" font-weight="400" font-size="21" transform="translate(859.089 415)">ğ‘–</text><text font-family="Calibri,Calibri_MSFontService,sans-serif" font-weight="400" font-size="32" transform="translate(874.102 408)">is drawn from a normal</text><text font-family="Calibri,Calibri_MSFontService,sans-serif" font-weight="400" font-size="32" transform="translate(614.596 446)">distribution with mean</text><text font-family="Cambria Math,Cambria Math_MSFontService,sans-serif" font-weight="400" font-size="32" transform="translate(918.236 446)">ğ›½</text><text font-family="Cambria Math,Cambria Math_MSFontService,sans-serif" font-weight="400" font-size="21" transform="translate(937.569 453)">0</text><text font-family="Cambria Math,Cambria Math_MSFontService,sans-serif" font-weight="400" font-size="32" transform="translate(956.516 446)">+</text><text font-family="Cambria Math,Cambria Math_MSFontService,sans-serif" font-weight="400" font-size="32" transform="translate(987.462 446)">ğ›½</text><text font-family="Cambria Math,Cambria Math_MSFontService,sans-serif" font-weight="400" font-size="21" transform="translate(1006.8 453)">1</text><text font-family="Cambria Math,Cambria Math_MSFontService,sans-serif" font-weight="400" font-size="32" transform="translate(1018.63 446)">ğ‘‹</text><text font-family="Cambria Math,Cambria Math_MSFontService,sans-serif" font-weight="400" font-size="21" transform="translate(1039.3 453)">ğ‘–</text><text font-family="Calibri,Calibri_MSFontService,sans-serif" font-weight="400" font-size="32" transform="translate(614.596 498)">We do not know</text><text font-family="Cambria Math,Cambria Math_MSFontService,sans-serif" font-weight="400" font-size="32" transform="translate(835.462 498)">ğ›½</text><text font-family="Cambria Math,Cambria Math_MSFontService,sans-serif" font-weight="400" font-size="21" transform="translate(854.796 505)">0</text><text font-family="Cambria Math,Cambria Math_MSFontService,sans-serif" font-weight="400" font-size="21" transform="translate(866.629 505)"></text><text font-family="Calibri,Calibri_MSFontService,sans-serif" font-weight="400" font-size="32" transform="translate(871.296 498)">and</text><text font-family="Cambria Math,Cambria Math_MSFontService,sans-serif" font-weight="400" font-size="32" transform="translate(920.296 498)"></text><text font-family="Cambria Math,Cambria Math_MSFontService,sans-serif" font-weight="400" font-size="32" transform="translate(927.296 498)">ğ›½</text><text font-family="Cambria Math,Cambria Math_MSFontService,sans-serif" font-weight="400" font-size="21" transform="translate(946.629 505)">1</text><text font-family="Cambria Math,Cambria Math_MSFontService,sans-serif" font-weight="400" font-size="21" transform="translate(958.462 512)"></text><text font-family="Calibri,Calibri_MSFontService,sans-serif" font-weight="400" font-size="32" transform="translate(963.129 498)">and want to</text><text font-family="Calibri,Calibri_MSFontService,sans-serif" font-weight="400" font-size="32" transform="translate(614.596 536)">estimate them</text><text fill="#C04F15" font-family="Cambria Math,Cambria Math_MSFontService,sans-serif" font-weight="400" font-size="37" transform="translate(573.572 307)">ğ¸</text><text fill="#C04F15" font-family="Cambria Math,Cambria Math_MSFontService,sans-serif" font-weight="400" font-size="37" transform="translate(598.365 307)">(</text><text fill="#C04F15" font-family="Cambria Math,Cambria Math_MSFontService,sans-serif" font-weight="400" font-size="37" transform="translate(613.865 307)">ğ‘Œ</text><text fill="#C04F15" font-family="Cambria Math,Cambria Math_MSFontService,sans-serif" font-weight="400" font-size="25" transform="translate(636.365 315)">ğ‘–</text><text fill="#C04F15" font-family="Cambria Math,Cambria Math_MSFontService,sans-serif" font-weight="400" font-size="37" transform="translate(645.385 307)">)</text><text fill="#C04F15" font-family="Cambria Math,Cambria Math_MSFontService,sans-serif" font-weight="400" font-size="37" transform="translate(671.259 307)">=</text><text fill="#C04F15" font-family="Cambria Math,Cambria Math_MSFontService,sans-serif" font-weight="400" font-size="37" transform="translate(706.759 307)">1</text><text fill="#C04F15" font-family="Cambria Math,Cambria Math_MSFontService,sans-serif" font-weight="400" font-size="37" transform="translate(735.719 307)">+</text><text fill="#C04F15" font-family="Cambria Math,Cambria Math_MSFontService,sans-serif" font-weight="400" font-size="37" transform="translate(771.845 307)">0</text><text fill="#C04F15" font-family="Cambria Math,Cambria Math_MSFontService,sans-serif" font-weight="400" font-size="37" transform="translate(792.512 307)">.</text><text fill="#C04F15" font-family="Cambria Math,Cambria Math_MSFontService,sans-serif" font-weight="400" font-size="37" transform="translate(800.179 307)">5ğ‘‹</text><text fill="#C04F15" font-family="Cambria Math,Cambria Math_MSFontService,sans-serif" font-weight="400" font-size="25" transform="translate(844.845 315)">ğ‘–</text><path d="M147 675C147 671.686 149.91 669 153.5 669 157.09 669 160 671.686 160 675 160 678.314 157.09 681 153.5 681 149.91 681 147 678.314 147 675Z" stroke="#000000" stroke-width="2" stroke-miterlimit="8" fill="#E8E8E8" fill-rule="evenodd"/><text font-family="Calibri,Calibri_MSFontService,sans-serif" font-weight="400" font-size="24" transform="translate(183.945 682)">Independent observations</text><path d="M0 0 451.531 224.046" stroke="#E97132" stroke-width="6" stroke-miterlimit="8" fill="none" fill-rule="evenodd" transform="matrix(1 0 0 -1 99 523.046)"/><path d="M265 400C265 396.686 267.91 394 271.5 394 275.09 394 278 396.686 278 400 278 403.314 275.09 406 271.5 406 267.91 406 265 403.314 265 400Z" stroke="#000000" stroke-width="2" stroke-miterlimit="8" fill="#E8E8E8" fill-rule="evenodd"/><path d="M221 495C221 491.686 223.686 489 227 489 230.314 489 233 491.686 233 495 233 498.314 230.314 501 227 501 223.686 501 221 498.314 221 495Z" stroke="#000000" stroke-width="2" stroke-miterlimit="8" fill="#E8E8E8" fill-rule="evenodd"/><path d="M207 406C207 402.686 209.91 400 213.5 400 217.09 400 220 402.686 220 406 220 409.314 217.09 412 213.5 412 209.91 412 207 409.314 207 406Z" stroke="#000000" stroke-width="2" stroke-miterlimit="8" fill="#E8E8E8" fill-rule="evenodd"/><path d="M316 461C316 457.686 318.686 455 322 455 325.314 455 328 457.686 328 461 328 464.314 325.314 467 322 467 318.686 467 316 464.314 316 461Z" stroke="#000000" stroke-width="2" stroke-miterlimit="8" fill="#E8E8E8" fill-rule="evenodd"/><path d="M407 411C407 407.686 409.686 405 413 405 416.314 405 419 407.686 419 411 419 414.314 416.314 417 413 417 409.686 417 407 414.314 407 411Z" stroke="#000000" stroke-width="2" stroke-miterlimit="8" fill="#E8E8E8" fill-rule="evenodd"/><path d="M444 285C444 281.686 446.686 279 450 279 453.314 279 456 281.686 456 285 456 288.314 453.314 291 450 291 446.686 291 444 288.314 444 285Z" stroke="#000000" stroke-width="2" stroke-miterlimit="8" fill="#E8E8E8" fill-rule="evenodd"/><path d="M515 350C515 346.686 517.686 344 521 344 524.314 344 527 346.686 527 350 527 353.314 524.314 356 521 356 517.686 356 515 353.314 515 350Z" stroke="#000000" stroke-width="2" stroke-miterlimit="8" fill="#E8E8E8" fill-rule="evenodd"/><path d="M366 353C366 349.686 368.686 347 372 347 375.314 347 378 349.686 378 353 378 356.314 375.314 359 372 359 368.686 359 366 356.314 366 353Z" stroke="#000000" stroke-width="2" stroke-miterlimit="8" fill="#E8E8E8" fill-rule="evenodd"/><path d="M224 427C224 423.686 226.91 421 230.5 421 234.09 421 237 423.686 237 427 237 430.314 234.09 433 230.5 433 226.91 433 224 430.314 224 427Z" stroke="#000000" stroke-width="2" stroke-miterlimit="8" fill="#E8E8E8" fill-rule="evenodd"/><path d="M193 452C193 448.686 195.686 446 199 446 202.314 446 205 448.686 205 452 205 455.314 202.314 458 199 458 195.686 458 193 455.314 193 452Z" stroke="#000000" stroke-width="2" stroke-miterlimit="8" fill="#E8E8E8" fill-rule="evenodd"/><path d="M193 494C193 490.686 195.686 488 199 488 202.314 488 205 490.686 205 494 205 497.314 202.314 500 199 500 195.686 500 193 497.314 193 494Z" stroke="#000000" stroke-width="2" stroke-miterlimit="8" fill="#E8E8E8" fill-rule="evenodd"/><path d="M247 422C247 418.686 249.91 416 253.5 416 257.09 416 260 418.686 260 422 260 425.314 257.09 428 253.5 428 249.91 428 247 425.314 247 422Z" stroke="#000000" stroke-width="2" stroke-miterlimit="8" fill="#E8E8E8" fill-rule="evenodd"/><path d="M244 469C244 465.686 246.686 463 250 463 253.314 463 256 465.686 256 469 256 472.314 253.314 475 250 475 246.686 475 244 472.314 244 469Z" stroke="#000000" stroke-width="2" stroke-miterlimit="8" fill="#E8E8E8" fill-rule="evenodd"/><path d="M183 519C183 515.686 185.686 513 189 513 192.314 513 195 515.686 195 519 195 522.314 192.314 525 189 525 185.686 525 183 522.314 183 519Z" stroke="#000000" stroke-width="2" stroke-miterlimit="8" fill="#E8E8E8" fill-rule="evenodd"/><path d="M207 516C207 512.686 209.686 510 213 510 216.314 510 219 512.686 219 516 219 519.314 216.314 522 213 522 209.686 522 207 519.314 207 516Z" stroke="#000000" stroke-width="2" stroke-miterlimit="8" fill="#E8E8E8" fill-rule="evenodd"/><path d="M292 404C292 400.686 294.686 398 298 398 301.314 398 304 400.686 304 404 304 407.314 301.314 410 298 410 294.686 410 292 407.314 292 404Z" stroke="#000000" stroke-width="2" stroke-miterlimit="8" fill="#E8E8E8" fill-rule="evenodd"/><path d="M281 457C281 453.686 283.686 451 287 451 290.314 451 293 453.686 293 457 293 460.314 290.314 463 287 463 283.686 463 281 460.314 281 457Z" stroke="#000000" stroke-width="2" stroke-miterlimit="8" fill="#E8E8E8" fill-rule="evenodd"/><path d="M331 384C331 380.686 333.686 378 337 378 340.314 378 343 380.686 343 384 343 387.314 340.314 390 337 390 333.686 390 331 387.314 331 384Z" stroke="#000000" stroke-width="2" stroke-miterlimit="8" fill="#E8E8E8" fill-rule="evenodd"/><path d="M347 418C347 414.686 349.686 412 353 412 356.314 412 359 414.686 359 418 359 421.314 356.314 424 353 424 349.686 424 347 421.314 347 418Z" stroke="#000000" stroke-width="2" stroke-miterlimit="8" fill="#E8E8E8" fill-rule="evenodd"/><path d="M399 352C399 348.686 401.91 346 405.5 346 409.09 346 412 348.686 412 352 412 355.314 409.09 358 405.5 358 401.91 358 399 355.314 399 352Z" stroke="#000000" stroke-width="2" stroke-miterlimit="8" fill="#E8E8E8" fill-rule="evenodd"/><path d="M479 363C479 359.686 481.91 357 485.5 357 489.09 357 492 359.686 492 363 492 366.314 489.09 369 485.5 369 481.91 369 479 366.314 479 363Z" stroke="#000000" stroke-width="2" stroke-miterlimit="8" fill="#E8E8E8" fill-rule="evenodd"/><path d="M479 301C479 297.686 481.91 295 485.5 295 489.09 295 492 297.686 492 301 492 304.314 489.09 307 485.5 307 481.91 307 479 304.314 479 301Z" stroke="#000000" stroke-width="2" stroke-miterlimit="8" fill="#E8E8E8" fill-rule="evenodd"/><path d="M521 285C521 281.686 523.686 279 527 279 530.314 279 533 281.686 533 285 533 288.314 530.314 291 527 291 523.686 291 521 288.314 521 285Z" stroke="#000000" stroke-width="2" stroke-miterlimit="8" fill="#E8E8E8" fill-rule="evenodd"/><path d="M537 324C537 320.686 539.686 318 543 318 546.314 318 549 320.686 549 324 549 327.314 546.314 330 543 330 539.686 330 537 327.314 537 324Z" stroke="#000000" stroke-width="2" stroke-miterlimit="8" fill="#E8E8E8" fill-rule="evenodd"/><path d="M450 318C450 314.686 452.91 312 456.5 312 460.09 312 463 314.686 463 318 463 321.314 460.09 324 456.5 324 452.91 324 450 321.314 450 318Z" stroke="#000000" stroke-width="2" stroke-miterlimit="8" fill="#E8E8E8" fill-rule="evenodd"/><path d="M515 334C515 330.686 517.686 328 521 328 524.314 328 527 330.686 527 334 527 337.314 524.314 340 521 340 517.686 340 515 337.314 515 334Z" stroke="#000000" stroke-width="2" stroke-miterlimit="8" fill="#E8E8E8" fill-rule="evenodd"/><path d="M446 375C446 371.686 448.686 369 452 369 455.314 369 458 371.686 458 375 458 378.314 455.314 381 452 381 448.686 381 446 378.314 446 375Z" stroke="#000000" stroke-width="2" stroke-miterlimit="8" fill="#E8E8E8" fill-rule="evenodd"/><path d="M362 376C362 372.686 364.686 370 368 370 371.314 370 374 372.686 374 376 374 379.314 371.314 382 368 382 364.686 382 362 379.314 362 376Z" stroke="#000000" stroke-width="2" stroke-miterlimit="8" fill="#E8E8E8" fill-rule="evenodd"/><path d="M311 416C311 412.686 313.686 410 317 410 320.314 410 323 412.686 323 416 323 419.314 320.314 422 317 422 313.686 422 311 419.314 311 416Z" stroke="#000000" stroke-width="2" stroke-miterlimit="8" fill="#E8E8E8" fill-rule="evenodd"/><path d="M397 396C397 392.686 399.91 390 403.5 390 407.09 390 410 392.686 410 396 410 399.314 407.09 402 403.5 402 399.91 402 397 399.314 397 396Z" stroke="#000000" stroke-width="2" stroke-miterlimit="8" fill="#E8E8E8" fill-rule="evenodd"/><path d="M425 333C425 329.686 427.91 327 431.5 327 435.09 327 438 329.686 438 333 438 336.314 435.09 339 431.5 339 427.91 339 425 336.314 425 333Z" stroke="#000000" stroke-width="2" stroke-miterlimit="8" fill="#E8E8E8" fill-rule="evenodd"/><path d="M386 322C386 318.686 388.91 316 392.5 316 396.09 316 399 318.686 399 322 399 325.314 396.09 328 392.5 328 388.91 328 386 325.314 386 322Z" stroke="#000000" stroke-width="2" stroke-miterlimit="8" fill="#E8E8E8" fill-rule="evenodd"/><path d="M370 431C370 427.686 372.686 425 376 425 379.314 425 382 427.686 382 431 382 434.314 379.314 437 376 437 372.686 437 370 434.314 370 431Z" stroke="#000000" stroke-width="2" stroke-miterlimit="8" fill="#E8E8E8" fill-rule="evenodd"/><path d="M425 378C425 374.686 427.91 372 431.5 372 435.09 372 438 374.686 438 378 438 381.314 435.09 384 431.5 384 427.91 384 425 381.314 425 378Z" stroke="#000000" stroke-width="2" stroke-miterlimit="8" fill="#E8E8E8" fill-rule="evenodd"/><path d="M463 337C463 333.686 465.686 331 469 331 472.314 331 475 333.686 475 337 475 340.314 472.314 343 469 343 465.686 343 463 340.314 463 337Z" stroke="#000000" stroke-width="2" stroke-miterlimit="8" fill="#E8E8E8" fill-rule="evenodd"/><path d="M280 441C280 437.686 282.91 435 286.5 435 290.09 435 293 437.686 293 441 293 444.314 290.09 447 286.5 447 282.91 447 280 444.314 280 441Z" stroke="#000000" stroke-width="2" stroke-miterlimit="8" fill="#E8E8E8" fill-rule="evenodd"/><path d="M498 306C498 302.686 500.686 300 504 300 507.314 300 510 302.686 510 306 510 309.314 507.314 312 504 312 500.686 312 498 309.314 498 306Z" stroke="#000000" stroke-width="2" stroke-miterlimit="8" fill="#E8E8E8" fill-rule="evenodd"/><path d="M266 479C266 475.686 268.91 473 272.5 473 276.09 473 279 475.686 279 479 279 482.314 276.09 485 272.5 485 268.91 485 266 482.314 266 479Z" stroke="#000000" stroke-width="2" stroke-miterlimit="8" fill="#E8E8E8" fill-rule="evenodd"/><path d="M211 464C211 460.686 213.686 458 217 458 220.314 458 223 460.686 223 464 223 467.314 220.314 470 217 470 213.686 470 211 467.314 211 464Z" stroke="#000000" stroke-width="2" stroke-miterlimit="8" fill="#E8E8E8" fill-rule="evenodd"/><path d="M491 338C491 334.686 493.91 332 497.5 332 501.09 332 504 334.686 504 338 504 341.314 501.09 344 497.5 344 493.91 344 491 341.314 491 338Z" stroke="#000000" stroke-width="2" stroke-miterlimit="8" fill="#E8E8E8" fill-rule="evenodd"/><path d="M340 360C340 356.686 342.91 354 346.5 354 350.09 354 353 356.686 353 360 353 363.314 350.09 366 346.5 366 342.91 366 340 363.314 340 360Z" stroke="#000000" stroke-width="2" stroke-miterlimit="8" fill="#E8E8E8" fill-rule="evenodd"/><path d="M309 380C309 376.686 311.91 374 315.5 374 319.09 374 322 376.686 322 380 322 383.314 319.09 386 315.5 386 311.91 386 309 383.314 309 380Z" stroke="#000000" stroke-width="2" stroke-miterlimit="8" fill="#E8E8E8" fill-rule="evenodd"/><path d="M364 401C364 397.686 366.686 395 370 395 373.314 395 376 397.686 376 401 376 404.314 373.314 407 370 407 366.686 407 364 404.314 364 401Z" stroke="#000000" stroke-width="2" stroke-miterlimit="8" fill="#E8E8E8" fill-rule="evenodd"/><path d="M528 255C528 251.686 530.686 249 534 249 537.314 249 540 251.686 540 255 540 258.314 537.314 261 534 261 530.686 261 528 258.314 528 255Z" stroke="#000000" stroke-width="2" stroke-miterlimit="8" fill="#E8E8E8" fill-rule="evenodd"/><path d="M180 469C180 465.686 182.91 463 186.5 463 190.09 463 193 465.686 193 469 193 472.314 190.09 475 186.5 475 182.91 475 180 472.314 180 469Z" stroke="#000000" stroke-width="2" stroke-miterlimit="8" fill="#E8E8E8" fill-rule="evenodd"/><path d="M284 378C284 374.686 286.91 372 290.5 372 294.09 372 297 374.686 297 378 297 381.314 294.09 384 290.5 384 286.91 384 284 381.314 284 378Z" stroke="#000000" stroke-width="2" stroke-miterlimit="8" fill="#E8E8E8" fill-rule="evenodd"/><path d="M502 286C502 282.686 504.91 280 508.5 280 512.09 280 515 282.686 515 286 515 289.314 512.09 292 508.5 292 504.91 292 502 289.314 502 286Z" stroke="#000000" stroke-width="2" stroke-miterlimit="8" fill="#E8E8E8" fill-rule="evenodd"/><path d="M423 351C423 347.686 425.686 345 429 345 432.314 345 435 347.686 435 351 435 354.314 432.314 357 429 357 425.686 357 423 354.314 423 351Z" stroke="#000000" stroke-width="2" stroke-miterlimit="8" fill="#E8E8E8" fill-rule="evenodd"/><path d="M441 404C441 400.686 443.686 398 447 398 450.314 398 453 400.686 453 404 453 407.314 450.314 410 447 410 443.686 410 441 407.314 441 404Z" stroke="#000000" stroke-width="2" stroke-miterlimit="8" fill="#E8E8E8" fill-rule="evenodd"/></g></svg>